<svg width="64" height="63" viewBox="0 0 64 63" fill="none" xmlns="http://www.w3.org/2000/svg">
<path d="M13.3004 62.3418C12.93 62.4085 12.5905 62.1416 12.5287 61.7412C12.467 61.3408 12.7139 60.9404 13.0843 60.8736L55.5251 52.732C55.8954 52.6652 56.2658 52.9322 56.3276 53.3326C56.3893 53.733 56.1424 54.1334 55.772 54.2001L13.3313 62.3418H13.3004Z" fill="#1A4D96"/>
<path d="M39.4572 5.61338C39.7644 3.09384 40.5324 1.41415 41.7919 0.910241C45.7855 -0.702264 53.1583 10.1486 58.2578 25.165C63.3573 40.1815 64.2482 53.6526 60.2546 55.2987C58.9951 55.8026 57.4284 55.0971 55.6773 53.4175L56.5682 43.1713L52.9125 28.39L46.9221 15.6579L39.4572 5.61338Z" fill="#1A4D96"/>
<path d="M59.7939 56.1721C58.4422 56.3737 56.9062 55.6346 55.1859 53.955C54.9094 53.6862 54.8787 53.2159 55.1244 52.88C55.3702 52.5776 55.8003 52.544 56.1075 52.8128C57.2134 53.8878 58.7801 55.0636 59.9782 54.5596C61.5449 53.9214 62.2822 50.4612 61.9443 45.2877C61.5756 39.6776 60.0397 32.6229 57.582 25.4338C55.1552 18.2447 52.1139 11.7947 49.0419 7.25948C46.2156 3.09384 43.6044 0.977427 42.007 1.61571C40.8089 2.11962 40.3174 4.10166 40.1023 5.71416C40.0409 6.11729 39.703 6.41963 39.3343 6.35245C38.9657 6.28526 38.6892 5.91573 38.7506 5.5126C39.1193 2.58993 40.0409 0.809458 41.5154 0.204768C43.7887 -0.702266 46.7686 1.41415 50.1171 6.35245C53.2505 10.9884 56.3532 17.5728 58.8416 24.8963C61.3299 32.2197 62.8966 39.4088 63.296 45.187C63.6953 51.3346 62.7123 55.0636 60.439 56.0042C60.224 56.105 60.0089 56.1386 59.7632 56.1721H59.7939Z" fill="#1A4D96"/>
<path d="M2.22906 31.5301C1.95238 31.5637 1.70646 31.4293 1.55275 31.1607C1.33755 30.7913 1.46052 30.3548 1.76794 30.1197L38.9043 5.17018C39.2424 4.93512 39.6421 5.06944 39.8573 5.40523C40.0725 5.77461 39.9495 6.21114 39.6421 6.4462L2.50575 31.3958C2.50575 31.3958 2.32129 31.4965 2.22906 31.4965V31.5301Z" fill="#1A4D96"/>
<path d="M13.0168 62.3186C9.52849 62.82 5.06108 55.6669 2.46018 48.2463C0.991435 44.0347 0.104072 39.8564 0.012276 36.4804C-0.110119 32.7701 0.685455 30.4637 2.27659 29.7952C3.89833 29.1267 5.88725 30.2632 8.05976 33.1378C10.0487 35.745 11.9458 39.4887 13.4146 43.7004C16.1684 51.5555 17.1476 60.6807 13.5981 62.1849C13.4145 62.2518 13.2003 62.3186 13.0168 62.352V62.3186ZM3.04156 31.0988C3.04156 31.0988 2.85796 31.1323 2.79677 31.1657C1.8176 31.5668 1.29742 33.5389 1.41982 36.4136C1.54221 39.6559 2.36838 43.667 3.77593 47.7115C6.68281 56.0345 10.7831 61.1153 12.8638 60.8144C12.9556 60.8144 13.0474 60.781 13.1392 60.7476C15.1281 59.9119 15.2199 52.9259 12.16 44.2018C10.7524 40.1573 8.91652 36.5473 7.01939 34.0737C5.48945 32.0348 4.02072 30.9651 3.04156 31.1323V31.0988Z" fill="#1A4D96"/>
<path d="M55.7535 54.1663C55.7535 54.1663 55.5126 54.1663 55.3922 54.0992C55.061 53.9317 54.9104 53.4959 55.061 53.0937C56.8374 48.7364 55.8438 39.7873 52.4716 29.732C49.0692 19.6097 44.0108 10.6605 39.2535 6.40377C38.9524 6.13563 38.9223 5.66638 39.1631 5.33121C39.404 4.99603 39.8256 4.96252 40.1267 5.23066C45.1549 9.72201 50.2435 18.7047 53.7663 29.1957C57.3192 39.7537 58.2526 48.9375 56.2955 53.697C56.2051 53.9317 55.9944 54.0992 55.7535 54.1328V54.1663Z" fill="#1A4D96"/>
</svg>
