<svg width="623" height="469" viewBox="0 0 623 469" fill="none" xmlns="http://www.w3.org/2000/svg">
<path d="M173.79 180.487L363.086 140.39L477.797 177.064" stroke="#CACACA" stroke-width="1.18" stroke-linecap="round" stroke-linejoin="round" stroke-dasharray="4 4"/>
<path d="M179.144 119.895L399.092 73.306L513.803 109.981" stroke="#CACACA" stroke-width="1.18" stroke-linecap="round" stroke-linejoin="round" stroke-dasharray="4 4"/>
<path d="M358.795 248.54L612.193 327.911L292.221 396.516" stroke="#CACACA" stroke-width="1.18" stroke-linecap="round" stroke-linejoin="round" stroke-dasharray="4 4"/>
<path d="M257.934 249.52L447.855 308.296L326.936 334.829" stroke="#CACACA" stroke-width="1.18" stroke-linecap="round" stroke-linejoin="round" stroke-dasharray="4 4"/>
<path d="M527.296 197.092L622.108 227.404L180.536 321.334L275.915 351.645" stroke="#CACACA" stroke-width="1.18" stroke-linecap="round" stroke-linejoin="round" stroke-dasharray="4 4"/>
<path d="M276.143 252.075L30.33 169.21L186.303 136.157" stroke="#CACACA" stroke-width="1.01" stroke-linecap="round" stroke-linejoin="round" stroke-dasharray="4 4"/>
<path d="M243.771 389.711L39.8304 311.945L192.338 279.631" stroke="#CACACA" stroke-width="0.99" stroke-linecap="round" stroke-linejoin="round" stroke-dasharray="4 4"/>
<path opacity="0.2" d="M437.527 192.932L527.168 173.941L601.64 197.747L512.013 216.752L437.527 192.932Z" fill="#514E54"/>
<path d="M486.843 175.647L537.992 164.625L537.921 81.9153L486.786 92.9802L486.843 175.647Z" fill="#F15A29"/>
<path d="M537.921 81.9708L551.414 86.3314L500.28 97.382L486.786 93.0214L537.921 81.9708Z" fill="#F15A29"/>
<path d="M501.942 177.666L549.866 167.339L549.809 88.4508L501.885 98.8197L501.942 177.666Z" fill="#FFECD7"/>
<path d="M537.167 84.3727L549.808 88.4492L501.884 98.8181L489.243 94.7273L537.167 84.3727Z" fill="#FFF7F0"/>
<path d="M501.884 98.8185L501.941 177.665L489.3 173.531L489.243 94.7277L501.884 98.8185Z" fill="#F9DEC2"/>
<path d="M500.337 180.047L551.485 169.025L551.414 86.3293L500.28 97.38L500.337 180.047Z" fill="url(#paint0_linear_452_825)"/>
<path d="M507.197 110.862L544.61 102.808L544.553 98.9022L507.154 106.998L507.197 110.862Z" fill="#F15A29"/>
<path d="M507.197 120.664L544.61 112.596L544.553 108.704L507.154 116.8L507.197 120.664Z" fill="#F15A29"/>
<path d="M507.197 130.45L544.61 122.396L544.553 118.49L507.154 126.587L507.197 130.45Z" fill="#F15A29"/>
<path d="M474.867 198.019L526.002 187.01L525.945 104.301L474.811 115.366L474.867 198.019Z" fill="#19A3A3"/>
<path d="M525.931 104.355L539.425 108.702L488.291 119.766L474.811 115.406L525.931 104.355Z" fill="#19A3A3"/>
<path d="M489.967 200.034L537.891 189.708L537.82 110.833L489.91 121.188L489.967 200.034Z" fill="#FFECD7"/>
<path d="M525.179 106.743L537.82 110.834L489.911 121.189L477.269 117.112L525.179 106.743Z" fill="#FFF7F0"/>
<path d="M489.91 121.189L489.967 200.035L477.325 195.902L477.269 117.113L489.91 121.189Z" fill="#F9DEC2"/>
<path d="M488.348 202.421L539.497 191.413L539.426 108.704L488.292 119.768L488.348 202.421Z" fill="url(#paint1_linear_452_825)"/>
<path d="M495.208 133.233L532.621 125.179L532.578 121.287L495.165 129.369L495.208 133.233Z" fill="#19A3A3"/>
<path d="M495.208 143.033L532.621 134.965L532.578 131.073L495.165 139.17L495.208 143.033Z" fill="#19A3A3"/>
<path d="M495.208 152.818L532.621 144.765L532.578 140.873L495.165 148.955L495.208 152.818Z" fill="#19A3A3"/>
<path d="M508.092 206.145L559.226 195.137L559.17 112.428L508.035 123.492L508.092 206.145Z" fill="#F7941E"/>
<path d="M559.169 112.468L572.649 116.828L521.514 127.893L508.035 123.533L559.169 112.468Z" fill="#F7941E"/>
<path d="M523.191 208.161L571.115 197.849L571.058 118.96L523.134 129.315L523.191 208.161Z" fill="#FFECD7"/>
<path d="M558.403 114.87L571.059 118.961L523.135 129.316L510.494 125.239L558.403 114.87Z" fill="#FFF7F0"/>
<path d="M523.134 129.315L523.191 208.161L510.55 204.028L510.493 125.238L523.134 129.315Z" fill="#F9DEC2"/>
<path d="M521.572 210.545L572.72 199.537L572.649 116.827L521.515 127.892L521.572 210.545Z" fill="#FFE182"/>
<path d="M528.431 141.357L565.844 133.304L565.802 129.412L528.388 137.494L528.431 141.357Z" fill="#F7941E"/>
<path d="M528.431 151.162L565.844 143.108L565.802 139.202L528.388 147.298L528.431 151.162Z" fill="#F7941E"/>
<path d="M528.431 160.948L565.844 152.894L565.802 149.002L528.388 157.084L528.431 160.948Z" fill="#F7941E"/>
<path d="M302.844 208.242L368.694 194.294L451.545 220.798L385.71 234.746L302.844 208.242Z" fill="#1B5590"/>
<path d="M336.025 210.755L371.833 203.17L376.406 204.633L340.612 212.218L336.025 210.755Z" fill="#E6E7E8"/>
<path d="M350.299 215.275L386.093 207.69L390.681 209.167L354.873 216.752L350.299 215.275Z" fill="#E6E7E8"/>
<path d="M364.56 219.806L400.354 212.221L404.942 213.684L369.148 221.269L364.56 219.806Z" fill="#F15A29"/>
<path d="M378.82 224.335L414.628 216.75L419.202 218.213L383.408 225.798L378.82 224.335Z" fill="#F15A29"/>
<path d="M288.811 225.473L354.675 211.524L437.526 238.015L371.677 251.977L288.811 225.473Z" fill="#E6E7E8"/>
<path d="M322.006 227.971L357.8 220.386L362.388 221.864L326.594 229.448L322.006 227.971Z" fill="#D1D3D4"/>
<path d="M336.267 232.502L372.061 224.917L376.649 226.38L340.855 233.965L336.267 232.502Z" fill="#D1D3D4"/>
<path d="M350.541 237.035L386.335 229.45L390.923 230.913L355.129 238.498L350.541 237.035Z" fill="#D1D3D4"/>
<path d="M364.803 241.553L400.597 233.968L405.184 235.431L369.391 243.016L364.803 241.553Z" fill="#D1D3D4"/>
<path d="M353.567 228.711L354.746 221.368L406.093 210.488L488.945 236.992L423.095 250.94L353.567 228.711Z" fill="#F1F2F2"/>
<path d="M354.745 221.369L361.776 224.224L353.566 228.712" fill="#E6E7E8"/>
<path d="M373.425 226.95L409.219 219.365L413.807 220.828L378.013 228.413L373.425 226.95Z" fill="#E6E7E8"/>
<path d="M387.684 231.481L423.478 223.882L428.066 225.359L392.272 232.944L387.684 231.481Z" fill="#E6E7E8"/>
<path d="M401.96 235.995L437.754 228.411L442.341 229.874L406.533 237.458L401.96 235.995Z" fill="#E6E7E8"/>
<path d="M416.221 240.528L452.015 232.943L456.603 234.406L420.809 241.991L416.221 240.528Z" fill="#E6E7E8"/>
<path d="M277.189 271.465L330.042 259.164L330 254.761L277.147 267.104L277.189 271.465Z" fill="#D1D3D4"/>
<path d="M295.086 265.81L312.131 261.833L312.117 260.413L295.072 264.39L295.086 265.81Z" fill="#BCBEC0"/>
<path d="M210.103 245.968L210.16 250.371L277.189 271.464L277.146 267.103L210.103 245.968Z" fill="#E6E7E8"/>
<path d="M217.845 250.1L225.984 252.671V254.091L217.86 251.535L217.845 250.1Z" fill="#F1F2F2"/>
<path d="M229.606 253.864L237.731 256.421L237.745 257.842L229.606 255.285V253.864Z" fill="#F1F2F2"/>
<path d="M262.97 233.638L329.999 254.759L277.146 267.102L210.103 245.967L262.97 233.638Z" fill="#F1F2F2"/>
<path d="M323.125 254.491L262.9 235.529L216.993 246.239L277.232 265.215L323.125 254.491Z" fill="#38353C"/>
<path d="M245.954 248.371C245.954 249.55 248.213 250.501 250.982 250.501C253.752 250.501 256.011 249.55 256.011 248.371C256.011 247.192 253.752 246.24 250.982 246.24C248.213 246.24 245.954 247.192 245.954 248.371Z" fill="#F1F2F2"/>
<path d="M284.204 253.001C284.204 254.18 286.448 255.132 289.232 255.132C292.016 255.132 294.26 254.18 294.26 253.001C294.26 251.822 292.016 250.87 289.232 250.87C286.448 250.87 284.204 251.822 284.204 253.001Z" fill="#F1F2F2"/>
<path d="M263.978 242.288C263.978 243.211 265.739 243.95 267.898 243.95C270.057 243.95 271.818 243.211 271.818 242.288C271.818 241.365 270.057 240.626 267.898 240.626C265.739 240.626 263.978 241.365 263.978 242.288Z" fill="#F1F2F2"/>
<path d="M270.626 251.395L268.666 241.609L267.132 241.921L268.68 249.606L251.848 247.603L251.664 249.151L270.626 251.395Z" fill="#F1F2F2"/>
<path d="M269.784 249.277L289.375 252.247L289.143 253.778L269.552 250.808L269.784 249.277Z" fill="#F1F2F2"/>
<path d="M259.631 250.499C259.631 252.843 264.119 254.732 269.645 254.732C275.17 254.732 279.659 252.828 279.659 250.499C279.659 248.17 275.17 246.252 269.645 246.252C264.119 246.252 259.631 248.155 259.631 250.499Z" fill="#27AAE1"/>
<g opacity="0.2">
<path d="M251.153 257.007L238.512 253.016L296.109 245.985L308.75 249.976L251.153 257.007Z" fill="white"/>
<path d="M288.849 243.71L231.266 250.727L216.992 246.239L239.59 240.969L268.822 237.39L288.849 243.71Z" fill="white"/>
</g>
<path d="M259.108 277.047L268.923 280.144C269.491 280.286 270.017 280.456 270.528 280.655L273.369 281.55L254.677 294.163L231.979 287.018L231.936 283.212L259.094 277.047H259.108Z" fill="#38353C"/>
<path d="M308.196 292.502L308.238 296.323L281.08 302.459L260.925 296.124L288.154 286.195L308.196 292.502Z" fill="#38353C"/>
<path d="M281.08 302.456L308.238 296.32L308.196 292.5L281.052 298.664L281.08 302.456Z" fill="#38353C"/>
<path d="M231.949 283.199L231.992 287.02L281.081 302.46L281.053 298.667L231.949 283.199Z" fill="#514E54"/>
<path d="M259.107 277.047L308.196 292.501L281.052 298.666L231.949 283.197L259.107 277.047Z" fill="#38353C"/>
<path d="M302.23 292.275L259.05 278.682L237.929 283.441L281.109 297.034L302.23 292.275Z" fill="white"/>
<mask id="mask0_452_825" style="mask-type:luminance" maskUnits="userSpaceOnUse" x="237" y="278" width="66" height="20">
<path d="M302.23 292.275L259.05 278.682L237.929 283.44L281.109 297.033L302.23 292.275Z" fill="white"/>
</mask>
<g mask="url(#mask0_452_825)">
<path d="M250.57 285.37C250.57 288.665 256.138 291.336 263.013 291.336C269.887 291.336 275.455 288.665 275.455 285.37C275.455 282.075 269.887 279.419 263.013 279.419C256.138 279.419 250.57 282.089 250.57 285.37Z" fill="#F7941E"/>
<path d="M262.217 287.771C262.217 291.265 268.126 294.091 275.398 294.091C282.671 294.091 288.579 291.265 288.579 287.771C288.579 284.276 282.671 281.45 275.398 281.45C268.126 281.45 262.217 284.276 262.217 287.771Z" fill="#22BCC4"/>
<path d="M252.813 291.334C252.813 294.033 257.372 296.22 263.011 296.22C268.65 296.22 273.195 294.033 273.195 291.334C273.195 288.635 268.636 286.448 263.011 286.448C257.386 286.448 252.813 288.635 252.813 291.334Z" fill="#FC4353"/>
</g>
<path opacity="0.3" d="M296.62 290.512L302.23 292.273L281.109 297.031L275.499 295.256L296.62 290.512Z" fill="#514E54"/>
<path opacity="0.3" d="M263.922 280.216L241.068 282.73L237.943 283.44L254.548 288.667L280.64 285.485L263.922 280.23V280.216ZM270.882 293.809L260.499 290.542L286.606 287.36L296.989 290.627L270.896 293.809H270.882Z" fill="white"/>
<path opacity="0.2" d="M1.52588e-05 272.999L82.8516 255.443L213.869 298.41L132.04 316.975L1.52588e-05 272.999Z" fill="#514E54"/>
<path d="M198.897 283.001V296.409L165.063 296.793L147.891 285.955L158.913 274.933" fill="#F15A29"/>
<path d="M120.506 271.78L198.897 296.409L138.161 310.215L59.7695 284.449L120.506 271.78Z" fill="#F15A29"/>
<path d="M192.462 283.115V295.288L161.753 295.643L146.171 285.799L156.17 275.8" fill="#F9DEC2"/>
<path d="M121.328 272.931L192.462 295.288L137.35 307.816L66.2169 284.436L121.328 272.931Z" fill="#F9DEC2"/>
<path d="M66.2176 272.263V284.436L108.332 278.201" fill="#F9DEC2"/>
<path d="M121.329 260.758L192.463 283.115L137.351 295.643L66.2179 272.263L121.329 260.758Z" fill="#FFF7F0"/>
<path d="M120.506 258.356L198.898 283L138.162 296.792L59.77 271.026L120.506 258.356Z" fill="url(#paint2_linear_452_825)"/>
<path d="M98.5184 278.341L79.6555 272.148L120.236 263.668L139.61 269.762L98.5184 278.341Z" fill="#F15A29"/>
<path d="M171.059 262.588V275.997L137.211 276.38L120.039 265.543L131.075 254.506" fill="#F22C52"/>
<path d="M92.6676 251.352L171.059 275.995L110.323 289.788L31.9316 264.022L92.6676 251.352Z" fill="#F22C52"/>
<path d="M164.61 262.703V274.875L133.901 275.216L118.334 265.387L128.333 255.388" fill="#F9DEC2"/>
<path d="M93.4769 252.516L164.61 274.873L109.499 287.387L38.3656 264.021L93.4769 252.516Z" fill="#F9DEC2"/>
<path d="M38.3657 251.837V264.024L80.4946 257.774" fill="#F9DEC2"/>
<path d="M93.4769 240.346L164.61 262.703L109.499 275.216L38.3656 251.837L93.4769 240.346Z" fill="#FFF7F0"/>
<path d="M92.6672 237.943L171.059 262.587L110.323 276.379L31.9311 250.613L92.6672 237.943Z" fill="#FF3E5A"/>
<path d="M70.6656 257.929L51.817 251.722L92.3977 243.257L111.772 249.35L70.6656 257.929Z" fill="#F22C52"/>
<path d="M189.609 250.076V263.484L155.761 263.868L138.603 253.03L149.625 242.008" fill="#19A3A3"/>
<path d="M111.217 238.843L189.609 263.487L128.873 277.293L50.4814 251.527L111.217 238.843Z" fill="#19A3A3"/>
<path d="M183.175 250.191V262.363L152.466 262.719L136.885 252.875L146.884 242.876" fill="#F9DEC2"/>
<path d="M112.028 240.004L183.175 262.361L128.064 274.889L56.9308 251.51L112.028 240.004Z" fill="#F9DEC2"/>
<path d="M56.9299 239.339V251.512L99.0446 245.276" fill="#F9DEC2"/>
<path d="M112.027 227.834L183.175 250.191L128.064 262.719L56.9303 239.339L112.027 227.834Z" fill="#FFF7F0"/>
<path d="M111.217 225.432L189.609 250.076L128.872 263.868L50.4809 238.102L111.217 225.432Z" fill="url(#paint3_linear_452_825)"/>
<path d="M89.2298 245.416L70.367 239.223L110.948 230.743L130.322 236.837L89.2298 245.416Z" fill="#19A3A3"/>
<path d="M173.629 231.838V245.26L139.795 245.63L122.623 234.792L133.645 223.77" fill="#F15A29"/>
<path d="M95.2375 220.615L173.629 245.259L112.893 259.051L34.5014 233.285L95.2375 220.615Z" fill="#F15A29"/>
<path d="M167.194 231.951V244.138L136.485 244.478L120.903 234.635L130.903 224.635" fill="#F9DEC2"/>
<path d="M96.0604 221.765L167.194 244.137L112.082 256.65L40.9491 233.271L96.0604 221.765Z" fill="#F9DEC2"/>
<path d="M40.9494 221.098V233.271L83.0641 227.035" fill="#F9DEC2"/>
<path d="M96.0604 209.593L167.194 231.95L112.082 244.477L40.9491 221.098L96.0604 209.593Z" fill="#FFF7F0"/>
<path d="M95.2377 207.193L173.629 231.837L112.893 245.629L34.5016 219.863L95.2377 207.193Z" fill="url(#paint4_linear_452_825)"/>
<path d="M73.2492 227.177L54.3864 220.984L94.967 212.504L114.341 218.598L73.2492 227.177Z" fill="#F15A29"/>
<path opacity="0.2" d="M68.1679 418.461L237.195 378.093L348.341 425.25L171.502 468.998L68.1679 418.461Z" fill="#514E54"/>
<path d="M171.629 468.999L348.354 427.069L348.212 300.654L171.501 342.669L171.629 468.999Z" fill="#F1F2F2"/>
<path d="M216.271 382.966L306.069 362.058L306.012 340.993L216.215 361.944L216.271 382.966Z" fill="#E6E7E8"/>
<path d="M223.431 400.648L298.911 383.064L298.854 377.425L223.388 395.038L223.431 400.648Z" fill="#A7A9AC"/>
<path d="M207.181 415.452L315.188 390.297L315.103 386.263L207.11 411.461L207.181 415.452Z" fill="#E6E7E8"/>
<path d="M278.514 415.817L317.305 406.769L317.39 409.439L278.599 418.459L278.514 415.817Z" fill="#E6E7E8"/>
<path d="M204.908 432.963L243.685 423.915L243.77 426.586L204.993 435.619L204.908 432.963Z" fill="#E6E7E8"/>
<path d="M182.651 455.985L339.732 419.41V418.885L339.618 313.662L338.823 313.846L182.565 350.322V350.834L182.665 455.971L182.651 455.985ZM338.425 418.373L183.943 454.352L183.844 351.373L338.297 315.324L338.411 418.388L338.425 418.373Z" fill="#F7941E"/>
<path d="M193.602 384.455L188.361 406.656L194.738 401.727L198.431 408.204L201.002 397.395L203.587 407.096L207.266 399.043L213.658 401.23L208.332 381.302L200.974 385.577L193.602 384.455Z" fill="#FF3E5A"/>
<path d="M198.247 351.036L196.244 354.885L193.034 353.99L191.926 358.195L188.489 358.521L188.347 362.726L184.938 364.231L185.776 368.123L182.694 370.68L184.441 373.918L181.941 377.327L184.455 379.671L182.722 383.648L185.804 384.898L184.981 389.145L188.39 389.188L188.546 393.335L191.997 392.185L193.12 395.906L196.315 393.648L198.332 396.645L201.031 393.449L203.744 395.48L205.747 391.631L208.957 392.526L210.065 388.321L213.502 387.994L213.644 383.776L217.053 382.284L216.215 378.393L219.297 375.836L217.536 372.597L220.05 369.188L217.522 366.845L219.269 362.853L216.187 361.618L216.996 357.371L213.602 357.328L213.445 353.181L209.994 354.331L208.872 350.61L205.676 352.868L203.659 349.871L200.96 353.053L198.247 351.036Z" fill="#F7941E"/>
<g opacity="0.3">
<path d="M200.959 356.362C193.232 358.009 186.996 366.915 187.011 376.247C187.025 385.579 193.303 391.8 201.03 390.153C208.757 388.505 214.992 379.599 214.978 370.267C214.964 360.935 208.686 354.7 200.959 356.362Z" fill="white"/>
</g>
<g opacity="0.3">
<path d="M200.958 358.704C194.311 360.125 188.927 367.795 188.941 375.834C188.941 383.874 194.353 389.229 201.015 387.808C207.662 386.388 213.046 378.718 213.031 370.678C213.017 362.639 207.62 357.284 200.958 358.704Z" fill="white"/>
</g>
<path d="M202.848 365.339L198.005 366.376L198.033 379.77L200.831 379.173L200.817 368.506L202.848 368.08V365.339Z" fill="#CF7528"/>
<path d="M204.327 365.609L199.469 366.646L199.497 380.04L202.31 379.444L202.295 368.776L204.327 368.336V365.609Z" fill="white"/>
<path opacity="0.5" d="M348.213 300.654L246.569 324.829L348.312 392.71L348.213 300.668V300.654ZM171.501 342.669L210.619 333.366L348.34 425.251V427.069L283.542 442.438L171.516 367.697L171.487 342.669H171.501ZM171.587 423.547L171.558 389.898L259.04 448.262L221.854 457.082L171.601 423.547H171.587Z" fill="white"/>
<path opacity="0.2" d="M332.486 107.893L400.481 93.4903L456.984 111.558L388.99 125.961L332.486 107.893Z" fill="#514E54"/>
<path d="M376.15 109.722C376.15 114.452 386.561 118.301 399.402 118.301C412.242 118.301 422.653 114.466 422.653 109.722C422.653 104.978 412.242 101.143 399.402 101.143C386.561 101.143 376.15 104.978 376.15 109.722Z" fill="#514E54"/>
<path d="M411.659 103.261H422.639V109.724H411.659V103.261Z" fill="#514E54"/>
<path d="M376.15 103.261H387.13V109.724H376.15V103.261Z" fill="#514E54"/>
<path d="M376.15 103.589C376.15 108.319 386.561 112.168 399.402 112.168C412.242 112.168 422.653 108.333 422.653 103.589C422.653 98.8447 412.242 95.0096 399.402 95.0096C386.561 95.0096 376.15 98.8447 376.15 103.589Z" fill="url(#paint5_linear_452_825)"/>
<path d="M399.317 105.892L406.945 104.117V84.984L399.303 86.7737L399.317 105.892Z" fill="url(#paint6_linear_452_825)"/>
<path d="M391.846 84.3859L391.861 103.504L399.318 105.891L399.304 86.7722L391.846 84.3859Z" fill="#7E7C7F"/>
<path d="M399.472 82.5952L406.943 84.9814L399.302 86.7711L391.845 84.3848L399.472 82.5952Z" fill="#FF5C7B"/>
<path d="M355.739 51.7153C355.739 75.8336 375.283 95.3782 399.402 95.3782C423.52 95.3782 443.065 75.8336 443.065 51.7153C443.065 27.597 423.52 8.05237 399.402 8.05237C375.283 8.05237 355.739 27.597 355.739 51.7153Z" fill="#22BCC4"/>
<path d="M356.194 57.9828C359.233 79.1325 377.414 95.3818 399.402 95.3818C405.027 95.3818 410.41 94.3023 415.353 92.3706C414.529 92.4558 414.217 92.2143 414.956 91.3621C417.697 88.2088 417.47 86.9163 417.597 85.7657C417.882 84.0186 418.038 80.7375 415.509 79.7149C413.265 78.8058 410.865 78.5785 408.564 77.8825C407.101 77.4422 406.078 76.2633 404.445 76.519C403.891 76.6042 402.825 76.8172 402.726 77.499C402.612 78.2518 404.828 81.1778 405.808 82.9391C406.802 84.7146 406.305 85.9504 403.678 83.7488C401.05 81.5614 396.917 79.3172 396.292 80.8938C395.667 82.4704 398.806 83.2943 398.01 83.976C397.215 84.6578 391.917 84.53 388.181 83.2942C384.431 82.0727 382.372 79.0331 384.545 79.2887C386.718 79.5302 388.664 81.4761 390.482 80.4535C392.3 79.445 394.871 78.1808 392.258 74.2037C389.644 70.2124 388.905 70.1556 385.639 72.2436C382.372 74.3173 379.914 71.718 376.534 69.7721C373.153 67.8262 370.114 66.008 368.338 62.9542C366.563 59.8862 361.819 60.1844 360.711 57.4999C360.654 57.372 360.597 57.2584 360.54 57.1732C360.54 57.1732 358.765 54.7727 357.415 57.2868C357.06 57.9402 356.634 58.1391 356.194 57.9828ZM376.988 21.777C378.068 25.3137 381.875 27.3449 384.289 30.7823C386.704 34.2196 382.968 31.3504 379.403 35.2423C375.838 39.1342 375.724 40.6682 373.849 41.421C371.974 42.1738 371.278 45.8669 366.946 50.1564C365.867 51.2217 363.495 51.8609 362.017 51.6621C360.654 51.4774 359.404 50.6962 358.523 49.6593C358.225 49.3184 357.969 48.9491 357.742 48.5514C357.018 47.2873 356.634 45.81 356.378 44.347C358.268 33.2822 364.304 23.6377 372.855 17.0755C373.111 20.1009 376.051 18.7089 376.988 21.777ZM428.478 73.7918C427.938 73.8628 427.981 72.7407 427.995 72.485C428.236 70.2976 429.316 66.9029 432.171 67.4C432.867 67.5279 433.52 68.3091 433.364 69.0619C432.923 71.3061 433.222 71.2635 434.301 70.6669C435.381 70.0562 437.412 67.0449 435.935 65.6387C434.458 64.2326 430.267 67.8404 428.364 65.6387C426.475 63.4371 424.003 65.2694 422.555 63.9485C421.106 62.6275 423.677 58.1107 421.163 59.6873C418.663 61.2781 416.802 60.4401 416.191 58.3947C415.58 56.3494 416.916 53.8637 418.918 54.8438C420.921 55.8238 425.055 59.2328 427.725 55.4971C430.395 51.7615 429.912 50.5968 430.679 49.6735C431.46 48.7502 433.051 54.1193 433.762 51.4348C434.472 48.7503 434.571 46.2077 435.409 46.9179C436.247 47.6139 437.852 50.9803 438.832 51.7757C439.812 52.5853 443.761 47.7702 442.17 46.9606C440.579 46.1509 437.057 45.7106 437.653 43.3101C438.25 40.9097 438.577 38.3104 435.58 41.0233C432.583 43.7363 432.611 43.8357 430.75 44.5459C428.89 45.2561 428.449 46.1083 427.853 48.2957C427.256 50.4831 423.307 52.7984 418.45 53.0967C413.592 53.3949 412.186 49.7161 409.302 49.3326C406.419 48.9491 403.592 44.7021 402.953 41.0233C402.314 37.3445 403.607 33.1401 408.663 31.8476C413.72 30.555 416.163 30.2141 416.22 26.6205C416.276 23.0269 414.302 23.7229 412.967 21.0384C411.632 18.3538 410.453 15.6693 406.405 13.7659C402.357 11.8626 398.82 9.33431 398.948 8.32583C398.962 8.2122 399.118 8.12697 399.36 8.04175C399.36 8.04175 399.374 8.04175 399.388 8.04175C423.506 8.04175 443.051 27.5864 443.051 51.7047C443.051 61.9883 439.486 71.4197 433.548 78.8768C432.483 79.3597 431.631 79.4876 431.233 78.9621C429.685 76.8599 431.404 76.036 430.154 74.4026C429.742 73.8628 429.088 73.6782 428.463 73.7634L428.478 73.7918Z" fill="#ADD206"/>
<path d="M396.775 0.481323L406.064 3.62039L391.846 7.54068C383.281 9.60026 364.29 33.7043 364.29 55.1097C364.29 76.515 383.38 94.5398 383.38 94.5398C383.38 94.5398 356.989 85.0516 356.989 47.1697C356.989 9.28777 396.775 0.481323 396.775 0.481323Z" fill="#7E7C7F"/>
<path d="M406.064 3.63568V9.65815C406.064 9.65815 368.253 15.013 368.253 52.6109C368.253 90.2087 396.221 98.2907 396.221 98.2907V100.521C396.221 100.521 361.421 92.2399 361.421 53.2643C361.421 7.89687 406.064 3.63568 406.064 3.63568Z" fill="url(#paint7_linear_452_825)"/>
<path d="M399.417 3.37996C398.664 3.37996 397.982 3.30894 397.357 3.1811V0.709622H398.067C398.422 0.59599 398.905 0.524963 399.417 0.524963C399.928 0.524963 400.411 0.59599 400.766 0.709622H401.476V3.1811C400.865 3.29474 400.169 3.37996 399.417 3.37996Z" fill="#514E54"/>
<path d="M397.356 0.752807C397.356 1.16472 398.28 1.50561 399.416 1.50561C400.552 1.50561 401.475 1.16472 401.475 0.752807C401.475 0.340893 400.552 0 399.416 0C398.28 0 397.356 0.340893 397.356 0.752807Z" fill="#7E7C7F"/>
<path opacity="0.4" d="M407.214 43.7629C413.606 54.1885 422.426 60.4241 430.125 55.7084C437.823 50.9927 438.889 38.7204 432.497 28.2806C426.105 17.8549 414.685 13.2102 406.987 17.9259C399.288 22.6416 400.822 33.323 407.214 43.7629Z" fill="white"/>
<path d="M273.785 28.1364L279.282 30.0397L279.381 141.228L280.034 141.1L357.687 165.929V171.184L208.787 202.731L125.666 174.835V170.787L125.552 59.4987L273.785 28.1364Z" fill="#38353C"/>
<path opacity="0.2" d="M262.364 127.211L392.558 169.88L210.946 210.163L81.8465 167.238L262.364 127.211Z" fill="#514E54"/>
<path d="M125.554 59.5L125.667 170.788L131.136 172.634L131.051 61.4033L125.554 59.5Z" fill="#38353C"/>
<path d="M273.785 28.1379L279.282 30.0412L131.05 61.4035L125.553 59.5002L273.785 28.1379Z" fill="#7E7C7F"/>
<path d="M271.854 149.084L357.689 165.93V171.186L208.789 202.733L125.667 174.836V170.788L271.854 149.084Z" fill="#38353C"/>
<path d="M131.135 172.634L279.382 141.342L279.282 30.0404L131.05 61.4027L131.135 172.634Z" fill="url(#paint8_linear_452_825)"/>
<path d="M275.747 136.982L275.661 35.9493L134.687 65.7634L134.758 166.739L275.747 136.982Z" fill="#E6E7E8"/>
<path d="M275.747 90.2789L275.661 44.1161L134.687 73.9302L134.758 120.036L275.747 90.2789Z" fill="#22BCC4"/>
<path d="M234.682 82.0681L234.711 90.0081L181.19 101.343L181.162 93.3744L234.682 82.0681Z" fill="#E6E7E8"/>
<path d="M275.661 44.4282V35.5081L134.687 65.3364V74.3133L275.661 44.4282Z" fill="#F1F2F2"/>
<path d="M280.036 141.102L357.689 165.93L208.789 197.477L131.136 172.634L280.036 141.102Z" fill="url(#paint9_linear_452_825)"/>
<path d="M322.449 154.666L172.256 186.498L131.136 172.634L280.036 141.102L322.449 154.666Z" fill="#38353C"/>
<path d="M273.346 147.294L261.471 149.808L258.091 148.728L269.965 146.214L273.346 147.294Z" fill="#BCBEC0"/>
<path d="M236.984 176.823L273.772 169.025L292.464 175.005L255.69 182.803L236.984 176.823Z" fill="#38353C"/>
<path d="M272.436 42.8793V39.8539L268.217 40.7487V43.7742L272.436 42.8793Z" fill="#FF3E5A"/>
<path d="M264.879 44.4836L264.865 41.4582L260.646 42.353V45.3785L264.879 44.4836Z" fill="#FE7912"/>
<path d="M257.309 46.0915V43.0661L253.077 43.9609V46.9864L257.309 46.0915Z" fill="#ADD206"/>
<path d="M222.978 84.5414V92.4957L181.19 101.345L181.162 93.3763L222.978 84.5414Z" fill="white"/>
<path d="M221.912 141.529L188.632 148.56V113.035L221.912 105.99V141.529Z" fill="#F7941E"/>
<path d="M224.625 105.423L259.495 98.037L259.566 133.589L224.625 140.961V105.423Z" fill="#FF3E5A"/>
<path d="M185.905 113.619V149.129L151.02 156.487L150.963 121.005L185.905 113.619Z" fill="#ADD206"/>
<path opacity="0.2" d="M152.654 61.9704L267.65 138.686L275.746 136.981V118.687L181.559 55.8627L152.654 61.9847V61.9704ZM134.686 73.4472V65.7771L142.044 64.2147L257.025 140.93L240.932 144.325L134.686 73.4472ZM275.675 64.6692L275.717 104.994L197.127 52.5674L242.991 42.8661L275.675 64.6692Z" fill="white"/>
<path opacity="0.2" d="M535.904 333.396L611.555 357.586L466.49 388.323L390.825 364.12L535.904 333.396Z" fill="#514E54"/>
<path d="M468.974 380.141L588.997 354.716L588.855 308.894L468.874 334.49L468.974 380.141Z" fill="#414042"/>
<path d="M568.602 351.48C565.605 352.034 563.105 355.485 563.02 359.164C562.935 362.857 565.292 365.385 568.29 364.817C571.287 364.249 573.801 360.812 573.872 357.133C573.957 353.454 571.599 350.926 568.602 351.48Z" fill="#514E54"/>
<path d="M569.468 365.77C570.278 365.883 573.772 352.631 573.772 352.631C573.772 352.631 570.974 351.409 569.894 351.424C568.829 351.424 565.008 364.051 565.008 364.051C565.008 364.051 566.116 365.216 569.468 365.77Z" fill="#414042"/>
<path d="M571.599 352.473C568.602 353.026 566.102 356.478 566.017 360.157C565.932 363.836 568.29 366.378 571.287 365.81C574.284 365.242 576.783 361.805 576.883 358.126C576.968 354.447 574.61 351.904 571.613 352.473H571.599Z" fill="#7E7C7F"/>
<path d="M571.698 355.583C570.093 355.881 568.744 357.728 568.701 359.702C568.658 361.676 569.923 363.026 571.528 362.728C573.133 362.429 574.482 360.583 574.525 358.608C574.567 356.634 573.303 355.285 571.698 355.583Z" fill="#D1D3D4"/>
<path d="M506.785 364.333C503.788 364.887 501.288 368.339 501.203 372.017C501.118 375.71 503.476 378.239 506.473 377.671C509.47 377.117 511.97 373.665 512.055 369.986C512.14 366.307 509.782 363.779 506.785 364.333Z" fill="#514E54"/>
<path d="M507.651 378.637C508.461 378.751 511.955 365.499 511.955 365.499C511.955 365.499 509.157 364.277 508.078 364.291C507.012 364.291 503.191 376.919 503.191 376.919C503.191 376.919 504.299 378.083 507.651 378.637Z" fill="#414042"/>
<path d="M509.782 365.34C506.785 365.894 504.285 369.346 504.2 373.025C504.114 376.703 506.472 379.246 509.469 378.678C512.466 378.11 514.966 374.672 515.051 370.993C515.137 367.315 512.779 364.772 509.782 365.34Z" fill="#7E7C7F"/>
<path d="M509.867 368.436C508.262 368.735 506.927 370.581 506.87 372.556C506.828 374.53 508.092 375.879 509.697 375.581C511.302 375.283 512.651 373.436 512.694 371.462C512.737 369.488 511.472 368.138 509.867 368.436Z" fill="#D1D3D4"/>
<mask id="mask1_452_825" style="mask-type:luminance" maskUnits="userSpaceOnUse" x="433" y="295" width="167" height="87">
<path d="M515.506 371.391C515.606 367.159 512.935 364.602 509.484 365.255C506.032 365.895 503.163 369.857 503.064 374.09L468.179 381.533L433.876 369.886L434.501 321.763L555.576 295.372L599.807 306.238V354.659L577.407 358.821C577.507 354.588 574.794 351.676 571.342 352.33C567.891 352.969 565.021 356.932 564.922 361.165L515.506 371.391Z" fill="white"/>
</mask>
<g mask="url(#mask1_452_825)">
<path d="M468.973 380.142L588.997 354.717L588.855 308.895L468.874 334.49L468.973 380.142Z" fill="url(#paint10_linear_452_825)"/>
<path d="M435.069 323.823L435.169 369.503L468.974 380.142L468.875 334.49L435.069 323.823Z" fill="url(#paint11_linear_452_825)"/>
<path d="M459.073 370.471L459.101 372.942L464.556 374.632L464.527 372.161L459.073 370.471Z" fill="#FF3E5A"/>
<path d="M438.136 364.517L438.165 366.988L443.619 368.679L443.591 366.207L438.136 364.517Z" fill="#FF3E5A"/>
<path d="M468.874 334.491L588.855 308.896L555.035 298.157L435.069 323.824L468.874 334.491Z" fill="url(#paint12_linear_452_825)"/>
<path d="M468.931 360.854L435.126 349.875L435.083 332.816L468.888 343.81L468.931 360.854Z" fill="#22BCC4"/>
<path d="M588.954 341.949L588.997 354.718L468.973 380.143L468.945 367.274L588.954 341.949Z" fill="#FFE182"/>
<path d="M570.518 319.62L557.407 322.489V340.556L570.518 337.701V319.62ZM529.056 328.682L542.166 325.813V343.852L529.056 346.707V328.682ZM543.232 325.585L556.342 322.716V340.784L543.232 343.624V325.585ZM513.83 332.005V350.002L502.012 352.573L501.955 334.591L513.815 331.991L513.83 332.005ZM571.583 319.378L582.776 316.935L582.847 335.017L571.583 337.46V319.378ZM514.881 331.778L527.991 328.909V346.934L514.881 349.789V331.778ZM481.132 373.254L481.047 339.42L494.896 336.267L495.009 370.243L481.132 373.268V373.254Z" fill="#22BCC4"/>
</g>
<path d="M489.996 325.286L553.275 311.892L553.204 306.551L489.94 320.045L489.996 325.286Z" fill="#FBB040"/>
<path d="M472.128 314.418L472.171 319.674L489.996 325.284L489.94 320.043L472.128 314.418Z" fill="#EA7618"/>
<path d="M489.954 320.044L553.204 306.55L535.378 300.883L472.128 314.419L489.954 320.044Z" fill="url(#paint13_linear_452_825)"/>
<path opacity="0.3" d="M542.167 336.578L530.023 328.468L529.057 328.681V346.706L542.167 343.851V336.564V336.578ZM557.408 322.474L570.518 319.605V337.686L565.249 338.837L557.408 333.596V322.474ZM571.584 319.378L582.776 316.934L582.847 335.016L571.584 337.459V319.378ZM556.343 322.715V332.9L544.852 325.23L556.343 322.715ZM514.881 331.778L527.992 328.908V346.933L522.821 348.055L514.881 342.757V331.778ZM501.984 343.098L512.708 350.257L502.013 352.572L501.984 343.098ZM543.232 337.275L550.405 342.061L543.232 343.624V337.275ZM481.048 339.419L492.539 336.806L494.896 338.382L494.939 351.99L481.048 342.729V339.433V339.419ZM513.83 332.005V342.047L502.496 334.49L513.83 332.005Z" fill="white"/>
<path opacity="0.2" d="M435.084 332.813L458.421 340.398L468.903 347.386L468.932 360.851L463.79 359.189L435.112 340.042L435.084 332.813Z" fill="white"/>
<defs>
<linearGradient id="paint0_linear_452_825" x1="556.598" y1="163.911" x2="495.181" y2="102.493" gradientUnits="userSpaceOnUse">
<stop stop-color="#F15A29"/>
<stop offset="1" stop-color="#F7941E"/>
</linearGradient>
<linearGradient id="paint1_linear_452_825" x1="542.835" y1="200.134" x2="494.925" y2="126.359" gradientUnits="userSpaceOnUse">
<stop stop-color="#049696"/>
<stop offset="1" stop-color="#22BCC4"/>
</linearGradient>
<linearGradient id="paint2_linear_452_825" x1="198.898" y1="277.574" x2="59.77" y2="277.574" gradientUnits="userSpaceOnUse">
<stop stop-color="#F15A29"/>
<stop offset="1" stop-color="#F7941E"/>
</linearGradient>
<linearGradient id="paint3_linear_452_825" x1="189.609" y1="244.65" x2="50.4809" y2="244.65" gradientUnits="userSpaceOnUse">
<stop stop-color="#049696"/>
<stop offset="1" stop-color="#22BCC4"/>
</linearGradient>
<linearGradient id="paint4_linear_452_825" x1="173.629" y1="226.411" x2="34.5016" y2="226.411" gradientUnits="userSpaceOnUse">
<stop stop-color="#F15A29"/>
<stop offset="1" stop-color="#F7941E"/>
</linearGradient>
<linearGradient id="paint5_linear_452_825" x1="422.639" y1="103.589" x2="376.15" y2="103.589" gradientUnits="userSpaceOnUse">
<stop stop-color="#38353C"/>
<stop offset="1" stop-color="#808285"/>
</linearGradient>
<linearGradient id="paint6_linear_452_825" x1="419.373" y1="95.4381" x2="396.178" y2="95.4381" gradientUnits="userSpaceOnUse">
<stop stop-color="#808285"/>
<stop offset="1" stop-color="#38353C"/>
</linearGradient>
<linearGradient id="paint7_linear_452_825" x1="387.954" y1="52.0711" x2="343.311" y2="52.0711" gradientUnits="userSpaceOnUse">
<stop stop-color="#38353C"/>
<stop offset="1" stop-color="#808285"/>
</linearGradient>
<linearGradient id="paint8_linear_452_825" x1="262.294" y1="158.43" x2="148.152" y2="44.287" gradientUnits="userSpaceOnUse">
<stop stop-color="#38353C"/>
<stop offset="0.48" stop-color="#808285"/>
<stop offset="1" stop-color="#38353C"/>
</linearGradient>
<linearGradient id="paint9_linear_452_825" x1="357.689" y1="169.297" x2="131.136" y2="169.297" gradientUnits="userSpaceOnUse">
<stop stop-color="#38353C"/>
<stop offset="1" stop-color="#808285"/>
</linearGradient>
<linearGradient id="paint10_linear_452_825" x1="588.997" y1="344.518" x2="468.874" y2="344.518" gradientUnits="userSpaceOnUse">
<stop stop-color="#F15A29"/>
<stop offset="1" stop-color="#F7941E"/>
</linearGradient>
<linearGradient id="paint11_linear_452_825" x1="452.014" y1="380.142" x2="452.014" y2="323.823" gradientUnits="userSpaceOnUse">
<stop stop-color="#FFE182"/>
<stop offset="1" stop-color="#F7941E"/>
</linearGradient>
<linearGradient id="paint12_linear_452_825" x1="588.855" y1="316.324" x2="435.069" y2="316.324" gradientUnits="userSpaceOnUse">
<stop stop-color="#FFE182"/>
<stop offset="1" stop-color="#F7941E"/>
</linearGradient>
<linearGradient id="paint13_linear_452_825" x1="553.204" y1="310.456" x2="472.128" y2="310.456" gradientUnits="userSpaceOnUse">
<stop stop-color="#F15A29"/>
<stop offset="1" stop-color="#F7941E"/>
</linearGradient>
</defs>
</svg>
