<svg width="370" height="42" viewBox="0 0 370 42" fill="none" xmlns="http://www.w3.org/2000/svg">
<path d="M6.45816 14.4048C7.53677 10.6376 7.40265 7.35551 6.15858 7.07402C4.91452 6.79254 3.03162 9.61827 1.953 13.3855C0.874389 17.1527 1.00851 20.4348 2.25258 20.7163C3.49664 20.9978 5.37955 18.172 6.45816 14.4048Z" fill="#1A4D96"/>
<path d="M2.56002 20.9077C2.43964 20.9241 2.31925 20.9159 2.19886 20.8912C1.4858 20.7266 1.07834 19.8539 1.02277 18.3639C0.96721 16.9644 1.22651 15.178 1.7451 13.3422C2.27295 11.5064 3.00453 9.82701 3.8102 8.6251C4.67143 7.34086 5.49562 6.7399 6.20868 6.90455C6.92174 7.0692 7.32921 7.94182 7.38477 9.43186C7.44033 10.8313 7.18104 12.6178 6.66245 14.4536C6.1346 16.2894 5.40301 17.9687 4.59735 19.1707C3.88428 20.2408 3.18974 20.8336 2.56002 20.9077ZM5.90308 7.24207C4.89368 7.36556 3.199 9.76938 2.15256 13.4245C1.63397 15.2274 1.38393 16.9726 1.4395 18.3392C1.49506 19.5987 1.81918 20.4137 2.30073 20.5207C3.27309 20.743 5.13446 18.2569 6.25498 14.3465C6.77357 12.5437 7.02361 10.7984 6.96805 9.43186C6.91248 8.17232 6.58836 7.35733 6.10682 7.25031C6.04199 7.23384 5.97717 7.23384 5.90308 7.24207Z" fill="#1A4D96"/>
<path d="M17.0342 20.9817H16.9971L3.55082 20.3067C3.4397 20.3067 3.34709 20.2161 3.35635 20.1091C3.35635 20.0103 3.45822 19.928 3.57861 19.9362L16.9879 20.603C18.2751 20.2737 19.4049 18.9895 19.8772 17.3266C20.3495 15.6637 20.0531 14.0584 19.0993 13.2187L6.90314 8.30401C6.80128 8.26285 6.75497 8.15583 6.80128 8.05704C6.84758 7.96649 6.96797 7.92532 7.07909 7.96649L19.3401 12.9059L19.3678 12.9306C20.4606 13.869 20.8032 15.5896 20.2846 17.4171C19.7568 19.2529 18.5251 20.6113 17.0712 20.9735H17.0342V20.9817Z" fill="#1A4D96"/>
<path d="M20.1644 17.7959C23.7575 18.4792 27.1561 19.7387 29.9342 21.4346C30.7584 21.9367 31.5178 22.4801 32.2123 23.0481C33.4162 22.513 34.6571 22.0108 35.8888 21.5169C36.5833 21.237 37.2779 20.9571 37.9631 20.669C37.6298 20.4055 37.3056 20.1256 36.9908 19.8375C33.4996 16.6022 30.8418 9.99992 32.4624 5.31575C33.407 2.59086 35.6943 0.820923 39.0651 0.187037C42.4082 -0.438616 45.3438 0.516329 47.3348 2.88723C48.5572 4.33611 49.3258 6.23776 49.511 8.23821C49.6963 10.2551 49.2703 12.2391 48.3072 13.8197C46.2699 17.162 42.5934 19.1048 38.704 20.7595C44.0566 24.711 51.2242 24.7769 61.059 21.0147C61.1608 20.9735 61.2905 21.0147 61.3368 21.1135C61.3831 21.2041 61.3368 21.3193 61.2256 21.3605C56.3916 23.2127 52.2892 24.1183 48.6683 24.143C46.4643 24.1594 44.3992 23.8384 42.5379 23.1963C41.0191 22.6694 39.6023 21.912 38.2965 20.9324C37.5464 21.2452 36.7963 21.5498 36.0462 21.8462C34.8701 22.3154 33.6848 22.8011 32.5272 23.3115C34.3608 24.8839 35.7221 26.6785 36.5185 28.6049C37.7038 31.445 36.9445 34.5321 34.6386 36.2774C33.7403 36.9524 32.6661 37.3805 31.5085 37.5204C31.3696 37.5369 31.2307 37.5534 31.0826 37.5616C29.6286 37.6439 28.1284 37.2982 26.6097 36.5326C24.7761 35.6105 23.6741 34.2358 23.4426 32.5564C23.1555 30.5312 24.1649 28.3167 26.1374 26.6291C27.7488 25.2543 29.7213 24.1759 31.8049 23.221C28.4618 20.5455 23.9519 18.8908 20.0162 18.1416C19.9699 18.1334 20.1181 17.7794 20.1551 17.7877L20.1644 17.7959ZM32.1383 23.4926C30.0269 24.4476 28.0358 25.526 26.4245 26.9008C24.5724 28.4814 23.5908 30.63 23.8501 32.5152C24.0723 34.0711 25.091 35.3471 26.8134 36.2115C29.5916 37.611 32.342 37.5369 34.37 36.0057C36.5463 34.3592 37.2501 31.445 36.1296 28.7448C35.2776 26.695 33.87 24.9497 32.1383 23.5009V23.4926ZM39.8708 0.434006C39.6393 0.458703 39.3985 0.499864 39.1578 0.541026C35.8888 1.15845 33.7774 2.79667 32.8606 5.42277C31.2863 9.97522 33.8792 16.4211 37.2871 19.5741C37.639 19.9034 38.0002 20.2079 38.3706 20.4961C42.26 18.8496 45.9457 16.9315 47.9553 13.6468C49.8537 10.535 49.4462 5.99903 47.02 3.1095C45.2697 1.03496 42.7601 0.0964824 39.8801 0.442238L39.8708 0.434006Z" fill="#1A4D96"/>
<path d="M70.8933 10.9964C70.9859 10.379 71.2174 9.96739 71.5971 9.84391C72.801 9.44876 75.0235 12.1078 76.5608 15.7876C78.098 19.4674 78.3666 22.7686 77.1627 23.172C76.783 23.2955 76.3107 23.1226 75.7829 22.711L76.0514 20.2001L74.9494 16.5779L73.1436 13.4579L70.8933 10.9964Z" fill="#1A4D96"/>
<path d="M77.0238 23.3857C76.6163 23.4351 76.1533 23.254 75.6347 22.8424C75.5514 22.7765 75.5421 22.6613 75.6162 22.579C75.6903 22.5049 75.8199 22.4966 75.9125 22.5625C76.2459 22.8259 76.7182 23.1141 77.0794 22.9906C77.5517 22.8342 77.7739 21.9862 77.672 20.7185C77.5609 19.3437 77.0979 17.6149 76.357 15.8532C75.6255 14.0915 74.7087 12.5109 73.7826 11.3995C72.9306 10.3787 72.1435 9.86009 71.6619 10.0165C71.3008 10.14 71.1526 10.6257 71.0878 11.0208C71.0693 11.1196 70.9674 11.1937 70.8563 11.1773C70.7451 11.1608 70.6618 11.0702 70.6803 10.9714C70.7914 10.2552 71.0693 9.81893 71.5138 9.67075C72.1991 9.44847 73.0973 9.96711 74.1067 11.1773C75.0513 12.3133 75.9866 13.9268 76.7367 15.7215C77.4868 17.5161 77.9591 19.2778 78.0795 20.6938C78.1999 22.2003 77.9036 23.1141 77.2183 23.3446C77.1534 23.3693 77.0886 23.3775 77.0145 23.3857H77.0238Z" fill="#1A4D96"/>
<path d="M59.7344 17.302C59.6511 17.3102 59.577 17.2773 59.5307 17.2114C59.4658 17.1209 59.5029 17.0139 59.5955 16.9562L70.7822 10.8397C70.8841 10.782 71.0045 10.815 71.0693 10.8973C71.1341 10.9878 71.0971 11.0949 71.0045 11.1525L59.8177 17.2691C59.8177 17.2691 59.7622 17.2938 59.7344 17.2938V17.302Z" fill="#1A4D96"/>
<path d="M63.0683 24.9006C62.9572 24.9171 62.8553 24.8512 62.8368 24.7524C62.8183 24.6536 62.8924 24.5549 63.0035 24.5384L75.7368 22.5297C75.8479 22.5132 75.959 22.5791 75.9775 22.6779C75.9961 22.7767 75.922 22.8755 75.8109 22.8919L63.0776 24.9006H63.0683Z" fill="#1A4D96"/>
<path d="M62.9385 24.9336C61.8828 25.0571 60.5307 23.2954 59.7436 21.4679C59.2991 20.4306 59.0305 19.4015 59.0027 18.5701C58.9657 17.6563 59.2065 17.0883 59.688 16.9236C60.1788 16.759 60.7808 17.0389 61.4383 17.7469C62.0402 18.389 62.6144 19.311 63.0589 20.3483C63.8923 22.2828 64.1886 24.5303 63.1144 24.9007C63.0589 24.9172 62.994 24.9336 62.9385 24.9419V24.9336ZM59.9195 17.2447C59.9195 17.2447 59.864 17.2529 59.8454 17.2612C59.5491 17.3599 59.3917 17.8456 59.4287 18.5536C59.4658 19.3522 59.7158 20.34 60.1418 21.3361C61.0215 23.386 62.2625 24.6373 62.8922 24.5632C62.92 24.5632 62.9477 24.555 62.9755 24.5467C63.5774 24.3409 63.6052 22.6204 62.6792 20.4717C62.2532 19.4756 61.6976 18.5866 61.1234 17.9774C60.6604 17.4752 60.2159 17.2118 59.9195 17.2529V17.2447Z" fill="#1A4D96"/>
<path d="M75.8385 22.8669C75.8385 22.8669 75.7644 22.8669 75.7273 22.8504C75.6255 22.8093 75.5792 22.7022 75.6255 22.6035C76.1719 21.5333 75.8663 19.3352 74.8291 16.8656C73.7826 14.3794 72.2269 12.1814 70.7637 11.1359C70.6711 11.07 70.6618 10.9548 70.7359 10.8725C70.81 10.7901 70.9396 10.7819 71.0323 10.8478C72.5788 11.9509 74.1438 14.1571 75.2273 16.7338C76.32 19.327 76.6071 21.5827 76.0052 22.7516C75.9774 22.8093 75.9126 22.8504 75.8385 22.8587V22.8669Z" fill="#1A4D96"/>
<path d="M118.594 8.98742C118.261 8.69929 117.872 8.43586 117.39 8.31238C116.965 8.13127 116.437 8.04894 115.9 8.04894C115.325 8.04894 114.844 8.13127 114.372 8.31238C113.936 8.43586 113.51 8.69929 113.214 8.94626C112.881 9.24262 112.64 9.62954 112.445 10.0082C112.306 10.4363 112.205 10.9055 112.205 11.3748C112.205 11.8852 112.297 12.305 112.445 12.7413C112.64 13.12 112.881 13.5069 113.214 13.8033C113.547 14.1079 113.936 14.3137 114.372 14.4784C114.798 14.6512 115.325 14.6924 115.9 14.6924C116.437 14.6924 116.955 14.6512 117.39 14.4784C117.872 14.3137 118.261 14.1079 118.548 13.8033C118.881 13.5069 119.122 13.1612 119.317 12.7413C119.502 12.3133 119.557 11.8852 119.557 11.3748C119.557 10.9055 119.511 10.4363 119.317 10.0082C119.169 9.62954 118.881 9.28378 118.585 8.98742M117.205 12.9471C116.872 13.2929 116.437 13.5069 115.9 13.5069C115.529 13.5069 115.196 13.4246 114.899 13.2517C114.659 13.0789 114.418 12.8237 114.27 12.5273C114.122 12.1815 114.075 11.8029 114.075 11.383C114.075 10.9632 114.122 10.5763 114.27 10.2799C114.409 9.93413 114.659 9.68717 114.946 9.50606C115.186 9.34141 115.52 9.25086 115.9 9.25086C116.437 9.25086 116.863 9.4649 117.205 9.84358C117.539 10.1976 117.733 10.7409 117.733 11.383C117.733 12.0663 117.539 12.5685 117.205 12.9554" fill="#1A4D96"/>
<path d="M312.825 8.04059L312.168 8.30402C312.02 8.46867 311.927 8.69094 311.927 9.02846V11.0371C311.927 11.7945 311.871 12.3049 311.779 12.5601L311.149 13.194L310.297 13.408C309.954 13.408 309.723 13.3586 309.528 13.194L309.14 12.6013C309.047 12.3461 309.047 12.0003 309.047 11.6628V9.02846C309.047 8.69094 308.945 8.46867 308.76 8.30402L308.093 8.04059L307.417 8.30402C307.278 8.42751 307.186 8.69094 307.186 9.02846V12.2637C307.186 12.947 307.278 13.4163 307.519 13.7538C307.713 14.0584 307.991 14.3136 308.334 14.4453C308.714 14.6017 309.093 14.6923 309.538 14.6923C309.917 14.6923 310.251 14.6511 310.547 14.5688L311.362 14.1819L312.029 13.5891V13.8032C312.029 14.0995 312.121 14.3136 312.27 14.4782L312.89 14.6923L313.52 14.4782C313.705 14.3136 313.751 14.1078 313.751 13.7538V9.03669C313.751 8.69917 313.714 8.43574 313.52 8.31225L312.834 8.04882" fill="#1A4D96"/>
<path d="M319.261 13.3261L318.826 13.4167L318.354 13.4661L317.909 13.3261L317.77 12.9968L317.724 12.3959V9.37464H318.104C318.437 9.37464 318.724 9.33347 318.928 9.25115L319.215 8.78191L319.021 8.36206L318.446 8.18919H317.733V7.08606L317.687 6.45218L317.446 6.06526L316.817 5.85122L316.391 5.94177L316.057 6.2299L315.909 6.61682V8.19742H315.724L315.048 8.3703L314.853 8.79014L315.048 9.22645L315.668 9.3911H315.909V12.5441C315.909 13.0462 315.965 13.4414 316.057 13.7707C316.159 14.067 316.344 14.2893 316.641 14.4622C316.928 14.6186 317.354 14.7092 317.928 14.7092C318.548 14.7092 319.03 14.668 319.363 14.4951C319.659 14.3716 319.845 14.1905 319.845 13.8942L319.659 13.5237L319.271 13.3426" fill="#1A4D96"/>
<path d="M110.584 12.3954C110.343 12.0167 110.056 11.6709 109.723 11.3334C109.389 10.9877 109.047 10.7819 108.713 10.609C109.575 10.4361 110.195 10.1397 110.584 9.75282C111.019 9.37413 111.204 8.82257 111.204 8.18045C111.204 7.87586 111.158 7.54657 111.065 7.29137C110.917 6.995 110.732 6.73157 110.491 6.52576C110.251 6.30349 110.01 6.13062 109.667 6.01536C109.436 5.92481 109.149 5.84249 108.806 5.80132C108.463 5.80132 108.084 5.76016 107.648 5.76016H104.389C103.963 5.76016 103.62 5.84249 103.426 6.01536C103.24 6.18001 103.138 6.4846 103.138 6.86329V13.6385C103.138 13.9842 103.24 14.2723 103.426 14.4535C103.574 14.6099 103.814 14.7004 104.148 14.7004L104.861 14.4535C105.055 14.2806 105.157 14.0254 105.157 13.6385V10.823H105.87C106.213 10.823 106.5 10.8642 106.741 10.9547L107.167 11.1688L107.454 11.3746C107.648 11.638 107.935 11.9755 108.232 12.3954L109.037 13.5891L109.482 14.2312L109.862 14.5687L110.445 14.6922L110.927 14.6099L111.306 14.3629L111.408 14.0254C111.408 13.8854 111.353 13.6796 111.204 13.375C111.065 13.0704 110.871 12.7411 110.584 12.3954ZM108.185 9.40706C107.908 9.45646 107.565 9.49762 107.176 9.49762L106.991 9.54701H105.166V7.11849H107.176C107.806 7.11849 108.185 7.15142 108.426 7.25021L109 7.67005L109.195 8.31217C109.195 8.60853 109.093 8.86373 108.954 9.03661C108.76 9.21772 108.528 9.3412 108.185 9.4153" fill="#1A4D96"/>
<path d="M138.458 12.4449V10.5679C138.458 9.96694 138.366 9.45654 138.162 9.11078C137.977 8.74033 137.634 8.4769 137.199 8.30402C136.727 8.13114 136.097 8.04059 135.282 8.04059H135.088C134.467 8.04059 133.884 8.12291 133.458 8.30402C132.976 8.46867 132.596 8.68271 132.356 8.9873L132.022 9.79406L132.263 10.2633L132.791 10.4362L133.226 10.3539L133.606 9.88462L134.226 9.37422C134.421 9.2425 134.708 9.20134 135.088 9.20134L135.282 9.16018C135.81 9.16018 136.19 9.28366 136.328 9.4977C136.523 9.67058 136.616 10.0081 136.616 10.4362C136.227 10.5185 135.902 10.6091 135.56 10.6996L135.078 10.7819L134.356 10.9054C133.874 10.996 133.587 11.0865 133.495 11.0865C132.911 11.21 132.485 11.4241 132.152 11.7204C131.865 12.0662 131.67 12.4449 131.67 12.8647C131.67 13.2022 131.763 13.5068 131.957 13.8114C132.152 14.0666 132.43 14.3218 132.828 14.4865C133.161 14.6182 133.597 14.7005 134.069 14.7005C134.402 14.7005 134.745 14.7005 135.078 14.6182L135.467 14.4865C135.893 14.3218 136.328 14.1078 136.764 13.8114C136.958 14.1078 137.143 14.3218 137.338 14.4865L137.912 14.7005L138.486 14.5276L138.773 14.0666C138.773 13.9843 138.727 13.7209 138.588 13.4327C138.495 13.087 138.44 12.7495 138.44 12.4613M136.634 11.671C136.634 12.2226 136.588 12.6507 136.393 12.8647L135.727 13.4245L135.097 13.6385H134.717C134.374 13.6385 134.087 13.548 133.893 13.3751L133.56 12.7412L133.847 12.1897L134.374 11.9345C134.513 11.8851 134.754 11.8439 135.097 11.7616L135.486 11.7287C135.967 11.5969 136.393 11.5064 136.634 11.4323V11.6875V11.671Z" fill="#1A4D96"/>
<path d="M130.207 8.04065L129.689 8.17237L129.448 8.46873L129.253 9.06969L128.059 12.7331L126.948 9.32489C126.809 8.97913 126.707 8.73216 126.66 8.59221L126.327 8.21353L125.707 8.04065L125.086 8.21353L124.753 8.59221C124.697 8.73216 124.595 8.97913 124.503 9.32489L123.401 12.7331L122.206 9.06969C122.058 8.691 121.965 8.42757 121.817 8.26292C121.725 8.12297 121.53 8.04065 121.197 8.04065L120.623 8.26292L120.382 8.73216C120.382 8.84741 120.484 9.10261 120.623 9.48953L122.104 13.4081L122.299 13.8362L122.54 14.2972L122.873 14.5853L123.392 14.6759C123.78 14.6759 124.068 14.5853 124.206 14.3383C124.401 14.1243 124.54 13.7868 124.688 13.3505L125.697 10.1646L126.753 13.3505C126.846 13.6468 126.892 13.8609 126.994 14.0338L127.337 14.4948L128.003 14.6676L128.67 14.4948L129.003 14.1161C129.05 13.9926 129.142 13.7292 129.29 13.3916L130.772 9.47307C130.92 9.13554 131.022 8.88034 131.022 8.7157L130.772 8.24646L130.198 8.02419" fill="#1A4D96"/>
<path d="M206.208 5.87584L205.588 5.67004L204.912 5.92524L204.625 6.4768L204.912 7.06952L205.588 7.2918L206.208 7.06952L206.505 6.4768L206.208 5.87584Z" fill="#1A4D96"/>
<path d="M330.152 8.98742C329.865 8.69929 329.485 8.43586 329.003 8.31238C328.568 8.13127 328.04 8.04894 327.512 8.04894H327.466C326.947 8.04894 326.41 8.13127 325.984 8.31238C325.503 8.43586 325.123 8.69929 324.827 8.94626C324.493 9.24262 324.243 9.62954 324.058 10.0082C323.91 10.4363 323.817 10.9055 323.817 11.3748C323.817 11.8852 323.91 12.305 324.058 12.7413C324.253 13.12 324.493 13.5069 324.827 13.8033C325.16 14.1079 325.549 14.3137 325.984 14.4784C326.41 14.6512 326.938 14.6924 327.466 14.6924H327.512C328.04 14.6924 328.568 14.6512 329.003 14.4784C329.439 14.3137 329.874 14.1079 330.152 13.8033C330.494 13.5069 330.735 13.1612 330.92 12.7413C331.068 12.3133 331.152 11.8852 331.152 11.3748C331.152 10.9055 331.068 10.4363 330.92 10.0082C330.726 9.62954 330.485 9.28378 330.152 8.98742ZM328.818 12.9471C328.475 13.2929 328.04 13.5069 327.512 13.5069H327.466C327.133 13.5069 326.799 13.4246 326.521 13.2517C326.271 13.0789 326.04 12.8237 325.892 12.5273C325.744 12.1815 325.697 11.8029 325.697 11.383C325.697 10.9632 325.744 10.5763 325.892 10.2799C326.04 9.93413 326.271 9.68717 326.521 9.50606C326.799 9.34141 327.133 9.25086 327.466 9.25086H327.512C328.04 9.25086 328.475 9.4649 328.818 9.84358C329.151 10.1976 329.346 10.7409 329.346 11.383C329.346 12.0663 329.151 12.5685 328.818 12.9554" fill="#1A4D96"/>
<path d="M205.542 8.04059L204.875 8.30402C204.727 8.46867 204.634 8.69094 204.634 9.02846V13.7126C204.634 14.0502 204.727 14.2642 204.875 14.4453L205.542 14.6923L206.209 14.4782C206.412 14.3136 206.505 14.0584 206.505 13.7209V8.9873C206.505 8.69917 206.412 8.4769 206.209 8.31225L205.542 8.04882" fill="#1A4D96"/>
<path d="M100.842 10.6507H98.7213C98.3972 10.6507 98.1101 10.6918 97.962 10.8565L97.7212 11.3669L97.962 11.8773C98.1564 12.0008 98.3972 12.0913 98.7213 12.0913H100.842C101.175 12.0913 101.416 12.0008 101.611 11.8773L101.851 11.3669L101.611 10.8565C101.416 10.6918 101.175 10.6507 100.842 10.6507Z" fill="#1A4D96"/>
<path d="M180.538 5.92481C180.112 5.79309 179.538 5.76016 178.769 5.76016H176.176C175.75 5.76016 175.408 5.84249 175.223 6.01536C175.028 6.18001 174.936 6.49284 174.936 6.86329V13.6302C174.936 13.976 175.028 14.2723 175.223 14.4452L175.936 14.6922L176.658 14.4452C176.843 14.2806 176.945 13.976 176.945 13.6302V11.1194H178.769C180.02 11.1194 180.927 10.8971 181.548 10.4361C182.177 9.96686 182.464 9.28358 182.464 8.38626C182.464 7.95818 182.409 7.62066 182.27 7.28313C182.122 6.94561 181.881 6.64102 181.594 6.43521C181.307 6.17178 180.918 6.00713 180.538 5.92481ZM180.205 9.24242L179.482 9.6705C179.251 9.71166 179.001 9.75282 178.668 9.79398H176.945V7.11026H178.668C179.344 7.15142 179.825 7.28313 180.066 7.49717C180.297 7.74414 180.446 8.04874 180.446 8.42742C180.446 8.77318 180.353 9.02838 180.205 9.23419" fill="#1A4D96"/>
<path d="M321.419 5.67004L320.799 5.92524L320.511 6.4768L320.799 7.07776L321.419 7.2918L322.095 7.07776L322.336 6.4768L322.095 5.87584L321.419 5.67004Z" fill="#1A4D96"/>
<path d="M321.419 8.04059L320.743 8.30402C320.595 8.46867 320.502 8.69094 320.502 9.02846V13.7126C320.502 14.0502 320.595 14.2642 320.743 14.4453L321.419 14.6923L322.095 14.4782C322.234 14.3136 322.336 14.0584 322.336 13.7209V8.9873C322.336 8.69917 322.234 8.4769 322.095 8.31225L321.419 8.04882" fill="#1A4D96"/>
<path d="M95.5726 5.62857L94.8966 5.88377C94.7576 6.04842 94.665 6.27069 94.665 6.59998V13.7127C94.665 14.0502 94.7576 14.2642 94.9521 14.4453L95.5818 14.6923L96.2486 14.4783C96.4523 14.3136 96.5357 14.0502 96.5357 13.7127V6.59998C96.5357 6.26246 96.4431 6.04842 96.2486 5.88377L95.5818 5.62857" fill="#1A4D96"/>
<path d="M90.4239 7.29199C90.285 6.99562 90.1831 6.78159 90.1461 6.60871L89.859 6.13947L89.3682 5.76078L88.7014 5.62907L87.9791 5.76078L87.5439 6.13947L87.2012 6.69103L86.9697 7.29199L84.4231 12.997L84.1823 13.5403L84.136 13.9272L84.4231 14.4788L85.0898 14.6928L85.7103 14.4788C85.8492 14.3141 85.9974 14.0178 86.1826 13.5814L86.6641 12.4783H90.6925L91.174 13.5321L91.3685 14.0425L91.6092 14.4376L91.8963 14.6434L92.3223 14.6846L92.9891 14.4376L93.2762 13.8696C93.2762 13.7049 93.1835 13.3592 92.9891 12.9311L90.3961 7.27552L90.4239 7.29199ZM88.7014 11.12H87.2105L88.6551 7.50603L88.7014 7.53896L90.1461 11.12H88.7014Z" fill="#1A4D96"/>
<path d="M187.354 14.5604L188.123 14.1735L188.845 13.5808V13.8031C188.845 14.1077 188.891 14.3135 189.086 14.4863L189.706 14.7004L190.327 14.4863C190.475 14.3135 190.567 14.1077 190.567 13.7619V9.02834C190.567 8.69082 190.475 8.42738 190.327 8.3039L189.66 8.04047L188.984 8.3039C188.789 8.46855 188.697 8.68258 188.697 9.02834V11.037C188.697 11.8026 188.651 12.3048 188.558 12.56L187.974 13.1939C187.687 13.3174 187.41 13.4161 187.067 13.4161L186.354 13.1939L185.919 12.6012C185.882 12.3377 185.826 12.0002 185.826 11.6627V9.02011C185.826 8.68258 185.733 8.46854 185.585 8.29567L184.928 8.03223L184.242 8.29567C184.057 8.41092 184.002 8.67435 184.002 9.02011V12.2554C184.002 12.9304 184.104 13.4079 184.335 13.7454C184.53 14.0418 184.817 14.297 185.15 14.4287C185.483 14.5934 185.909 14.6757 186.345 14.6757C186.724 14.6757 187.058 14.6345 187.354 14.544" fill="#1A4D96"/>
<path d="M218.451 9.57984L219.312 9.32464C219.84 9.32464 220.183 9.45636 220.321 9.75272C220.516 10.0079 220.609 10.436 220.609 10.9464V13.7124C220.609 14.3957 220.896 14.6921 221.516 14.6921L222.183 14.4781C222.331 14.3134 222.424 14.0582 222.424 13.7124V10.5677C222.424 10.2631 222.424 9.96676 222.377 9.75272L222.081 9.06944C221.887 8.74015 221.599 8.47672 221.22 8.31207C220.886 8.1392 220.451 8.04864 219.979 8.04864L219.108 8.13096L218.386 8.47672L217.664 9.02828V6.59976C217.664 6.26224 217.617 6.0482 217.423 5.87532L216.756 5.62012L216.089 5.87532C215.951 6.03996 215.849 6.254 215.849 6.59976V13.7124C215.849 14.3957 216.136 14.6921 216.756 14.6921L217.423 14.4451C217.627 14.2805 217.664 14.0582 217.664 13.7124V11.5391C217.664 10.897 217.71 10.4772 217.849 10.2631C217.951 9.96676 218.145 9.71156 218.432 9.57984" fill="#1A4D96"/>
<path d="M281.358 11.1607C280.969 10.9878 280.543 10.8232 279.96 10.7408C279.478 10.6173 279.098 10.5268 278.811 10.4445L278.145 10.1893L277.904 9.76119L278.246 9.29195C278.487 9.16023 278.765 9.07791 279.108 9.07791L279.876 9.25079L280.348 9.6377L280.784 10.0576L281.265 10.1893L281.886 10.0164L282.127 9.55538L281.886 9.04498L281.302 8.53458C281.062 8.41109 280.728 8.28761 280.339 8.19705C279.96 8.1065 279.524 8.06534 279.098 8.06534C278.478 8.06534 277.95 8.15589 277.515 8.32877C277.08 8.49342 276.746 8.75685 276.552 9.05321C276.311 9.30841 276.218 9.65417 276.218 9.9423C276.218 10.3292 276.32 10.6338 276.552 10.8808C276.792 11.1442 277.126 11.3583 277.515 11.5147C277.95 11.6464 278.422 11.8193 279.098 11.9427C279.626 12.0745 280.052 12.1979 280.293 12.3214C280.534 12.4614 280.673 12.6672 280.673 12.9635L280.293 13.4328C280.052 13.5974 279.765 13.6468 279.385 13.6468C278.95 13.6468 278.57 13.5974 278.32 13.4328C278.043 13.3093 277.802 13.087 277.607 12.7907L277.32 12.4614L276.885 12.3214L276.357 12.4943L276.107 12.9553C276.107 13.2517 276.209 13.5151 276.45 13.7703C276.691 14.0667 277.024 14.2889 277.506 14.4536C277.978 14.6182 278.552 14.7006 279.228 14.7006C279.904 14.7006 280.478 14.6182 280.96 14.4865C281.441 14.3136 281.83 14.0584 282.071 13.7209C282.312 13.4246 282.451 13.0376 282.451 12.5766C282.451 12.2803 282.358 12.0168 282.164 11.7616C281.969 11.5558 281.728 11.3418 281.349 11.1689" fill="#1A4D96"/>
<path d="M198.105 8.42756C197.67 8.17236 197.133 8.04064 196.522 8.04064L195.938 8.08181L195.179 8.30408C194.79 8.46872 194.457 8.73216 194.123 9.06145V6.5506C194.123 6.24601 194.021 5.99904 193.873 5.82616L193.206 5.61212L192.586 5.86732C192.438 6.03197 192.345 6.28717 192.345 6.59176V13.7456C192.345 14.0914 192.438 14.3054 192.586 14.4701L193.206 14.6841L193.873 14.4701C194.021 14.3054 194.123 14.0914 194.123 13.7456V13.6221L194.605 14.0914L195.04 14.396L195.716 14.6018L195.948 14.6841H196.485C196.966 14.6841 197.392 14.6018 197.772 14.4701C198.161 14.3054 198.494 14.0502 198.735 13.7456C199.022 13.4575 199.217 13.0623 199.365 12.6837C199.513 12.2556 199.605 11.7863 199.605 11.3253C199.605 10.642 199.457 10.0411 199.226 9.57185C198.985 9.06145 198.605 8.68276 198.124 8.42756M197.244 12.9059C196.901 13.2928 196.475 13.4657 196.049 13.4657H195.948C195.466 13.4246 195.04 13.2517 194.707 12.9059C194.373 12.5684 194.225 12.058 194.225 11.4159C194.225 10.9878 194.271 10.6091 194.42 10.2634C194.605 9.95877 194.799 9.7118 195.086 9.53892L195.948 9.27549H196.049C196.383 9.27549 196.67 9.36604 196.901 9.53892C197.188 9.70357 197.383 9.90937 197.531 10.2634C197.679 10.568 197.726 10.9466 197.726 11.3665C197.726 12.0498 197.577 12.5602 197.244 12.8977" fill="#1A4D96"/>
<path d="M287.683 13.3261L287.248 13.4167L286.766 13.4661L286.34 13.3261L286.183 12.9968L286.136 12.3959V9.37464H286.525C286.859 9.37464 287.146 9.33347 287.34 9.25115L287.627 8.78191L287.451 8.36206L286.868 8.18919H286.136V7.08606L286.09 6.45218L285.849 6.06526L285.229 5.85122L284.794 5.94177L284.442 6.2299L284.303 6.61682V8.19742H284.108L283.432 8.3703L283.238 8.79014L283.432 9.22645L284.062 9.3911H284.293V12.5441C284.293 13.0462 284.34 13.4414 284.432 13.7707C284.534 14.067 284.729 14.2893 285.016 14.4622C285.303 14.6186 285.729 14.7092 286.312 14.7092C286.933 14.7092 287.414 14.668 287.738 14.4951C288.035 14.3716 288.22 14.1905 288.22 13.8942L288.035 13.5237L287.646 13.3426" fill="#1A4D96"/>
<path d="M273.681 8.04059L273.005 8.30402C272.866 8.46867 272.764 8.69094 272.764 9.02846V13.7126C272.764 14.0502 272.857 14.2642 273.005 14.4453L273.681 14.6923L274.357 14.4782C274.542 14.3136 274.588 14.0584 274.588 13.7209V8.9873C274.588 8.69917 274.542 8.4769 274.357 8.31225L273.681 8.04882" fill="#1A4D96"/>
<path d="M201.8 5.62857L201.134 5.88377C200.995 6.04842 200.902 6.27069 200.902 6.59998V13.7127C200.902 14.0502 200.995 14.2642 201.134 14.4453L201.8 14.6923L202.467 14.4783C202.671 14.3136 202.708 14.0502 202.708 13.7127V6.59998C202.708 6.26246 202.662 6.04842 202.467 5.88377L201.8 5.62857Z" fill="#1A4D96"/>
<path d="M268.782 14.2314C269.115 14.1079 269.402 13.9268 269.643 13.7127C269.986 13.4164 270.273 13.1118 270.504 12.7743C270.699 12.4367 270.838 12.0004 270.986 11.5806C271.088 11.1525 271.134 10.6503 271.134 10.1317C271.134 8.50993 270.606 7.32448 269.55 6.55888C269.162 6.25428 268.726 6.04024 268.254 5.92499C267.865 5.83444 267.393 5.79327 266.865 5.75211H263.892C263.466 5.75211 263.124 5.84267 262.929 6.00731C262.744 6.17196 262.642 6.47655 262.642 6.85524V13.2929C262.642 13.581 262.698 13.8527 262.744 14.0173L263.077 14.396C263.263 14.5195 263.559 14.5607 263.939 14.5607H266.865C267.198 14.5607 267.495 14.5195 267.772 14.4783C268.106 14.4372 268.448 14.3548 268.782 14.2231M266.958 13.1118H266.865L266.198 13.1612H264.661V7.15983H266.004L266.865 7.201L267.532 7.33271C267.976 7.46443 268.347 7.76079 268.634 8.18064C268.921 8.60872 269.069 9.25083 269.069 10.1399C269.069 11.3748 268.736 12.2227 268.06 12.7331L267.532 12.9965L266.958 13.12" fill="#1A4D96"/>
<path d="M256.892 14.6924L257.456 14.4783L257.744 13.9762L257.605 13.581C257.512 13.5069 257.318 13.3258 256.929 13.0706C256.549 12.8154 256.317 12.6096 256.123 12.4861C256.41 12.0992 256.605 11.7535 256.743 11.4242C256.892 11.0866 256.929 10.8644 256.929 10.6586L256.697 10.1893L256.169 9.96706L255.651 10.1893C255.503 10.3046 255.354 10.5269 255.206 10.8644C255.104 11.169 254.965 11.3748 254.919 11.4653L254.438 11.0455L253.873 10.4445L253.252 9.76125C253.873 9.4155 254.401 9.07797 254.734 8.74868C255.067 8.43585 255.215 8.05717 255.215 7.58793C255.215 7.25041 255.114 6.95404 254.928 6.65768C254.688 6.36132 254.401 6.09789 253.965 5.89208C253.586 5.72743 253.104 5.63688 252.53 5.63688H252.484C251.909 5.63688 251.428 5.7192 251.002 5.89208C250.576 6.05673 250.28 6.32016 250.039 6.61652C249.854 6.92111 249.705 7.25864 249.705 7.63732C249.705 7.94192 249.807 8.27944 249.992 8.53464C250.141 8.83924 250.428 9.16853 250.761 9.55544C250.381 9.72832 250.039 9.89297 249.752 10.107L249.029 10.6668L248.557 11.3501C248.455 11.6053 248.409 11.8523 248.409 12.1486C248.409 12.5026 248.455 12.7907 248.659 13.0871C248.798 13.3917 248.992 13.688 249.279 13.9021C249.613 14.1573 249.955 14.3796 250.437 14.4948C250.863 14.6595 251.391 14.7089 251.919 14.7089H252.539L253.123 14.6265C253.502 14.5442 253.836 14.4207 254.123 14.2972C254.456 14.1244 254.743 13.9103 255.039 13.6551C255.706 14.1244 256.141 14.4207 256.336 14.5442L256.91 14.7171M251.752 6.94581L252.521 6.69061C252.854 6.69061 253.104 6.77293 253.289 6.94581L253.632 7.54677L253.289 8.22182C253.15 8.36176 252.863 8.52641 252.521 8.74868L252.335 8.87217L251.854 8.36176L251.558 7.93369L251.409 7.555L251.752 6.95404M253.243 13.1118L252.623 13.4164H252.521L251.946 13.5069L251.27 13.3752L250.743 13.0295L250.363 12.5602L250.27 12.0581C250.27 11.7123 250.363 11.4571 250.613 11.2019C250.844 10.9879 251.178 10.7327 251.622 10.5186C251.956 10.8561 252.289 11.2019 252.53 11.4571L252.771 11.7123C253.113 12.0004 253.447 12.3462 253.882 12.6919L253.261 13.12" fill="#1A4D96"/>
<path d="M232.703 10.9877V13.7208C232.703 14.0583 232.786 14.2724 232.99 14.4535L233.61 14.7004L234.286 14.4864C234.472 14.3217 234.573 14.0665 234.573 13.729V10.6666C234.573 10.3126 234.527 10.0163 234.472 9.80223L234.231 9.11895C234.092 8.78142 233.805 8.52622 233.416 8.36158C233.027 8.13931 232.601 8.05698 232.073 8.05698C231.592 8.05698 231.166 8.13931 230.777 8.32042C230.397 8.48506 230.008 8.78142 229.675 9.16834V8.9543L229.582 8.48506L229.239 8.13931L228.804 8.05698L228.184 8.27926C228.035 8.4439 227.943 8.65794 227.943 8.99546V13.729C227.943 14.0665 228.045 14.2806 228.23 14.4617L228.86 14.7087L229.536 14.4946C229.721 14.33 229.823 14.0748 229.823 13.7373V11.6874C229.823 11.0041 229.869 10.5431 229.962 10.3209C230.054 10.0245 230.258 9.7693 230.536 9.59642C230.832 9.43177 231.11 9.34945 231.443 9.34945C231.934 9.34945 232.258 9.47294 232.453 9.7693C232.601 10.0245 232.703 10.4526 232.703 11.0041" fill="#1A4D96"/>
<path d="M274.357 5.87584L273.681 5.67004L273.051 5.92524L272.764 6.4768L273.051 7.06952L273.681 7.2918L274.357 7.06952L274.588 6.4768L274.357 5.87584Z" fill="#1A4D96"/>
<path d="M242.297 8.04047L241.676 8.26274C241.528 8.41915 241.445 8.64142 241.445 8.93778V9.15182C241.158 8.75667 240.769 8.50147 240.389 8.29567L239.611 8.08163L239.037 8.03223C238.602 8.03223 238.185 8.12279 237.843 8.25451C237.463 8.36976 237.129 8.59203 236.833 8.88839C236.602 9.15182 236.361 9.48112 236.213 9.86803C236.074 10.2549 235.972 10.7242 235.972 11.1852C235.972 11.8685 236.12 12.4694 236.352 12.9304C236.592 13.4491 236.972 13.836 237.407 14.1241C237.889 14.4287 238.417 14.544 239.037 14.544L239.611 14.5028L240.389 14.2558C240.723 14.0912 241.056 13.836 241.352 13.4902C241.352 14.0006 241.352 14.3793 241.297 14.6345L241.158 15.326L240.584 15.8282C240.343 15.9105 240.01 15.9599 239.621 15.9929H239.482L238.852 15.9105L238.37 15.7377L238.046 15.4824L237.704 15.1367L237.037 14.8486L236.463 15.0132L236.222 15.5236L236.666 16.2974C236.898 16.5526 237.287 16.7255 237.806 16.8902C238.296 17.063 238.861 17.1536 239.491 17.1536H239.63C240.26 17.1124 240.787 17.063 241.26 16.9313C241.695 16.8078 242.075 16.635 242.362 16.3715C242.649 16.1246 242.89 15.787 242.991 15.4084C243.13 15.0132 243.186 14.544 243.186 14.0006V9.22591C243.186 8.84723 243.14 8.54264 243.038 8.33683C242.89 8.11456 242.649 8.03223 242.315 8.03223M241.149 12.4859C240.954 12.7823 240.713 12.9963 240.473 13.1198L239.611 13.3256C239.083 13.3256 238.657 13.1609 238.324 12.8152C237.991 12.4859 237.843 12.0084 237.843 11.3334C237.843 10.6995 237.991 10.1891 238.324 9.79394C238.602 9.45642 239.037 9.28354 239.565 9.28354H239.611C240.139 9.28354 240.574 9.45642 240.917 9.8351C241.204 10.222 241.399 10.7324 241.399 11.3663C241.399 11.8026 241.306 12.1731 241.158 12.4777" fill="#1A4D96"/>
<path d="M339.079 9.79406L338.847 9.11078C338.699 8.77326 338.421 8.50983 338.032 8.34518C337.653 8.12291 337.217 8.04059 336.68 8.04059C336.208 8.04059 335.782 8.13114 335.384 8.30402C335.004 8.46867 334.615 8.76503 334.272 9.15195V8.94614L334.18 8.4769L333.847 8.13114L333.411 8.04059L332.791 8.26286C332.643 8.41927 332.55 8.64154 332.55 8.97907V13.7044C332.55 14.0419 332.643 14.256 332.837 14.4288L333.467 14.6758L334.134 14.4618C334.328 14.2889 334.421 14.0337 334.421 13.6962V11.6546C334.421 10.9713 334.467 10.502 334.569 10.288C334.661 9.99164 334.856 9.73644 335.143 9.56356C335.43 9.39068 335.717 9.30836 336.051 9.30836C336.523 9.30836 336.865 9.43184 337.06 9.72821C337.208 9.98341 337.291 10.4115 337.291 10.963V13.6962C337.291 14.0337 337.393 14.2477 337.579 14.4206L338.199 14.6676L338.875 14.4535C339.06 14.2807 339.162 14.0255 339.162 13.6879V10.6255C339.162 10.2715 339.116 9.97517 339.069 9.76113" fill="#1A4D96"/>
<path d="M156.692 12.733C156.887 13.1117 157.127 13.5068 157.461 13.795C157.794 14.0995 158.183 14.3054 158.618 14.4782C159.044 14.6429 159.572 14.6923 160.1 14.6923H160.146C160.674 14.6923 161.202 14.6511 161.628 14.4782C162.11 14.3136 162.489 14.0995 162.786 13.795C163.119 13.4986 163.36 13.1528 163.554 12.733C163.693 12.3049 163.795 11.8768 163.795 11.3664C163.795 10.8972 163.693 10.4279 163.554 9.99987C163.36 9.62119 163.119 9.27543 162.786 8.97907C162.499 8.69094 162.119 8.42751 161.628 8.30402C161.202 8.12291 160.674 8.04059 160.146 8.04059H160.1C159.563 8.04059 159.044 8.12291 158.618 8.30402C158.146 8.42751 157.757 8.69094 157.461 8.93791C157.127 9.23427 156.887 9.62119 156.692 9.99987L156.6 10.2962C156.507 10.6008 156.451 10.9795 156.451 11.3664C156.451 11.7533 156.507 12.132 156.6 12.4778L156.692 12.7248M158.517 10.2633C158.665 9.91755 158.896 9.67058 159.183 9.48947C159.424 9.32482 159.757 9.23427 160.1 9.23427H160.146C160.674 9.23427 161.109 9.44831 161.443 9.82699C161.776 10.181 161.971 10.7243 161.971 11.3664C161.971 12.0497 161.776 12.5519 161.443 12.9388C161.109 13.2846 160.674 13.4986 160.146 13.4986H160.1C159.767 13.4986 159.424 13.408 159.137 13.2352C158.896 13.0623 158.665 12.8071 158.517 12.5107C158.368 12.165 158.322 11.7863 158.322 11.3582C158.322 10.9301 158.368 10.5514 158.517 10.2551" fill="#1A4D96"/>
<path d="M295.943 5.67004L295.267 5.92524L294.98 6.4768L295.267 7.07776L295.943 7.2918L296.573 7.07776L296.851 6.4768L296.573 5.87584L295.943 5.67004Z" fill="#1A4D96"/>
<path d="M145.422 13.7618C145.422 14.0994 145.468 14.3134 145.654 14.4781L146.283 14.6921L146.904 14.4781C147.052 14.3134 147.145 14.0994 147.145 13.7618V6.5586C147.145 6.254 147.043 6.00703 146.904 5.83416L146.283 5.62012L145.617 5.87532C145.478 6.03996 145.431 6.3034 145.431 6.64092V9.06121C145.042 8.73192 144.709 8.46849 144.32 8.30384L143.552 8.08157L142.987 8.04041C142.07 8.04041 141.348 8.345 140.773 8.89657C140.199 9.48929 139.912 10.2961 139.912 11.3251C139.912 11.7943 140.014 12.2553 140.153 12.6423C140.292 13.0703 140.486 13.4572 140.773 13.7536C141.014 14.05 141.347 14.3052 141.736 14.4698C142.116 14.6015 142.496 14.6839 142.987 14.6839L143.552 14.6427L143.885 14.5933L144.663 14.2146L145.431 13.6219V13.7454L145.422 13.7618ZM145.033 12.5188C144.894 12.8563 144.7 13.0703 144.413 13.1938L143.542 13.4572C143.209 13.4572 142.922 13.3667 142.625 13.1938C142.338 13.0292 142.162 12.8151 142.014 12.5188C141.857 12.1812 141.773 11.8026 141.773 11.3662C141.773 10.9299 141.82 10.5677 141.968 10.2631C142.162 9.91737 142.348 9.71156 142.588 9.53868C142.875 9.37404 143.163 9.28348 143.496 9.28348H143.542L144.413 9.53868C144.7 9.66217 144.885 9.91737 145.033 10.222C145.228 10.5677 145.274 10.9464 145.274 11.3662C145.274 11.8355 145.228 12.2142 145.033 12.5188Z" fill="#1A4D96"/>
<path d="M304.481 8.42756C304.009 8.17236 303.472 8.04064 302.852 8.04064L302.324 8.08181C301.981 8.12297 301.75 8.20529 301.509 8.30408C301.175 8.46872 300.787 8.73216 300.453 9.06145V6.5506C300.453 6.24601 300.351 5.99904 300.212 5.82616L299.583 5.61212L298.916 5.86732C298.768 6.03197 298.721 6.28717 298.721 6.59176V13.7456C298.721 14.0914 298.768 14.3054 298.962 14.4701L299.583 14.6841L300.212 14.4701C300.351 14.3054 300.453 14.0914 300.453 13.7456V13.6221L300.935 14.0914L301.416 14.396L302.046 14.6018L302.324 14.6841H302.852C303.278 14.6841 303.713 14.6018 304.093 14.4701C304.481 14.3054 304.815 14.0502 305.102 13.7456C305.333 13.4575 305.584 13.0623 305.722 12.6837C305.861 12.2556 305.917 11.7863 305.917 11.3253C305.917 10.642 305.815 10.0411 305.537 9.57185C305.287 9.06145 304.907 8.68276 304.472 8.42756M303.565 12.9059C303.231 13.2928 302.852 13.4657 302.37 13.4657H302.315C301.796 13.4246 301.351 13.2517 301.018 12.9059C300.685 12.5684 300.536 12.058 300.536 11.4159C300.536 10.9878 300.638 10.6091 300.777 10.2634C300.925 9.95877 301.166 9.7118 301.398 9.53892C301.685 9.36604 301.963 9.27549 302.305 9.27549H302.361C302.685 9.27549 302.981 9.36604 303.268 9.53892C303.509 9.70357 303.704 9.90937 303.852 10.2634C303.991 10.568 304.083 10.9466 304.083 11.3665C304.083 12.0498 303.898 12.5602 303.555 12.8977" fill="#1A4D96"/>
<path d="M212.163 13.4164C211.931 13.581 211.635 13.6304 211.255 13.6304C210.82 13.6304 210.44 13.5893 210.2 13.4164C209.903 13.2847 209.709 13.0706 209.524 12.7743L209.237 12.445L208.755 12.305L208.236 12.4861L207.996 12.9471C207.996 13.2435 208.135 13.4987 208.32 13.7539C208.561 14.0585 208.903 14.2725 209.375 14.4454C209.857 14.6018 210.431 14.6924 211.107 14.6924C211.783 14.6924 212.394 14.6018 212.876 14.4784C213.357 14.3137 213.691 14.0585 213.978 13.721C214.219 13.4246 214.321 13.0295 214.321 12.5685C214.321 12.2721 214.219 12.0169 214.033 11.7617C213.848 11.5477 213.598 11.3336 213.219 11.1607C212.885 10.9879 212.394 10.8232 211.829 10.7409C211.348 10.6174 210.968 10.5269 210.681 10.4363L210.061 10.1811L209.82 9.75303L210.107 9.28378C210.348 9.1603 210.635 9.06975 210.968 9.06975C211.302 9.06975 211.542 9.15207 211.737 9.23439L212.218 9.62131L212.691 10.0494L213.172 10.1811L213.746 10.0082L213.978 9.54722L213.793 9.03682L213.163 8.51818C212.913 8.3947 212.635 8.27121 212.255 8.18066C211.867 8.09834 211.431 8.04894 210.959 8.04894C210.329 8.04894 209.811 8.13127 209.375 8.31238C208.94 8.47702 208.607 8.74045 208.412 9.03682C208.172 9.29202 208.079 9.62954 208.079 9.9259C208.079 10.3046 208.172 10.6092 208.412 10.8644C208.653 11.1196 208.986 11.3336 209.375 11.4983C209.811 11.63 210.329 11.7946 210.959 11.9263C211.533 12.0581 211.922 12.1733 212.154 12.305C212.385 12.445 212.543 12.6508 212.543 12.9471L212.154 13.4164" fill="#1A4D96"/>
<path d="M154.729 7.06922C154.822 6.90457 155.072 6.81402 155.396 6.81402H155.831L156.211 6.86341L156.59 6.69053L156.785 6.30362L156.59 5.96609C156.35 5.71089 155.877 5.62857 155.155 5.62857C154.525 5.62857 154.053 5.66973 153.71 5.84261C153.377 5.96609 153.136 6.18013 152.942 6.48473C152.794 6.77286 152.757 7.20917 152.757 7.71957V8.18058H152.321C151.701 8.18058 151.358 8.38638 151.358 8.7733L151.599 9.20961L152.219 9.37426H152.757V13.7209C152.757 14.0584 152.849 14.2725 152.988 14.4536L153.664 14.7005L154.34 14.4536C154.525 14.2807 154.581 14.0667 154.581 13.7209V9.37426H155.062C155.396 9.37426 155.637 9.3331 155.822 9.29194L156.118 8.78153C156.118 8.39462 155.738 8.18881 155.062 8.18881H154.581V7.81012C154.581 7.51376 154.636 7.25856 154.72 7.08568" fill="#1A4D96"/>
<path d="M225.832 5.87584L225.211 5.67004L224.544 5.92524L224.257 6.4768L224.544 7.06952L225.211 7.2918L225.832 7.06952L226.119 6.4768L225.832 5.87584Z" fill="#1A4D96"/>
<path d="M295.897 8.04059L295.276 8.30402C295.082 8.46867 294.989 8.69094 294.989 9.02846V13.7126C294.989 14.0502 295.082 14.2642 295.276 14.4453L295.897 14.6923L296.573 14.4782C296.767 14.3136 296.851 14.0584 296.851 13.7209V8.9873C296.851 8.69917 296.758 8.4769 296.573 8.31225L295.897 8.04882" fill="#1A4D96"/>
<path d="M293.452 8.31238C293.073 8.13127 292.684 8.04894 292.304 8.04894C291.924 8.04894 291.637 8.13127 291.396 8.31238C291.156 8.47702 290.915 8.74045 290.72 9.07798C290.674 8.74045 290.628 8.47702 290.489 8.31238C290.341 8.13127 290.146 8.04894 289.813 8.04894C289.239 8.04894 288.952 8.42763 288.952 9.1603V13.721C288.952 14.0585 288.998 14.3219 289.202 14.4866L289.868 14.7006L290.535 14.4866C290.683 14.3219 290.776 14.0585 290.776 13.721V12.3544C290.776 11.8358 290.776 11.4653 290.822 11.1278C290.869 10.7409 290.915 10.4445 291.008 10.2305L291.443 9.63777L292.063 9.4649L292.786 9.58838L293.267 9.67893L293.739 9.50606L293.98 8.99566C293.98 8.70753 293.786 8.48525 293.452 8.32061" fill="#1A4D96"/>
<path d="M225.165 8.04059L224.544 8.30402C224.35 8.46867 224.257 8.69094 224.257 9.02846V13.7126C224.257 14.0502 224.35 14.2642 224.544 14.4453L225.165 14.6923L225.832 14.4782C226.026 14.3136 226.119 14.0584 226.119 13.7209V8.9873C226.119 8.69917 226.026 8.4769 225.832 8.31225L225.165 8.04882" fill="#1A4D96"/>
<path d="M169.787 8.31238C169.407 8.13127 169.018 8.04894 168.638 8.04894C168.259 8.04894 167.972 8.13127 167.731 8.31238C167.49 8.47702 167.249 8.74045 167.008 9.07798C167.008 8.74045 166.962 8.47702 166.814 8.31238L166.147 8.04894C165.573 8.04894 165.23 8.42763 165.23 9.1603V13.721C165.23 14.0585 165.323 14.3219 165.518 14.4866L166.147 14.7006L166.814 14.4866C167.008 14.3219 167.101 14.0585 167.101 13.721V12.3544C167.101 11.8358 167.101 11.4653 167.147 11.1278C167.203 10.7409 167.249 10.4445 167.342 10.2305L167.731 9.63777L168.398 9.4649L169.074 9.58838L169.601 9.67893L170.083 9.50606L170.333 8.99566C170.333 8.70753 170.139 8.48525 169.796 8.32061" fill="#1A4D96"/>
<path d="M150.016 34.1702H132.106C130.041 34.1702 129.003 34.3348 126.142 32.9024C124.623 33.9561 123.141 33.4622 122.076 34.1208C121.419 34.4254 120.289 35.298 120.289 36.7304C120.289 39.9657 122.734 40.0809 124.827 40.0809C126.281 40.0809 127.549 39.7681 128.346 39.0684V39.8916C128.346 40.6243 127.327 41.9332 124.41 41.9332C121.493 41.9332 118.002 40.9453 117.918 37.0268C117.918 34.022 120.308 31.9804 123.993 31.6099C122.697 30.1034 120.502 28.8604 119.261 28.5969C119.261 28.2182 119.4 27.2304 119.4 26.6047C121.512 25.8062 123.391 24.2832 125.92 24.2832C129.105 24.2832 131.004 26.0449 132.272 26.6376C131.689 27.8313 129.957 30.4409 128.04 31.7993C128.67 32.1286 129.939 32.1944 130.513 32.1944H150.006V34.1702H150.016ZM126.17 30.6303C127.577 29.6424 128.614 28.4487 129.883 26.9422C128.531 26.3577 127.327 26.1025 126.281 26.1025C123.864 26.1025 122.271 27.2715 121.66 27.5103C123.317 28.21 124.632 29.8812 126.17 30.6303ZM151.719 34.1702H132.772V32.1944H151.108C152.405 32.1944 153.118 31.7005 153.201 30.4409V26.1684H153.942C155.183 26.1684 155.563 26.6129 155.563 27.7408V29.6424C155.563 31.8734 154.738 34.0055 151.71 34.1702H151.719ZM150.016 36.7304C150.016 36.0965 150.617 35.5944 151.358 35.5944C152.099 35.5944 152.683 36.0883 152.683 36.7304C152.683 37.3725 152.099 37.8582 151.358 37.8582C150.617 37.8582 150.016 37.3643 150.016 36.7304ZM153.146 36.7304C153.146 36.0965 153.748 35.5944 154.525 35.5944C155.211 35.5944 155.84 36.0883 155.84 36.7304C155.84 37.3725 155.211 37.8582 154.525 37.8582C153.757 37.8582 153.146 37.3643 153.146 36.7304ZM163.666 34.2854C163.666 34.59 163.666 33.6762 163.666 35.298C163.666 36.9198 162.073 38.2781 159.906 38.2781C158.776 38.2781 158.007 37.8747 158.007 37.1996V36.6563C158.23 36.681 158.443 36.7057 158.665 36.7057C161.767 36.7057 161.304 35.1745 161.304 32.1039V26.1437H162.045C163.286 26.1437 163.666 26.5882 163.666 27.7161V34.2854ZM161.11 23.7728C161.11 23.1389 161.712 22.645 162.48 22.645C163.166 22.645 163.795 23.1389 163.795 23.7728C163.795 24.4067 163.166 24.9006 162.48 24.9006C161.712 24.9006 161.11 24.4149 161.11 23.7728ZM192.855 34.1702H177.797C177.297 36.4176 174.741 38.2781 171.222 38.2781C169.953 38.2781 168.944 38.0146 168.944 37.1996V36.2612C169.389 36.3353 169.852 36.3517 170.315 36.3517C172.685 36.3517 175.13 35.6191 175.482 34.1702C172.12 34.0714 167.62 33.3963 167.62 29.3378C167.62 26.1437 169.657 24.1926 172.843 24.1926C175.843 24.1926 177.899 26.119 177.899 28.9838C177.899 32.1286 177.899 32.1533 177.936 32.1944H192.855V34.1702ZM175.751 32.1944C175.751 28.7698 175.973 26.0037 172.593 26.0037C170.917 26.0037 169.815 27.181 169.815 29.0085C169.815 31.9228 172.398 32.1944 175.751 32.1944ZM197.392 30.5562C197.448 31.7252 198.217 32.1944 199.485 32.1944H200.115V34.1702H198.874C197.744 34.1208 196.837 33.8162 196.207 33.2729C195.55 33.8162 194.67 34.1208 193.54 34.1702H192.308V32.1944H192.938C194.225 32.1944 194.948 31.7005 195.031 30.4409V26.1684H195.772C197.004 26.1684 197.392 26.6129 197.392 27.7408V30.5644V30.5562ZM193.077 23.7481C193.077 23.1142 193.679 22.6203 194.429 22.6203C195.179 22.6203 195.744 23.1142 195.744 23.7481C195.744 24.382 195.17 24.8759 194.429 24.8759C193.688 24.8759 193.077 24.3738 193.077 23.7481ZM196.207 23.7481C196.207 23.1142 196.818 22.6203 197.587 22.6203C198.272 22.6203 198.902 23.1142 198.902 23.7481C198.902 24.382 198.272 24.8759 197.587 24.8759C196.818 24.8759 196.207 24.3738 196.207 23.7481ZM201.087 34.1702H199.569V32.1944H200.476C201.773 32.1944 202.486 31.7005 202.569 30.4409V20.0353H203.319C204.551 20.0353 204.931 20.4799 204.931 21.6077V29.6424C204.931 31.8734 204.106 34.0055 201.087 34.1702ZM210.774 34.1702C209.894 34.1702 209.283 33.7503 209.283 32.7625V20.0106H210.376C210.959 20.0106 211.589 20.414 211.589 20.9738V34.1619H210.765L210.774 34.1702ZM226.295 30.6468C226.295 32.3838 225.971 33.8903 225.804 34.3595C225.007 36.5905 222.609 38.2781 219.229 38.2781C217.997 38.2781 216.979 38.0146 216.979 37.1996V36.4258C217.423 36.5246 217.942 36.5658 218.488 36.5658C221.211 36.5658 222.887 35.5532 223.544 34.1702C220.192 34.0961 215.682 33.3963 215.682 29.3378C215.682 26.1437 217.719 24.1926 220.914 24.1926C225.341 24.1926 226.304 27.7161 226.304 30.6468H226.295ZM223.822 32.1944C223.822 28.7698 224.044 26.0037 220.664 26.0037C218.979 26.0037 217.886 27.181 217.886 29.0085C217.886 31.9228 220.47 32.1944 223.822 32.1944ZM244.381 34.0961C244.353 34.1702 244.325 34.2196 244.325 34.2854V35.3227C244.325 36.8704 242.899 38.3028 240.732 38.3028C239.593 38.3028 238.824 37.8994 238.824 37.2243V36.6892C239.046 36.7139 239.269 36.7386 239.482 36.7386C242.491 36.7386 242.121 35.191 242.121 32.1121V26.1519H242.862C244.103 26.1519 244.492 26.5965 244.492 27.7243V31.9968C244.816 32.1368 245.205 32.2027 245.723 32.2027H254.678V34.1784H245.121C244.844 34.1784 244.594 34.1537 244.371 34.1043L244.381 34.0961ZM254.28 32.1944H257.355V24.9665H258.105C259.346 24.9665 259.725 25.411 259.725 26.5388V32.1944H262.198C263.494 32.1944 264.207 31.7005 264.291 30.4409V24.9665H265.032C266.272 24.9665 266.661 25.411 266.661 26.5388C266.661 26.5388 266.661 30.6468 266.68 30.6961C266.661 31.0501 266.597 31.3794 266.513 31.6593C267.393 32.1039 268.245 32.2685 268.986 32.2685C270.662 32.2685 271.134 31.5194 271.181 30.4409V24.9665H271.921C273.162 24.9665 273.551 25.411 273.551 26.5388V30.5562C273.607 31.7252 274.375 32.1944 275.644 32.1944H276.265V34.1702H275.033C273.903 34.1208 272.829 33.7256 272.199 33.1823C271.514 33.8162 270.579 34.1702 269.393 34.1702C266.587 34.1702 265.541 33.3716 265.402 33.2729C264.735 33.8409 263.883 34.1455 262.79 34.1702H254.262V32.1944H254.28ZM262.392 21.4184C262.392 20.7927 262.994 20.2905 263.744 20.2905C264.494 20.2905 265.069 20.7845 265.069 21.4184C265.069 22.0523 264.485 22.5462 263.744 22.5462C263.003 22.5462 262.392 22.0523 262.392 21.4184ZM263.911 19.0063C263.911 18.3642 264.513 17.8785 265.282 17.8785C265.967 17.8785 266.606 18.3642 266.606 19.0063C266.606 19.6484 265.976 20.1341 265.282 20.1341C264.513 20.1341 263.911 19.6402 263.911 19.0063ZM265.532 21.4184C265.532 20.7927 266.143 20.2905 266.902 20.2905C267.597 20.2905 268.226 20.7845 268.226 21.4184C268.226 22.0523 267.587 22.5462 266.902 22.5462C266.134 22.5462 265.532 22.0523 265.532 21.4184ZM280.96 30.5562C281.015 31.7252 281.784 32.1944 283.053 32.1944H283.682V34.1702H282.441C281.312 34.1208 280.404 33.8162 279.774 33.2729C279.108 33.8162 278.228 34.1208 277.107 34.1702H275.866V32.1944H276.496C277.793 32.1944 278.506 31.7005 278.589 30.4409V26.1684H279.33C280.571 26.1684 280.95 26.6129 280.95 27.7408V30.5644L280.96 30.5562ZM278.376 23.7728C278.376 23.1389 278.987 22.645 279.756 22.645C280.441 22.645 281.071 23.1389 281.071 23.7728C281.071 24.4067 280.441 24.9006 279.756 24.9006C278.987 24.9006 278.376 24.4149 278.376 23.7728ZM288.229 30.5562C288.285 31.7252 289.053 32.1944 290.322 32.1944H292.563V34.1702H289.72C288.6 34.1208 287.692 33.8162 287.053 33.2729C286.396 33.8162 285.516 34.1208 284.386 34.1702H283.145V32.1944H283.775C285.071 32.1944 285.784 31.7005 285.868 30.4409V20.0189H286.618C287.85 20.0189 288.238 20.4717 288.238 21.5912V30.5644L288.229 30.5562ZM293.517 34.1702H290.387V32.1944H292.906C294.193 32.1944 294.915 31.7005 294.999 30.4409V20.0353H295.74C296.98 20.0353 297.369 20.4799 297.369 21.6077V29.6424C297.369 31.8734 296.545 34.0055 293.517 34.1702ZM319.947 32.1944V34.1702H310.621C309.954 34.1702 309.491 33.6268 309.491 33.1329V32.1944H317.604C317.493 30.5562 316.316 27.5926 314.279 26.8681C313.39 26.5635 312.649 26.473 312.112 26.473C311.205 26.473 310.705 26.7035 310.705 26.7035L311.094 26.0943C311.584 25.2875 312.492 24.843 313.89 24.843C313.89 24.843 315.326 24.843 316.641 25.6415C318.928 26.794 319.947 30.2434 319.947 32.1862V32.1944ZM325.781 34.1702C324.901 34.1702 324.29 33.7503 324.29 32.7625V20.0106H325.392C325.966 20.0106 326.605 20.414 326.605 20.9738V34.1619H325.781V34.1702Z" fill="#1A4D96"/>
<path d="M333.384 20.1098L333.578 21.7728C333.634 22.2667 334.013 22.5548 334.402 22.5548C334.68 22.5548 335.041 22.3902 335.041 21.9703C335.014 21.5669 334.93 21.0483 334.875 20.5379C334.847 20.1839 335.125 20.1428 335.541 20.1428L335.764 21.8551C335.81 22.3243 336.069 22.5631 336.505 22.5631C336.94 22.5631 337.245 22.2338 337.162 21.674C336.986 20.4474 337.051 20.752 337.023 20.4721C337.023 20.2169 337.245 20.1675 337.625 20.1675L337.838 21.9539C337.838 22.4478 337.56 22.9829 336.634 23.057C336.366 23.057 335.838 23.0323 335.421 22.6618C335.208 22.917 334.819 23.0323 334.439 23.0323C333.56 23.0323 332.976 22.4478 332.902 21.7234C332.763 20.5461 332.791 20.5214 332.791 20.4967C332.791 20.2662 333.041 20.1263 333.282 20.1263H333.393L333.384 20.1098Z" fill="#1A4D96"/>
<path d="M341.301 30.6469C341.301 32.3839 340.977 33.8904 340.811 34.3597C340.014 36.5906 337.625 38.2783 334.236 38.2783C332.995 38.2783 331.985 38.0148 331.985 37.1998V36.426C332.42 36.5248 332.948 36.5659 333.495 36.5659C336.217 36.5659 337.893 35.5534 338.56 34.1703C335.208 34.0963 330.698 33.3965 330.698 29.338C330.698 26.1439 332.735 24.1928 335.921 24.1928C340.347 24.1928 341.311 27.7162 341.311 30.6469H341.301ZM338.829 32.1946C338.829 28.77 339.051 26.0039 335.662 26.0039C333.985 26.0039 332.893 27.1811 332.893 29.0087C332.893 31.9229 335.476 32.1946 338.829 32.1946ZM348.876 34.0963C348.849 34.1703 348.812 34.2197 348.812 34.2856V35.3229C348.812 36.8705 347.385 38.3029 345.219 38.3029C344.079 38.3029 343.32 37.8996 343.32 37.2245V36.6894C343.533 36.7141 343.755 36.7388 343.978 36.7388C346.978 36.7388 346.626 35.1911 346.626 32.1123V26.1521H347.367C348.599 26.1521 348.988 26.5966 348.988 27.7245V31.997C349.321 32.137 349.701 32.2028 350.219 32.2028H359.702V34.1786H349.617C349.339 34.1786 349.099 34.1539 348.876 34.1045V34.0963ZM360.674 34.1703H359.165V32.1946H360.072C361.36 32.1946 362.073 31.7007 362.165 30.4411V20.0355H362.906C364.138 20.0355 364.527 20.4801 364.527 21.6079V29.6426C364.527 31.8735 363.703 34.0057 360.674 34.1703ZM368.759 34.1703C367.87 34.1703 367.277 33.7505 367.277 32.7626V20.0108H368.379C368.953 20.0108 369.583 20.4142 369.583 20.974V34.1621H368.759V34.1703Z" fill="#1A4D96"/>
<path d="M277.589 17.6645L277.783 19.3274C277.839 19.8213 278.219 20.1095 278.608 20.1095C278.885 20.1095 279.247 19.9448 279.247 19.5168C279.219 19.1134 279.135 18.603 279.08 18.0843C279.052 17.7303 279.33 17.6892 279.737 17.6892L279.96 19.4015C280.015 19.8707 280.265 20.1095 280.71 20.1095C281.154 20.1095 281.45 19.7802 281.367 19.2204C281.2 17.9938 281.256 18.3066 281.228 18.0185C281.228 17.7633 281.45 17.7139 281.83 17.7139L282.052 19.4921C282.052 19.986 281.775 20.5211 280.849 20.5952C280.58 20.5952 280.052 20.5705 279.635 20.2C279.422 20.4552 279.034 20.5705 278.654 20.5705C277.774 20.5705 277.2 19.986 277.117 19.2616C276.978 18.0843 277.005 18.0596 277.005 18.0349C277.005 17.8044 277.255 17.6645 277.496 17.6645H277.607H277.589Z" fill="#1A4D96"/>
<path d="M192.92 17.5081L193.114 19.171C193.17 19.6649 193.549 19.9448 193.938 19.9448C194.216 19.9448 194.577 19.7802 194.577 19.3603C194.549 18.957 194.466 18.4383 194.411 17.9279C194.383 17.5739 194.651 17.5328 195.068 17.5328L195.29 19.2451C195.337 19.7143 195.596 19.9531 196.031 19.9531C196.466 19.9531 196.772 19.6238 196.689 19.064C196.513 17.8374 196.578 18.142 196.55 17.8621C196.55 17.6069 196.772 17.5575 197.152 17.5575L197.374 19.3356C197.374 19.8296 197.096 20.3647 196.161 20.4388C195.892 20.4388 195.364 20.4141 194.948 20.0436C194.735 20.2988 194.355 20.4141 193.966 20.4141C193.086 20.4141 192.512 19.8296 192.429 19.1051C192.29 17.9279 192.318 17.9032 192.318 17.8785C192.318 17.648 192.568 17.5081 192.809 17.5081H192.92Z" fill="#1A4D96"/>
<path d="M345.228 8.84785V13.8942H348.386C348.636 13.8942 348.83 13.9519 348.969 14.0589C349.108 14.1659 349.173 14.3059 349.173 14.4787C349.173 14.6516 349.108 14.7833 348.969 14.8903C348.84 14.9974 348.645 15.0468 348.386 15.0468H344.626C344.284 15.0468 344.043 14.9809 343.895 14.841C343.746 14.701 343.672 14.487 343.672 14.1824V8.84785C343.672 8.56795 343.746 8.35391 343.885 8.20573C344.024 8.06578 344.209 7.99169 344.441 7.99169C344.673 7.99169 344.867 8.06578 345.015 8.20573C345.163 8.34568 345.228 8.55972 345.228 8.84785Z" fill="#1A4D96"/>
<path d="M351.044 15.1619C350.831 15.1619 350.636 15.0961 350.479 14.9726C350.321 14.8491 350.247 14.668 350.247 14.4457C350.247 14.2564 350.321 14.0917 350.47 13.9518C350.618 13.8118 350.803 13.746 351.025 13.746C351.247 13.746 351.433 13.8118 351.59 13.9518C351.748 14.0917 351.822 14.2564 351.822 14.4539C351.822 14.6762 351.748 14.8491 351.59 14.9808C351.433 15.1043 351.247 15.1701 351.044 15.1701V15.1619Z" fill="#1A4D96"/>
<path d="M355.081 8.84781V13.8942H358.239C358.489 13.8942 358.684 13.9518 358.823 14.0588C358.962 14.1659 359.026 14.3058 359.026 14.4787C359.026 14.6516 358.962 14.7833 358.823 14.8903C358.693 14.9973 358.499 15.0467 358.239 15.0467H354.479C354.137 15.0467 353.896 14.9809 353.748 14.8409C353.6 14.701 353.526 14.4869 353.526 14.1823V8.84781C353.526 8.56791 353.6 8.35387 353.739 8.20569C353.878 8.06574 354.063 7.99165 354.294 7.99165C354.526 7.99165 354.72 8.06574 354.868 8.20569C355.017 8.34564 355.081 8.55968 355.081 8.84781Z" fill="#1A4D96"/>
<path d="M360.897 15.1619C360.684 15.1619 360.49 15.0961 360.332 14.9726C360.175 14.8491 360.101 14.668 360.101 14.4457C360.101 14.2564 360.175 14.0917 360.323 13.9518C360.471 13.8118 360.656 13.746 360.878 13.746C361.101 13.746 361.286 13.8118 361.443 13.9518C361.601 14.0917 361.675 14.2564 361.675 14.4539C361.675 14.6762 361.601 14.8491 361.443 14.9808C361.286 15.1043 361.101 15.1701 360.897 15.1701V15.1619Z" fill="#1A4D96"/>
<path d="M369.963 12.8569C369.963 13.0792 369.898 13.3179 369.778 13.5731C369.658 13.8283 369.463 14.0835 369.213 14.3305C368.954 14.5775 368.62 14.7751 368.222 14.9315C367.824 15.0879 367.352 15.162 366.815 15.162C366.407 15.162 366.037 15.129 365.703 15.055C365.37 14.9891 365.074 14.8738 364.796 14.7339C364.518 14.5939 364.277 14.3964 364.046 14.1576C363.842 13.9436 363.666 13.6966 363.527 13.425C363.388 13.1533 363.277 12.8652 363.203 12.5606C363.129 12.256 363.092 11.9267 363.092 11.5892C363.092 11.0294 363.184 10.5354 363.36 10.0909C363.536 9.64634 363.796 9.27589 364.138 8.95483C364.472 8.642 364.87 8.40327 365.324 8.23862C365.777 8.07398 366.259 7.99165 366.768 7.99165C367.389 7.99165 367.944 8.10691 368.435 8.32918C368.926 8.55145 369.296 8.83135 369.556 9.16064C369.815 9.48993 369.945 9.80276 369.945 10.0909C369.945 10.2555 369.88 10.3955 369.759 10.519C369.63 10.6424 369.482 10.7001 369.306 10.7001C369.102 10.7001 368.954 10.6589 368.861 10.5766C368.769 10.4943 368.648 10.3461 368.528 10.1403C368.324 9.79452 368.083 9.53932 367.815 9.36644C367.537 9.19357 367.203 9.11124 366.796 9.11124C366.157 9.11124 365.648 9.33352 365.268 9.76983C364.888 10.2061 364.703 10.8318 364.703 11.6386C364.703 12.1737 364.786 12.6264 364.953 12.9804C365.12 13.3344 365.361 13.6061 365.666 13.7789C365.972 13.9518 366.333 14.0424 366.75 14.0424C367.194 14.0424 367.574 13.9436 367.889 13.746C368.194 13.5484 368.435 13.2521 368.593 12.8652C368.657 12.6841 368.741 12.5359 368.843 12.4206C368.944 12.3054 369.102 12.2477 369.315 12.2477C369.5 12.2477 369.658 12.3054 369.796 12.4206C369.926 12.5359 370 12.6841 370 12.8569H369.963Z" fill="#1A4D96"/>
<path d="M88.7756 32.5738H88.6922C88.0903 32.5738 87.405 32.2445 86.7105 32.2445C86.0159 32.2445 85.3029 32.3598 84.6454 32.5903C84.8306 33.1254 84.9602 33.7757 84.9602 34.3273C84.9602 35.027 84.7009 36.4348 84.1175 36.9287L83.4137 32.6973C83.2285 31.553 85.627 30.9109 86.4512 30.6475C86.266 30.4334 85.8307 30.1618 85.5066 30.1618C84.8491 30.1618 84.3861 30.7874 83.9138 31.1085C84.1731 30.2029 85.1362 28.3918 86.3401 28.3918C87.2476 28.3918 88.9238 30.3429 89.4516 30.9521L88.7756 32.5821V32.5738Z" fill="#1A4D96"/>
<path d="M92.1373 33.6688C91.9521 33.6688 90.6001 32.9443 90.6001 32.8044C90.6001 32.6397 91.8781 31.7836 92.1188 31.7836C92.3318 31.7836 93.5542 32.5986 93.7579 32.7879C93.6098 33.0019 92.4059 33.6688 92.1373 33.6688Z" fill="#1A4D96"/>
<path d="M101.231 32.5738H101.148C100.546 32.5738 99.8603 32.2445 99.1658 32.2445C98.4713 32.2445 97.7582 32.3598 97.1007 32.5903C97.2859 33.1254 97.4156 33.7757 97.4156 34.3273C97.4156 35.027 97.1563 36.4348 96.5728 36.9287L95.869 32.6973C95.6838 31.553 98.0823 30.9109 98.9065 30.6475C98.7213 30.4334 98.286 30.1618 97.9619 30.1618C97.3044 30.1618 96.8414 30.7874 96.3691 31.1085C96.6284 30.2029 97.5915 28.3918 98.7954 28.3918C99.7029 28.3918 101.379 30.3429 101.907 30.9521L101.231 32.5821V32.5738Z" fill="#1A4D96"/>
<path d="M104.583 33.6688C104.398 33.6688 103.046 32.9443 103.046 32.8044C103.046 32.6397 104.324 31.7836 104.565 31.7836C104.778 31.7836 106 32.5986 106.204 32.7879C106.056 33.0019 104.852 33.6688 104.583 33.6688Z" fill="#1A4D96"/>
<path d="M109.529 27.7165C109.325 27.7165 108.278 27.0662 108.278 26.8768C108.278 26.7369 109.158 25.9466 109.343 25.856L110.658 26.7863C110.547 26.9509 109.695 27.7165 109.529 27.7165ZM112.835 33.6685H108.426L108.63 31.8821H112.177L112.196 31.8162C111.853 30.8613 110.936 30.4167 109.954 30.0545L110.686 28.087C112.492 28.7373 113.399 30.2191 113.399 31.8738C113.399 32.3595 113.418 33.405 112.844 33.6602L112.835 33.6685Z" fill="#1A4D96"/>
</svg>
