<svg width="400" height="99" viewBox="0 0 400 99" fill="none" xmlns="http://www.w3.org/2000/svg">
<path d="M6.97384 19.1346C8.13858 14.1303 7.99375 9.77049 6.65034 9.39657C5.30694 9.02266 3.27369 12.7763 2.10895 17.7805C0.944209 22.7847 1.08904 27.1445 2.43245 27.5185C3.77585 27.8924 5.8091 24.1388 6.97384 19.1346Z" fill="#1A4D96"/>
<path d="M2.7643 27.7731C2.6343 27.795 2.5043 27.7841 2.3743 27.7513C1.6043 27.5326 1.1643 26.3734 1.1043 24.3941C1.0443 22.535 1.3243 20.162 1.8843 17.7234C2.4543 15.2848 3.2443 13.054 4.1143 11.4574C5.0443 9.75147 5.9343 8.95318 6.7043 9.17189C7.4743 9.3906 7.9143 10.5498 7.9743 12.5291C8.0343 14.3881 7.7543 16.7611 7.1943 19.1997C6.6243 21.6383 5.8343 23.8692 4.9643 25.4658C4.1943 26.8874 3.4443 27.6747 2.7643 27.7731ZM6.3743 9.62024C5.2843 9.78427 3.4543 12.9774 2.3243 17.8328C1.7643 20.2277 1.4943 22.546 1.5543 24.3613C1.6143 26.0344 1.9643 27.117 2.4843 27.2592C3.5343 27.5544 5.5443 24.2519 6.7543 19.0576C7.3143 16.6627 7.5843 14.3444 7.5243 12.5291C7.4643 10.856 7.1143 9.77334 6.5943 9.63118C6.5243 9.60931 6.4543 9.60931 6.3743 9.62024Z" fill="#1A4D96"/>
<path d="M18.3943 27.8715H18.3543L3.83435 26.9748C3.71435 26.9748 3.61435 26.8545 3.62435 26.7124C3.62435 26.5811 3.73435 26.4718 3.86435 26.4827L18.3443 27.3685C19.7343 26.9311 20.9543 25.2251 21.4643 23.0162C21.9743 20.8072 21.6543 18.6748 20.6243 17.5594L7.45435 11.0309C7.34435 10.9762 7.29435 10.834 7.34435 10.7028C7.39435 10.5825 7.52435 10.5278 7.64435 10.5825L20.8843 17.1438L20.9143 17.1766C22.0943 18.4233 22.4643 20.7088 21.9043 23.1365C21.3343 25.5751 20.0043 27.3794 18.4343 27.8606H18.3943V27.8715Z" fill="#1A4D96"/>
<path d="M21.7742 23.6396C25.6542 24.5472 29.3242 26.2204 32.3242 28.4731C33.2142 29.1401 34.0342 29.8619 34.7842 30.6164C36.0842 29.9056 37.4242 29.2385 38.7542 28.5824C39.5042 28.2106 40.2542 27.8388 40.9942 27.4561C40.6342 27.1061 40.2842 26.7343 39.9442 26.3516C36.1742 22.0539 33.3042 13.2837 35.0542 7.06138C36.0742 3.44174 38.5442 1.09061 42.1842 0.248576C45.7942 -0.58252 48.9642 0.685996 51.1142 3.83542C52.4342 5.76006 53.2642 8.28616 53.4642 10.9435C53.6642 13.6227 53.2042 16.2581 52.1642 18.3577C49.9642 22.7975 45.9942 25.3783 41.7942 27.5764C47.5742 32.8254 55.3142 32.9129 65.9342 27.9154C66.0442 27.8607 66.1842 27.9153 66.2342 28.0466C66.2842 28.1669 66.2342 28.32 66.1142 28.3746C60.8942 30.8351 56.4642 32.038 52.5542 32.0708C50.1742 32.0927 47.9442 31.6662 45.9342 30.8133C44.2942 30.1134 42.7642 29.1073 41.3542 27.806C40.5442 28.2215 39.7342 28.6262 38.9242 29.0198C37.6542 29.6432 36.3742 30.2884 35.1242 30.9664C37.1042 33.055 38.5742 35.439 39.4342 37.9979C40.7142 41.7706 39.8942 45.8714 37.4042 48.1897C36.4342 49.0864 35.2742 49.6551 34.0242 49.841C33.8742 49.8629 33.7242 49.8847 33.5642 49.8957C31.9942 50.005 30.3742 49.5457 28.7342 48.5287C26.7542 47.304 25.5642 45.4777 25.3142 43.2469C25.0042 40.5568 26.0942 37.6151 28.2242 35.3733C29.9642 33.5471 32.0942 32.1146 34.3442 30.8461C30.7342 27.292 25.8642 25.094 21.6142 24.0989C21.5642 24.0879 21.7242 23.6177 21.7642 23.6286L21.7742 23.6396ZM34.7042 31.2069C32.4242 32.4754 30.2742 33.908 28.5342 35.7342C26.5342 37.8338 25.4742 40.688 25.7542 43.1922C25.9942 45.259 27.0942 46.954 28.9542 48.1023C31.9542 49.9613 34.9242 49.8629 37.1142 47.8289C39.4642 45.6418 40.2242 41.7706 39.0142 38.1838C38.0942 35.4608 36.5742 33.1425 34.7042 31.2179V31.2069ZM43.0542 0.576641C42.8042 0.609447 42.5442 0.664125 42.2842 0.718802C38.7542 1.53896 36.4742 3.71512 35.4842 7.20354C33.7842 13.2509 36.5842 21.8134 40.2642 26.0016C40.6442 26.4391 41.0342 26.8437 41.4342 27.2264C45.6342 25.0393 49.6142 22.4914 51.7842 18.1281C53.8342 13.9945 53.3942 7.96903 50.7742 4.13067C48.8842 1.37493 46.1742 0.128286 43.0642 0.587576L43.0542 0.576641Z" fill="#1A4D96"/>
<path d="M76.5543 14.6068C76.6543 13.7867 76.9043 13.2399 77.3143 13.0759C78.6143 12.551 81.0143 16.0831 82.6743 20.9713C84.3343 25.8594 84.6243 30.2446 83.3243 30.7804C82.9143 30.9444 82.4043 30.7148 81.8343 30.168L82.1243 26.8327L80.9343 22.0211L78.9843 17.8765L76.5543 14.6068Z" fill="#1A4D96"/>
<path d="M83.1743 31.0647C82.7343 31.1303 82.2343 30.8897 81.6743 30.343C81.5843 30.2555 81.5743 30.1024 81.6543 29.993C81.7343 29.8946 81.8743 29.8837 81.9743 29.9712C82.3343 30.3211 82.8443 30.7038 83.2343 30.5398C83.7443 30.332 83.9843 29.2057 83.8743 27.5216C83.7543 25.6954 83.2543 23.3989 82.4543 21.0587C81.6643 18.7186 80.6743 16.6189 79.6743 15.1426C78.7543 13.7866 77.9043 13.0977 77.3843 13.3055C76.9943 13.4695 76.8343 14.1147 76.7643 14.6396C76.7443 14.7708 76.6343 14.8693 76.5143 14.8474C76.3943 14.8255 76.3043 14.7052 76.3243 14.574C76.4443 13.6226 76.7443 13.043 77.2243 12.8462C77.9643 12.5509 78.9343 13.2399 80.0243 14.8474C81.0443 16.3565 82.0543 18.4998 82.8643 20.8838C83.6743 23.2677 84.1843 25.6079 84.3143 27.4888C84.4443 29.49 84.1243 30.7038 83.3843 31.01C83.3143 31.0428 83.2443 31.0538 83.1643 31.0647H83.1743Z" fill="#1A4D96"/>
<path d="M64.5042 22.9835C64.4142 22.9944 64.3342 22.9507 64.2842 22.8632C64.2142 22.7429 64.2542 22.6007 64.3542 22.5242L76.4342 14.3991C76.5442 14.3226 76.6742 14.3663 76.7442 14.4757C76.8142 14.596 76.7742 14.7381 76.6742 14.8147L64.5942 22.9397C64.5942 22.9397 64.5342 22.9725 64.5042 22.9725V22.9835Z" fill="#1A4D96"/>
<path d="M68.1043 33.0768C67.9843 33.0987 67.8743 33.0112 67.8543 32.88C67.8343 32.7488 67.9143 32.6175 68.0343 32.5957L81.7843 29.9274C81.9043 29.9056 82.0243 29.993 82.0443 30.1243C82.0643 30.2555 81.9843 30.3867 81.8643 30.4086L68.1143 33.0768H68.1043Z" fill="#1A4D96"/>
<path d="M67.9642 33.1207C66.8242 33.2847 65.3642 30.9445 64.5142 28.5168C64.0342 27.139 63.7442 25.772 63.7142 24.6675C63.6742 23.4537 63.9342 22.6992 64.4542 22.4804C64.9842 22.2617 65.6342 22.6335 66.3442 23.574C66.9942 24.427 67.6142 25.6517 68.0942 27.0296C68.9942 29.5994 69.3142 32.5848 68.1542 33.0769C68.0942 33.0988 68.0242 33.1207 67.9642 33.1316V33.1207ZM64.7042 22.9069C64.7042 22.9069 64.6442 22.9179 64.6242 22.9288C64.3042 23.06 64.1342 23.7052 64.1742 24.6457C64.2142 25.7064 64.4842 27.0187 64.9442 28.3419C65.8942 31.0648 67.2342 32.727 67.9142 32.6286C67.9442 32.6286 67.9742 32.6176 68.0042 32.6067C68.6542 32.3333 68.6842 30.0478 67.6842 27.1936C67.2242 25.8704 66.6242 24.6894 66.0042 23.8802C65.5042 23.2131 65.0242 22.8632 64.7042 22.9179V22.9069Z" fill="#1A4D96"/>
<path d="M81.8941 30.3758C81.8941 30.3758 81.8141 30.3758 81.7741 30.3539C81.6641 30.2993 81.6141 30.1571 81.6641 30.0259C82.2541 28.6043 81.9241 25.6845 80.8041 22.4038C79.6741 19.1013 77.9941 16.1816 76.4141 14.7927C76.3141 14.7053 76.3041 14.5522 76.3841 14.4428C76.4641 14.3335 76.6041 14.3225 76.7041 14.41C78.3741 15.8754 80.0641 18.8061 81.2341 22.2289C82.4141 25.6736 82.7241 28.6699 82.0741 30.2227C82.0441 30.2993 81.9741 30.3539 81.8941 30.3649V30.3758Z" fill="#1A4D96"/>
<path d="M128.064 11.9387C127.704 11.5559 127.284 11.206 126.764 11.042C126.304 10.8014 125.734 10.692 125.154 10.692C124.534 10.692 124.014 10.8014 123.504 11.042C123.034 11.206 122.574 11.5559 122.254 11.884C121.894 12.2777 121.634 12.7916 121.424 13.2947C121.274 13.8633 121.164 14.4866 121.164 15.11C121.164 15.788 121.264 16.3457 121.424 16.9252C121.634 17.4283 121.894 17.9422 122.254 18.3359C122.614 18.7405 123.034 19.0139 123.504 19.2326C123.964 19.4623 124.534 19.517 125.154 19.517C125.734 19.517 126.294 19.4623 126.764 19.2326C127.284 19.0139 127.704 18.7405 128.014 18.3359C128.374 17.9422 128.634 17.483 128.844 16.9252C129.044 16.3566 129.104 15.788 129.104 15.11C129.104 14.4866 129.054 13.8633 128.844 13.2947C128.684 12.7916 128.374 12.3323 128.054 11.9387M126.564 17.1986C126.204 17.6579 125.734 17.9422 125.154 17.9422C124.754 17.9422 124.394 17.8329 124.074 17.6032C123.814 17.3736 123.554 17.0346 123.394 16.6409C123.234 16.1816 123.184 15.6786 123.184 15.1209C123.184 14.5632 123.234 14.0492 123.394 13.6555C123.544 13.1962 123.814 12.8682 124.124 12.6276C124.384 12.4089 124.744 12.2886 125.154 12.2886C125.734 12.2886 126.194 12.5729 126.564 13.076C126.924 13.5462 127.134 14.2679 127.134 15.1209C127.134 16.0285 126.924 16.6956 126.564 17.2096" fill="#1A4D96"/>
<path d="M337.804 10.681L337.094 11.031C336.934 11.2497 336.834 11.5449 336.834 11.9933V14.6615C336.834 15.6676 336.774 16.3456 336.674 16.6846L335.994 17.5266L335.074 17.811C334.704 17.811 334.454 17.7454 334.244 17.5266L333.824 16.7393C333.724 16.4003 333.724 15.941 333.724 15.4926V11.9933C333.724 11.5449 333.614 11.2497 333.414 11.031L332.694 10.681L331.964 11.031C331.814 11.195 331.714 11.5449 331.714 11.9933V16.2909C331.714 17.1986 331.814 17.8219 332.074 18.2703C332.284 18.6749 332.584 19.0139 332.954 19.1888C333.364 19.3966 333.774 19.5169 334.254 19.5169C334.664 19.5169 335.024 19.4622 335.344 19.3529L336.224 18.8389L336.944 18.0515V18.3359C336.944 18.7295 337.044 19.0139 337.204 19.2326L337.874 19.5169L338.554 19.2326C338.754 19.0139 338.804 18.7405 338.804 18.2703V12.0042C338.804 11.5559 338.764 11.2059 338.554 11.0419L337.814 10.692" fill="#1A4D96"/>
<path d="M344.754 17.7016L344.284 17.8219L343.774 17.8875L343.294 17.7016L343.144 17.2642L343.094 16.4659V12.4526H343.504C343.864 12.4526 344.174 12.3979 344.394 12.2886L344.704 11.6652L344.494 11.1075L343.874 10.8779H343.104V9.41254L343.054 8.57051L342.794 8.05654L342.114 7.77222L341.654 7.89251L341.294 8.27525L341.134 8.78922V10.8888H340.934L340.204 11.1185L339.994 11.6762L340.204 12.2558L340.874 12.4745H341.134V16.6628C341.134 17.3298 341.194 17.8547 341.294 18.2922C341.404 18.6858 341.604 18.9811 341.924 19.2107C342.234 19.4185 342.694 19.5388 343.314 19.5388C343.984 19.5388 344.504 19.4841 344.864 19.2545C345.184 19.0904 345.384 18.8499 345.384 18.4562L345.184 17.9641L344.764 17.7235" fill="#1A4D96"/>
<path d="M119.414 16.466C119.154 15.9629 118.844 15.5037 118.484 15.0553C118.124 14.596 117.754 14.3226 117.394 14.093C118.324 13.8633 118.994 13.4697 119.414 12.9557C119.884 12.4527 120.084 11.72 120.084 10.867C120.084 10.4624 120.034 10.025 119.934 9.68598C119.774 9.2923 119.574 8.94236 119.314 8.66898C119.054 8.37372 118.794 8.14407 118.424 7.99098C118.174 7.87069 117.864 7.76133 117.494 7.70666C117.124 7.70666 116.714 7.65198 116.244 7.65198H112.724C112.264 7.65198 111.894 7.76133 111.684 7.99098C111.484 8.20969 111.374 8.6143 111.374 9.11733V18.1172C111.374 18.5765 111.484 18.9593 111.684 19.1998C111.844 19.4076 112.104 19.5279 112.464 19.5279L113.234 19.1998C113.444 18.9702 113.554 18.6312 113.554 18.1172V14.3773H114.324C114.694 14.3773 115.004 14.432 115.264 14.5523L115.724 14.8366L116.034 15.11C116.244 15.4599 116.554 15.9083 116.874 16.466L117.744 18.0516L118.224 18.9046L118.634 19.3529L119.264 19.517L119.784 19.4076L120.194 19.0796L120.304 18.6312C120.304 18.4453 120.244 18.1719 120.084 17.7673C119.934 17.3627 119.724 16.9253 119.414 16.466ZM116.824 12.4964C116.524 12.562 116.154 12.6167 115.734 12.6167L115.534 12.6823H113.564V9.45633H115.734C116.414 9.45633 116.824 9.50007 117.084 9.6313L117.704 10.189L117.914 11.042C117.914 11.4357 117.804 11.7747 117.654 12.0043C117.444 12.2449 117.194 12.4089 116.824 12.5073" fill="#1A4D96"/>
<path d="M149.514 16.5315V14.0382C149.514 13.2399 149.414 12.5619 149.194 12.1026C148.994 11.6105 148.624 11.2606 148.154 11.031C147.644 10.8013 146.964 10.681 146.084 10.681H145.874C145.204 10.681 144.574 10.7904 144.114 11.031C143.594 11.2497 143.184 11.534 142.924 11.9386L142.564 13.0103L142.824 13.6336L143.394 13.8633L143.864 13.7539L144.274 13.1306L144.944 12.4526C145.154 12.2776 145.464 12.2229 145.874 12.2229L146.084 12.1683C146.654 12.1683 147.064 12.3323 147.214 12.6166C147.424 12.8463 147.524 13.2946 147.524 13.8633C147.104 13.9726 146.754 14.0929 146.384 14.2132L145.864 14.3225L145.084 14.4866C144.564 14.6069 144.254 14.7272 144.154 14.7272C143.524 14.8912 143.064 15.1755 142.704 15.5692C142.394 16.0285 142.184 16.5315 142.184 17.0892C142.184 17.5376 142.284 17.9422 142.494 18.3468C142.704 18.6858 143.004 19.0248 143.434 19.2435C143.794 19.4185 144.264 19.5278 144.774 19.5278C145.134 19.5278 145.504 19.5278 145.864 19.4185L146.284 19.2435C146.744 19.0248 147.214 18.7405 147.684 18.3468C147.894 18.7405 148.094 19.0248 148.304 19.2435L148.924 19.5278L149.544 19.2982L149.854 18.6858C149.854 18.5764 149.804 18.2265 149.654 17.8438C149.554 17.3845 149.494 16.9361 149.494 16.5534M147.544 15.5036C147.544 16.2363 147.494 16.8049 147.284 17.0892L146.564 17.8328L145.884 18.1172H145.474C145.104 18.1172 144.794 17.9969 144.584 17.7672L144.224 16.9252L144.534 16.1925L145.104 15.8535C145.254 15.7879 145.514 15.7332 145.884 15.6239L146.304 15.5801C146.824 15.4052 147.284 15.2849 147.544 15.1864V15.5254V15.5036Z" fill="#1A4D96"/>
<path d="M140.604 10.6811L140.044 10.856L139.784 11.2497L139.574 12.048L138.284 16.9143L137.084 12.387C136.934 11.9277 136.824 11.5996 136.774 11.4137L136.414 10.9107L135.744 10.6811L135.074 10.9107L134.714 11.4137C134.654 11.5996 134.544 11.9277 134.444 12.387L133.254 16.9143L131.964 12.048C131.804 11.545 131.704 11.195 131.544 10.9763C131.444 10.7904 131.234 10.6811 130.874 10.6811L130.254 10.9763L129.994 11.5996C129.994 11.7527 130.104 12.0917 130.254 12.6057L131.854 17.811L132.064 18.3796L132.324 18.992L132.684 19.3748L133.244 19.4951C133.664 19.4951 133.974 19.3748 134.124 19.0467C134.334 18.7624 134.484 18.314 134.644 17.7344L135.734 13.5024L136.874 17.7344C136.974 18.1281 137.024 18.4124 137.134 18.6421L137.504 19.2545L138.224 19.4841L138.944 19.2545L139.304 18.7514C139.354 18.5874 139.454 18.2375 139.614 17.7891L141.214 12.5838C141.374 12.1355 141.484 11.7965 141.484 11.5778L141.214 10.9544L140.594 10.6592" fill="#1A4D96"/>
<path d="M222.674 7.805L222.004 7.53162L221.274 7.87062L220.964 8.60329L221.274 9.39065L222.004 9.68591L222.674 9.39065L222.994 8.60329L222.674 7.805Z" fill="#1A4D96"/>
<path d="M356.514 11.9387C356.204 11.5559 355.794 11.206 355.274 11.042C354.804 10.8014 354.234 10.692 353.664 10.692H353.614C353.054 10.692 352.474 10.8014 352.014 11.042C351.494 11.206 351.084 11.5559 350.764 11.884C350.404 12.2777 350.134 12.7916 349.934 13.2947C349.774 13.8633 349.674 14.4866 349.674 15.11C349.674 15.788 349.774 16.3457 349.934 16.9252C350.144 17.4283 350.404 17.9422 350.764 18.3359C351.124 18.7405 351.544 19.0139 352.014 19.2326C352.474 19.4623 353.044 19.517 353.614 19.517H353.664C354.234 19.517 354.804 19.4623 355.274 19.2326C355.744 19.0139 356.214 18.7405 356.514 18.3359C356.884 17.9422 357.144 17.483 357.344 16.9252C357.504 16.3566 357.594 15.788 357.594 15.11C357.594 14.4866 357.504 13.8633 357.344 13.2947C357.134 12.7916 356.874 12.3323 356.514 11.9387ZM355.074 17.1986C354.704 17.6579 354.234 17.9422 353.664 17.9422H353.614C353.254 17.9422 352.894 17.8329 352.594 17.6032C352.324 17.3736 352.074 17.0346 351.914 16.6409C351.754 16.1816 351.704 15.6786 351.704 15.1209C351.704 14.5632 351.754 14.0492 351.914 13.6555C352.074 13.1962 352.324 12.8682 352.594 12.6276C352.894 12.4089 353.254 12.2886 353.614 12.2886H353.664C354.234 12.2886 354.704 12.5729 355.074 13.076C355.434 13.5462 355.644 14.2679 355.644 15.1209C355.644 16.0285 355.434 16.6956 355.074 17.2096" fill="#1A4D96"/>
<path d="M221.954 10.681L221.234 11.031C221.074 11.2497 220.974 11.5449 220.974 11.9933V18.2156C220.974 18.6639 221.074 18.9483 221.234 19.1888L221.954 19.5169L222.674 19.2326C222.894 19.0139 222.994 18.6749 222.994 18.2265V11.9386C222.994 11.5559 222.894 11.2606 222.674 11.0419L221.954 10.692" fill="#1A4D96"/>
<path d="M108.894 14.1476H106.604C106.254 14.1476 105.944 14.2023 105.784 14.421L105.524 15.099L105.784 15.777C105.994 15.941 106.254 16.0613 106.604 16.0613H108.894C109.254 16.0613 109.514 15.941 109.724 15.777L109.984 15.099L109.724 14.421C109.514 14.2023 109.254 14.1476 108.894 14.1476Z" fill="#1A4D96"/>
<path d="M194.954 7.87069C194.494 7.69572 193.874 7.65198 193.044 7.65198H190.244C189.784 7.65198 189.414 7.76133 189.214 7.99098C189.004 8.20969 188.904 8.62524 188.904 9.11733V18.1063C188.904 18.5656 189.004 18.9593 189.214 19.1889L189.984 19.517L190.764 19.1889C190.964 18.9702 191.074 18.5656 191.074 18.1063V14.771H193.044C194.394 14.771 195.374 14.4757 196.044 13.8633C196.724 13.24 197.034 12.3324 197.034 11.1404C197.034 10.5718 196.974 10.1234 196.824 9.67504C196.664 9.22669 196.404 8.82207 196.094 8.54869C195.784 8.19875 195.364 7.98004 194.954 7.87069ZM194.594 12.2777L193.814 12.8463C193.564 12.901 193.294 12.9557 192.934 13.0104H191.074V9.4454H192.934C193.664 9.50007 194.184 9.67504 194.444 9.95936C194.694 10.2874 194.854 10.692 194.854 11.1951C194.854 11.6544 194.754 11.9934 194.594 12.2668" fill="#1A4D96"/>
<path d="M347.084 7.53162L346.414 7.87062L346.104 8.60329L346.414 9.40158L347.084 9.68591L347.814 9.40158L348.074 8.60329L347.814 7.805L347.084 7.53162Z" fill="#1A4D96"/>
<path d="M347.084 10.681L346.354 11.031C346.194 11.2497 346.094 11.5449 346.094 11.9933V18.2156C346.094 18.6639 346.194 18.9483 346.354 19.1888L347.084 19.5169L347.814 19.2326C347.964 19.0139 348.074 18.6749 348.074 18.2265V11.9386C348.074 11.5559 347.964 11.2606 347.814 11.0419L347.084 10.692" fill="#1A4D96"/>
<path d="M103.204 7.47693L102.474 7.81593C102.324 8.03464 102.224 8.3299 102.224 8.76732V18.2156C102.224 18.6639 102.324 18.9482 102.534 19.1888L103.214 19.5169L103.934 19.2326C104.154 19.0139 104.244 18.6639 104.244 18.2156V8.76732C104.244 8.31896 104.144 8.03464 103.934 7.81593L103.214 7.47693" fill="#1A4D96"/>
<path d="M97.6442 9.6859C97.4942 9.29222 97.3843 9.0079 97.3443 8.77825L97.0342 8.15493L96.5042 7.6519L95.7842 7.47693L95.0042 7.6519L94.5342 8.15493L94.1643 8.88761L93.9143 9.6859L91.1643 17.2642L90.9043 17.9859L90.8542 18.4999L91.1643 19.2326L91.8843 19.5169L92.5543 19.2326C92.7043 19.0139 92.8643 18.6202 93.0643 18.0406L93.5843 16.5753H97.9342L98.4543 17.975L98.6643 18.653L98.9242 19.1779L99.2343 19.4513L99.6943 19.506L100.414 19.1779L100.724 18.4233C100.724 18.2046 100.624 17.7453 100.414 17.1767L97.6143 9.66403L97.6442 9.6859ZM95.7842 14.7709H94.1742L95.7343 9.97022L95.7842 10.014L97.3443 14.7709H95.7842Z" fill="#1A4D96"/>
<path d="M202.314 19.342L203.144 18.828L203.924 18.0407V18.3359C203.924 18.7406 203.974 19.0139 204.184 19.2436L204.854 19.5279L205.524 19.2436C205.684 19.0139 205.784 18.7406 205.784 18.2813V11.9934C205.784 11.545 205.684 11.1951 205.524 11.031L204.804 10.6811L204.074 11.031C203.864 11.2497 203.764 11.5341 203.764 11.9934V14.6616C203.764 15.6786 203.714 16.3457 203.614 16.6847L202.984 17.5267C202.674 17.6907 202.374 17.822 202.004 17.822L201.234 17.5267L200.764 16.7394C200.724 16.3894 200.664 15.9411 200.664 15.4927V11.9824C200.664 11.5341 200.564 11.2497 200.404 11.0201L199.694 10.6702L198.954 11.0201C198.754 11.1732 198.694 11.5231 198.694 11.9824V16.2801C198.694 17.1768 198.804 17.811 199.054 18.2594C199.264 18.6531 199.574 18.9921 199.934 19.167C200.294 19.3857 200.754 19.4951 201.224 19.4951C201.634 19.4951 201.994 19.4404 202.314 19.3201" fill="#1A4D96"/>
<path d="M235.894 12.7259L236.824 12.3869C237.394 12.3869 237.764 12.5619 237.914 12.9556C238.124 13.2946 238.224 13.8632 238.224 14.5412V18.2155C238.224 19.1232 238.534 19.5168 239.204 19.5168L239.924 19.2325C240.084 19.0138 240.184 18.6748 240.184 18.2155V14.0382C240.184 13.6336 240.184 13.2399 240.134 12.9556L239.814 12.0479C239.604 11.6105 239.294 11.2606 238.884 11.0418C238.524 10.8122 238.054 10.6919 237.544 10.6919L236.604 10.8013L235.824 11.2606L235.044 11.9932V8.76727C235.044 8.31891 234.994 8.03459 234.784 7.80494L234.064 7.46594L233.344 7.80494C233.194 8.02365 233.084 8.30798 233.084 8.76727V18.2155C233.084 19.1232 233.394 19.5168 234.064 19.5168L234.784 19.1888C235.004 18.9701 235.044 18.6748 235.044 18.2155V15.3286C235.044 14.4756 235.094 13.9179 235.244 13.6336C235.354 13.2399 235.564 12.9009 235.874 12.7259" fill="#1A4D96"/>
<path d="M303.824 14.8256C303.404 14.596 302.944 14.3773 302.314 14.2679C301.794 14.1039 301.384 13.9836 301.074 13.8742L300.354 13.5352L300.094 12.9666L300.464 12.3433C300.724 12.1683 301.024 12.0589 301.394 12.0589L302.224 12.2886L302.734 12.8025L303.204 13.3603L303.724 13.5352L304.394 13.3056L304.654 12.6932L304.394 12.0152L303.764 11.3372C303.504 11.1732 303.144 11.0091 302.724 10.8888C302.314 10.7685 301.844 10.7139 301.384 10.7139C300.714 10.7139 300.144 10.8342 299.674 11.0638C299.204 11.2825 298.844 11.6324 298.634 12.0261C298.374 12.3651 298.274 12.8244 298.274 13.2072C298.274 13.7211 298.384 14.1257 298.634 14.4538C298.894 14.8037 299.254 15.0881 299.674 15.2958C300.144 15.4708 300.654 15.7004 301.384 15.8645C301.954 16.0394 302.414 16.2035 302.674 16.3675C302.934 16.5534 303.084 16.8268 303.084 17.2205L302.674 17.8438C302.414 18.0625 302.104 18.1281 301.694 18.1281C301.224 18.1281 300.814 18.0625 300.544 17.8438C300.244 17.6798 299.984 17.3845 299.774 16.9908L299.464 16.5534L298.994 16.3675L298.424 16.5972L298.154 17.2095C298.154 17.6032 298.264 17.9532 298.524 18.2922C298.784 18.6858 299.144 18.9811 299.664 19.1998C300.174 19.4185 300.794 19.5279 301.524 19.5279C302.254 19.5279 302.874 19.4185 303.394 19.2435C303.914 19.0139 304.334 18.6749 304.594 18.2265C304.854 17.8329 305.004 17.3189 305.004 16.7065C305.004 16.3128 304.904 15.9629 304.694 15.6239C304.484 15.3505 304.224 15.0662 303.814 14.8365" fill="#1A4D96"/>
<path d="M213.924 11.195C213.454 10.856 212.874 10.681 212.214 10.681L211.584 10.7357L210.764 11.031C210.344 11.2497 209.984 11.5996 209.624 12.037V8.70172C209.624 8.29711 209.514 7.96905 209.354 7.7394L208.634 7.45508L207.964 7.79408C207.804 8.01279 207.704 8.35179 207.704 8.7564V18.2593C207.704 18.7186 207.804 19.0029 207.964 19.2217L208.634 19.506L209.354 19.2217C209.514 19.0029 209.624 18.7186 209.624 18.2593V18.0953L210.144 18.7186L210.614 19.1232L211.344 19.3966L211.594 19.506H212.174C212.694 19.506 213.154 19.3966 213.564 19.2217C213.984 19.0029 214.344 18.6639 214.604 18.2593C214.914 17.8766 215.124 17.3517 215.284 16.8487C215.444 16.28 215.544 15.6567 215.544 15.0443C215.544 14.1367 215.384 13.3384 215.134 12.715C214.874 12.037 214.464 11.534 213.944 11.195M212.994 17.1439C212.624 17.6579 212.164 17.8875 211.704 17.8875H211.594C211.074 17.8329 210.614 17.6032 210.254 17.1439C209.894 16.6956 209.734 16.0176 209.734 15.1646C209.734 14.5959 209.784 14.0929 209.944 13.6336C210.144 13.229 210.354 12.9009 210.664 12.6713L211.594 12.3214H211.704C212.064 12.3214 212.374 12.4417 212.624 12.6713C212.934 12.89 213.144 13.1634 213.304 13.6336C213.464 14.0382 213.514 14.5413 213.514 15.099C213.514 16.0066 213.354 16.6846 212.994 17.133" fill="#1A4D96"/>
<path d="M310.654 17.7016L310.184 17.8219L309.664 17.8875L309.204 17.7016L309.034 17.2642L308.984 16.4659V12.4526H309.404C309.764 12.4526 310.074 12.3979 310.284 12.2886L310.594 11.6652L310.404 11.1075L309.774 10.8779H308.984V9.41254L308.934 8.57051L308.674 8.05654L308.004 7.77222L307.534 7.89251L307.154 8.27525L307.004 8.78922V10.8888H306.794L306.064 11.1185L305.854 11.6762L306.064 12.2558L306.744 12.4745H306.994V16.6628C306.994 17.3298 307.044 17.8547 307.144 18.2922C307.254 18.6858 307.464 18.9811 307.774 19.2107C308.084 19.4185 308.544 19.5388 309.174 19.5388C309.844 19.5388 310.364 19.4841 310.714 19.2545C311.034 19.0904 311.234 18.8499 311.234 18.4562L311.034 17.9641L310.614 17.7235" fill="#1A4D96"/>
<path d="M295.534 10.681L294.804 11.031C294.654 11.2497 294.544 11.5449 294.544 11.9933V18.2156C294.544 18.6639 294.644 18.9483 294.804 19.1888L295.534 19.5169L296.264 19.2326C296.464 19.0139 296.514 18.6749 296.514 18.2265V11.9386C296.514 11.5559 296.464 11.2606 296.264 11.0419L295.534 10.692" fill="#1A4D96"/>
<path d="M217.914 7.47693L217.194 7.81593C217.044 8.03464 216.944 8.3299 216.944 8.76732V18.2156C216.944 18.6639 217.044 18.9482 217.194 19.1888L217.914 19.5169L218.634 19.2326C218.854 19.0139 218.894 18.6639 218.894 18.2156V8.76732C218.894 8.31896 218.844 8.03464 218.634 7.81593L217.914 7.47693Z" fill="#1A4D96"/>
<path d="M290.244 18.9045C290.604 18.7405 290.914 18.4999 291.174 18.2156C291.544 17.8219 291.854 17.4173 292.104 16.969C292.314 16.5206 292.464 15.941 292.624 15.3833C292.734 14.8147 292.784 14.1476 292.784 13.4587C292.784 11.3044 292.214 9.72967 291.074 8.71267C290.654 8.30806 290.184 8.02373 289.674 7.87064C289.254 7.75035 288.744 7.69567 288.174 7.64099H284.964C284.504 7.64099 284.134 7.76128 283.924 7.97999C283.724 8.1987 283.614 8.60331 283.614 9.10635V17.6579C283.614 18.0406 283.674 18.4015 283.724 18.6202L284.084 19.1233C284.284 19.2873 284.604 19.342 285.014 19.342H288.174C288.534 19.342 288.854 19.2873 289.154 19.2326C289.514 19.1779 289.884 19.0686 290.244 18.8936M288.274 17.4173H288.174L287.454 17.4829H285.794V9.51096H287.244L288.174 9.56564L288.894 9.7406C289.374 9.91557 289.774 10.3092 290.084 10.867C290.394 11.4356 290.554 12.2886 290.554 13.4696C290.554 15.1099 290.194 16.2363 289.464 16.9143L288.894 17.2642L288.274 17.4282" fill="#1A4D96"/>
<path d="M277.404 19.5168L278.014 19.2325L278.324 18.5654L278.174 18.0405C278.074 17.9421 277.864 17.7015 277.444 17.3625C277.034 17.0235 276.784 16.7501 276.574 16.5861C276.884 16.0721 277.094 15.6129 277.244 15.1754C277.404 14.7271 277.444 14.4318 277.444 14.1584L277.194 13.5351L276.624 13.2399L276.064 13.5351C275.904 13.6882 275.744 13.9835 275.584 14.4318C275.474 14.8364 275.324 15.1098 275.274 15.2301L274.754 14.6724L274.144 13.8741L273.474 12.9665C274.144 12.5072 274.714 12.0588 275.074 11.6214C275.434 11.2059 275.594 10.7028 275.594 10.0795C275.594 9.63115 275.484 9.23747 275.284 8.84379C275.024 8.45012 274.714 8.10018 274.244 7.82679C273.834 7.60808 273.314 7.48779 272.694 7.48779H272.644C272.024 7.48779 271.504 7.59715 271.044 7.82679C270.584 8.0455 270.264 8.39544 270.004 8.78912C269.804 9.19373 269.644 9.64208 269.644 10.1451C269.644 10.5497 269.754 10.9981 269.954 11.3371C270.114 11.7417 270.424 12.1791 270.784 12.6931C270.374 12.9227 270.004 13.1414 269.694 13.4258L268.914 14.1694L268.404 15.077C268.294 15.416 268.244 15.7441 268.244 16.1378C268.244 16.608 268.294 16.9907 268.514 17.3844C268.664 17.789 268.874 18.1827 269.184 18.467C269.544 18.806 269.914 19.1013 270.434 19.2544C270.894 19.4731 271.464 19.5387 272.034 19.5387H272.704L273.334 19.4293C273.744 19.32 274.104 19.156 274.414 18.9919C274.774 18.7623 275.084 18.478 275.404 18.139C276.124 18.7623 276.594 19.156 276.804 19.32L277.424 19.5496M271.854 9.22653L272.684 8.88754C273.044 8.88754 273.314 8.99689 273.514 9.22653L273.884 10.0248L273.514 10.9215C273.364 11.1074 273.054 11.3261 272.684 11.6214L272.484 11.7854L271.964 11.1074L271.644 10.5388L271.484 10.0358L271.854 9.23747M273.464 17.4172L272.794 17.8218H272.684L272.064 17.9421L271.334 17.7671L270.764 17.3079L270.354 16.6845L270.254 16.0175C270.254 15.5582 270.354 15.2192 270.624 14.8802C270.874 14.5959 271.234 14.2569 271.714 13.9725C272.074 14.4209 272.434 14.8802 272.694 15.2192L272.954 15.5582C273.324 15.9409 273.684 16.4002 274.154 16.8595L273.484 17.4281" fill="#1A4D96"/>
<path d="M251.284 14.5959V18.2265C251.284 18.6748 251.374 18.9592 251.594 19.1998L252.264 19.5278L252.994 19.2435C253.194 19.0248 253.304 18.6858 253.304 18.2374V14.1694C253.304 13.6992 253.254 13.3055 253.194 13.0212L252.934 12.1136C252.784 11.6652 252.474 11.3262 252.054 11.1075C251.634 10.8122 251.174 10.7029 250.604 10.7029C250.084 10.7029 249.624 10.8122 249.204 11.0528C248.794 11.2715 248.374 11.6652 248.014 12.1792V11.8948L247.914 11.2715L247.544 10.8122L247.074 10.7029L246.404 10.9981C246.244 11.2168 246.144 11.5012 246.144 11.9495V18.2374C246.144 18.6858 246.254 18.9701 246.454 19.2107L247.134 19.5388L247.864 19.2544C248.064 19.0357 248.174 18.6967 248.174 18.2484V15.5254C248.174 14.6178 248.224 14.0054 248.324 13.7101C248.424 13.3165 248.644 12.9775 248.944 12.7478C249.264 12.5291 249.564 12.4198 249.924 12.4198C250.454 12.4198 250.804 12.5838 251.014 12.9775C251.174 13.3165 251.284 13.8851 251.284 14.6178" fill="#1A4D96"/>
<path d="M296.264 7.805L295.534 7.53162L294.854 7.87062L294.544 8.60329L294.854 9.39065L295.534 9.68591L296.264 9.39065L296.514 8.60329L296.264 7.805Z" fill="#1A4D96"/>
<path d="M261.644 10.6811L260.974 10.9764C260.814 11.1841 260.724 11.4794 260.724 11.8731V12.1574C260.414 11.6325 259.994 11.2935 259.584 11.0201L258.744 10.7358L258.124 10.6702C257.654 10.6702 257.204 10.7905 256.834 10.9654C256.424 11.1185 256.064 11.4138 255.744 11.8075C255.494 12.1574 255.234 12.5948 255.074 13.1088C254.924 13.6227 254.814 14.2461 254.814 14.8585C254.814 15.7661 254.974 16.5644 255.224 17.1768C255.484 17.8657 255.894 18.3797 256.364 18.7624C256.884 19.167 257.454 19.3201 258.124 19.3201L258.744 19.2655L259.584 18.9374C259.944 18.7187 260.304 18.3797 260.624 17.9204C260.624 18.5984 260.624 19.1014 260.564 19.4404L260.414 20.359L259.794 21.0261C259.534 21.1354 259.174 21.201 258.754 21.2448H258.604L257.924 21.1354L257.404 20.9058L257.054 20.5668L256.684 20.1075L255.964 19.7247L255.344 19.9435L255.084 20.6215L255.564 21.6494C255.814 21.9884 256.234 22.218 256.794 22.4367C257.324 22.6664 257.934 22.7867 258.614 22.7867H258.764C259.444 22.732 260.014 22.6664 260.524 22.4914C260.994 22.3274 261.404 22.0977 261.714 21.7478C262.024 21.4197 262.284 20.9714 262.394 20.4684C262.544 19.9435 262.604 19.3201 262.604 18.5984V12.2558C262.604 11.7528 262.554 11.3482 262.444 11.0748C262.284 10.7795 262.024 10.6702 261.664 10.6702M260.404 16.5863C260.194 16.9799 259.934 17.2643 259.674 17.4283L258.744 17.7017C258.174 17.7017 257.714 17.483 257.354 17.0237C256.994 16.5863 256.834 15.952 256.834 15.0553C256.834 14.2133 256.994 13.5353 257.354 13.0104C257.654 12.562 258.124 12.3324 258.694 12.3324H258.744C259.314 12.3324 259.784 12.562 260.154 13.065C260.464 13.579 260.674 14.257 260.674 15.099C260.674 15.6786 260.574 16.1707 260.414 16.5753" fill="#1A4D96"/>
<path d="M366.154 13.0103L365.904 12.1026C365.744 11.6543 365.444 11.3044 365.024 11.0856C364.614 10.7904 364.144 10.681 363.564 10.681C363.054 10.681 362.594 10.8013 362.164 11.031C361.754 11.2497 361.334 11.6434 360.964 12.1573V11.8839L360.864 11.2606L360.504 10.8013L360.034 10.681L359.364 10.9763C359.204 11.1841 359.104 11.4793 359.104 11.9277V18.2046C359.104 18.653 359.204 18.9373 359.414 19.167L360.094 19.495L360.814 19.2107C361.024 18.9811 361.124 18.6421 361.124 18.1937V15.4817C361.124 14.5741 361.174 13.9507 361.284 13.6664C361.384 13.2727 361.594 12.9337 361.904 12.7041C362.214 12.4744 362.524 12.3651 362.884 12.3651C363.394 12.3651 363.764 12.5291 363.974 12.9228C364.134 13.2618 364.224 13.8304 364.224 14.5631V18.1937C364.224 18.6421 364.334 18.9264 364.534 19.156L365.204 19.4841L365.934 19.1998C366.134 18.9701 366.244 18.6311 366.244 18.1828V14.1148C366.244 13.6445 366.194 13.2509 366.144 12.9665" fill="#1A4D96"/>
<path d="M169.204 16.9143C169.414 17.4173 169.674 17.9422 170.034 18.3249C170.394 18.7295 170.814 19.0029 171.284 19.2326C171.744 19.4513 172.314 19.5169 172.884 19.5169H172.934C173.504 19.5169 174.074 19.4622 174.534 19.2326C175.054 19.0139 175.464 18.7295 175.784 18.3249C176.144 17.9313 176.404 17.472 176.614 16.9143C176.764 16.3456 176.874 15.777 176.874 15.099C176.874 14.4756 176.764 13.8523 176.614 13.2837C176.404 12.7806 176.144 12.3214 175.784 11.9277C175.474 11.5449 175.064 11.195 174.534 11.031C174.074 10.7904 173.504 10.681 172.934 10.681H172.884C172.304 10.681 171.744 10.7904 171.284 11.031C170.774 11.195 170.354 11.5449 170.034 11.873C169.674 12.2667 169.414 12.7806 169.204 13.2837L169.104 13.6774C169.004 14.082 168.944 14.585 168.944 15.099C168.944 15.6129 169.004 16.116 169.104 16.5753L169.204 16.9033M171.174 13.6336C171.334 13.1743 171.584 12.8463 171.894 12.6057C172.154 12.387 172.514 12.2667 172.884 12.2667H172.934C173.504 12.2667 173.974 12.551 174.334 13.054C174.694 13.5243 174.904 14.246 174.904 15.099C174.904 16.0066 174.694 16.6737 174.334 17.1876C173.974 17.6469 173.504 17.9313 172.934 17.9313H172.884C172.524 17.9313 172.154 17.811 171.844 17.5813C171.584 17.3517 171.334 17.0127 171.174 16.619C171.014 16.1597 170.964 15.6567 170.964 15.088C170.964 14.5194 171.014 14.0164 171.174 13.6227" fill="#1A4D96"/>
<path d="M319.574 7.53162L318.844 7.87062L318.534 8.60329L318.844 9.40158L319.574 9.68591L320.254 9.40158L320.554 8.60329L320.254 7.805L319.574 7.53162Z" fill="#1A4D96"/>
<path d="M157.034 18.2811C157.034 18.7295 157.084 19.0138 157.284 19.2325L157.964 19.5168L158.634 19.2325C158.794 19.0138 158.894 18.7295 158.894 18.2811V8.71259C158.894 8.30797 158.784 7.97991 158.634 7.75027L157.964 7.46594L157.244 7.80494C157.094 8.02365 157.044 8.37359 157.044 8.82194V12.037C156.624 11.5996 156.264 11.2496 155.844 11.0309L155.014 10.7357L154.404 10.681C153.414 10.681 152.634 11.0856 152.014 11.8183C151.394 12.6056 151.084 13.6773 151.084 15.0442C151.084 15.6676 151.194 16.2799 151.344 16.7939C151.494 17.3626 151.704 17.8765 152.014 18.2702C152.274 18.6639 152.634 19.0029 153.054 19.2216C153.464 19.3966 153.874 19.5059 154.404 19.5059L155.014 19.4512L155.374 19.3856L156.214 18.8826L157.044 18.0952V18.2593L157.034 18.2811ZM156.614 16.6299C156.464 17.0782 156.254 17.3626 155.944 17.5266L155.004 17.8765C154.644 17.8765 154.334 17.7562 154.014 17.5266C153.704 17.3079 153.514 17.0236 153.354 16.6299C153.184 16.1815 153.094 15.6785 153.094 15.0989C153.094 14.5193 153.144 14.0382 153.304 13.6336C153.514 13.1743 153.714 12.9009 153.974 12.6712C154.284 12.4525 154.594 12.3322 154.954 12.3322H155.004L155.944 12.6712C156.254 12.8353 156.454 13.1743 156.614 13.5789C156.824 14.0382 156.874 14.5412 156.874 15.0989C156.874 15.7222 156.824 16.2253 156.614 16.6299Z" fill="#1A4D96"/>
<path d="M328.794 11.195C328.284 10.856 327.704 10.681 327.034 10.681L326.464 10.7357C326.094 10.7904 325.844 10.8998 325.584 11.031C325.224 11.2497 324.804 11.5996 324.444 12.037V8.70172C324.444 8.29711 324.334 7.96905 324.184 7.7394L323.504 7.45508L322.784 7.79408C322.624 8.01279 322.574 8.35179 322.574 8.7564V18.2593C322.574 18.7186 322.624 19.0029 322.834 19.2217L323.504 19.506L324.184 19.2217C324.334 19.0029 324.444 18.7186 324.444 18.2593V18.0953L324.964 18.7186L325.484 19.1232L326.164 19.3966L326.464 19.506H327.034C327.494 19.506 327.964 19.3966 328.374 19.2217C328.794 19.0029 329.154 18.6639 329.464 18.2593C329.714 17.8766 329.984 17.3517 330.134 16.8487C330.284 16.28 330.344 15.6567 330.344 15.0443C330.344 14.1367 330.234 13.3384 329.934 12.715C329.664 12.037 329.254 11.534 328.784 11.195M327.804 17.1439C327.444 17.6579 327.034 17.8875 326.514 17.8875H326.454C325.894 17.8329 325.414 17.6032 325.054 17.1439C324.694 16.6956 324.534 16.0176 324.534 15.1646C324.534 14.5959 324.644 14.0929 324.794 13.6336C324.954 13.229 325.214 12.9009 325.464 12.6713C325.774 12.4417 326.074 12.3214 326.444 12.3214H326.504C326.854 12.3214 327.174 12.4417 327.484 12.6713C327.744 12.89 327.954 13.1634 328.114 13.6336C328.264 14.0382 328.364 14.5413 328.364 15.099C328.364 16.0066 328.164 16.6846 327.794 17.133" fill="#1A4D96"/>
<path d="M229.104 17.822C228.854 18.0407 228.534 18.1063 228.124 18.1063C227.654 18.1063 227.244 18.0516 226.984 17.822C226.664 17.647 226.454 17.3627 226.254 16.969L225.944 16.5316L225.424 16.3457L224.864 16.5862L224.604 17.1986C224.604 17.5923 224.754 17.9313 224.954 18.2703C225.214 18.6749 225.584 18.9592 226.094 19.1889C226.614 19.3967 227.234 19.517 227.964 19.517C228.694 19.517 229.354 19.3967 229.874 19.2326C230.394 19.0139 230.754 18.6749 231.064 18.2266C231.324 17.8329 231.434 17.308 231.434 16.6956C231.434 16.3019 231.324 15.9629 231.124 15.6239C230.924 15.3396 230.654 15.0553 230.244 14.8256C229.884 14.596 229.354 14.3773 228.744 14.2679C228.224 14.1039 227.814 13.9836 227.504 13.8633L226.834 13.5243L226.574 12.9557L226.884 12.3323C227.144 12.1683 227.454 12.048 227.814 12.048C228.174 12.048 228.434 12.1574 228.644 12.2667L229.164 12.7807L229.674 13.3493L230.194 13.5243L230.814 13.2947L231.064 12.6823L230.864 12.0043L230.184 11.3153C229.914 11.1513 229.614 10.9873 229.204 10.867C228.784 10.7576 228.314 10.692 227.804 10.692C227.124 10.692 226.564 10.8014 226.094 11.042C225.624 11.2607 225.264 11.6106 225.054 12.0043C224.794 12.3433 224.694 12.7916 224.694 13.1853C224.694 13.6883 224.794 14.093 225.054 14.432C225.314 14.771 225.674 15.0553 226.094 15.274C226.564 15.449 227.124 15.6677 227.804 15.8426C228.424 16.0176 228.844 16.1707 229.094 16.3457C229.344 16.5316 229.514 16.805 229.514 17.1986L229.094 17.822" fill="#1A4D96"/>
<path d="M167.084 9.39064C167.184 9.17193 167.454 9.05164 167.804 9.05164H168.274L168.684 9.11725L169.094 8.88761L169.304 8.37364L169.094 7.92528C168.834 7.58628 168.324 7.47693 167.544 7.47693C166.864 7.47693 166.354 7.53161 165.984 7.76125C165.624 7.92528 165.364 8.20961 165.154 8.61422C164.994 8.99696 164.954 9.57654 164.954 10.2545V10.8669H164.484C163.814 10.8669 163.444 11.1403 163.444 11.6543L163.704 12.2339L164.374 12.4526H164.954V18.2265C164.954 18.6749 165.054 18.9592 165.204 19.1998L165.934 19.5278L166.664 19.1998C166.864 18.9701 166.924 18.6858 166.924 18.2265V12.4526H167.444C167.804 12.4526 168.064 12.3979 168.264 12.3432L168.584 11.6652C168.584 11.1513 168.174 10.8779 167.444 10.8779H166.924V10.3748C166.924 9.98115 166.984 9.64215 167.074 9.41251" fill="#1A4D96"/>
<path d="M243.864 7.805L243.194 7.53162L242.474 7.87062L242.164 8.60329L242.474 9.39065L243.194 9.68591L243.864 9.39065L244.174 8.60329L243.864 7.805Z" fill="#1A4D96"/>
<path d="M319.524 10.681L318.854 11.031C318.644 11.2497 318.544 11.5449 318.544 11.9933V18.2156C318.544 18.6639 318.644 18.9483 318.854 19.1888L319.524 19.5169L320.254 19.2326C320.464 19.0139 320.554 18.6749 320.554 18.2265V11.9386C320.554 11.5559 320.454 11.2606 320.254 11.0419L319.524 10.692" fill="#1A4D96"/>
<path d="M316.884 11.042C316.474 10.8014 316.054 10.692 315.644 10.692C315.234 10.692 314.924 10.8014 314.664 11.042C314.404 11.2607 314.144 11.6106 313.934 12.059C313.884 11.6106 313.834 11.2607 313.684 11.042C313.524 10.8014 313.314 10.692 312.954 10.692C312.334 10.692 312.024 11.195 312.024 12.1683V18.2266C312.024 18.6749 312.074 19.0249 312.294 19.2436L313.014 19.5279L313.734 19.2436C313.894 19.0249 313.994 18.6749 313.994 18.2266V16.4113C313.994 15.7223 313.994 15.2302 314.044 14.7819C314.094 14.2679 314.144 13.8742 314.244 13.5899L314.714 12.8026L315.384 12.5729L316.164 12.737L316.684 12.8572L317.194 12.6276L317.454 11.9496C317.454 11.5669 317.244 11.2716 316.884 11.0529" fill="#1A4D96"/>
<path d="M243.144 10.681L242.474 11.031C242.264 11.2497 242.164 11.5449 242.164 11.9933V18.2156C242.164 18.6639 242.264 18.9483 242.474 19.1888L243.144 19.5169L243.864 19.2326C244.074 19.0139 244.174 18.6749 244.174 18.2265V11.9386C244.174 11.5559 244.074 11.2606 243.864 11.0419L243.144 10.692" fill="#1A4D96"/>
<path d="M183.344 11.042C182.934 10.8014 182.514 10.692 182.104 10.692C181.694 10.692 181.384 10.8014 181.124 11.042C180.864 11.2607 180.604 11.6106 180.344 12.059C180.344 11.6106 180.294 11.2607 180.134 11.042L179.414 10.692C178.794 10.692 178.424 11.195 178.424 12.1683V18.2266C178.424 18.6749 178.524 19.0249 178.734 19.2436L179.414 19.5279L180.134 19.2436C180.344 19.0249 180.444 18.6749 180.444 18.2266V16.4113C180.444 15.7223 180.444 15.2302 180.494 14.7819C180.554 14.2679 180.604 13.8742 180.704 13.5899L181.124 12.8026L181.844 12.5729L182.574 12.737L183.144 12.8572L183.664 12.6276L183.934 11.9496C183.934 11.5669 183.724 11.2716 183.354 11.0529" fill="#1A4D96"/>
<path d="M161.994 45.3902H142.654C140.424 45.3902 139.304 45.6089 136.214 43.7062C134.574 45.1059 132.974 44.4498 131.824 45.3246C131.114 45.7292 129.894 46.8884 129.894 48.7912C129.894 53.0888 132.534 53.2419 134.794 53.2419C136.364 53.2419 137.734 52.8264 138.594 51.8968V52.9904C138.594 53.9636 137.494 55.7024 134.344 55.7024C131.194 55.7024 127.424 54.3901 127.334 49.1848C127.334 45.1934 129.914 42.4814 133.894 41.9893C132.494 39.9881 130.124 38.3368 128.784 37.9869C128.784 37.4839 128.934 36.1716 128.934 35.3405C131.214 34.2798 133.244 32.2567 135.974 32.2567C139.414 32.2567 141.464 34.5969 142.834 35.3843C142.204 36.9699 140.334 40.4365 138.264 42.2408C138.944 42.6782 140.314 42.7657 140.934 42.7657H161.984V45.3902H161.994ZM136.244 40.688C137.764 39.3757 138.884 37.7901 140.254 35.7889C138.794 35.0125 137.494 34.6734 136.364 34.6734C133.754 34.6734 132.034 36.2263 131.374 36.5434C133.164 37.4729 134.584 39.6928 136.244 40.688ZM163.834 45.3902H143.374V42.7657H163.174C164.574 42.7657 165.344 42.1096 165.434 40.4365V34.7609H166.234C167.574 34.7609 167.984 35.3515 167.984 36.8496V39.3757C167.984 42.3392 167.094 45.1715 163.824 45.3902H163.834ZM161.994 48.7912C161.994 47.9491 162.644 47.2821 163.444 47.2821C164.244 47.2821 164.874 47.9382 164.874 48.7912C164.874 49.6441 164.244 50.2893 163.444 50.2893C162.644 50.2893 161.994 49.6332 161.994 48.7912ZM165.374 48.7912C165.374 47.9491 166.024 47.2821 166.864 47.2821C167.604 47.2821 168.284 47.9382 168.284 48.7912C168.284 49.6441 167.604 50.2893 166.864 50.2893C166.034 50.2893 165.374 49.6332 165.374 48.7912ZM176.734 45.5433C176.734 45.9479 176.734 44.7341 176.734 46.8884C176.734 49.0427 175.014 50.847 172.674 50.847C171.454 50.847 170.624 50.3112 170.624 49.4145V48.6927C170.864 48.7255 171.094 48.7584 171.334 48.7584C174.684 48.7584 174.184 46.7244 174.184 42.6454V34.7281H174.984C176.324 34.7281 176.734 35.3186 176.734 36.8168V45.5433ZM173.974 31.5787C173.974 30.7367 174.624 30.0805 175.454 30.0805C176.194 30.0805 176.874 30.7367 176.874 31.5787C176.874 32.4207 176.194 33.0769 175.454 33.0769C174.624 33.0769 173.974 32.4317 173.974 31.5787ZM208.254 45.3902H191.994C191.454 48.3756 188.694 50.847 184.894 50.847C183.524 50.847 182.434 50.4971 182.434 49.4145V48.1678C182.914 48.2663 183.414 48.2881 183.914 48.2881C186.474 48.2881 189.114 47.3149 189.494 45.3902C185.864 45.259 181.004 44.3623 181.004 38.9711C181.004 34.7281 183.204 32.1364 186.644 32.1364C189.884 32.1364 192.104 34.6953 192.104 38.5009C192.104 42.6782 192.104 42.711 192.144 42.7657H208.254V45.3902ZM189.784 42.7657C189.784 38.2165 190.024 34.5422 186.374 34.5422C184.564 34.5422 183.374 36.106 183.374 38.5337C183.374 42.4048 186.164 42.7657 189.784 42.7657ZM213.154 40.5895C213.214 42.1424 214.044 42.7657 215.414 42.7657H216.094V45.3902H214.754C213.534 45.3246 212.554 44.92 211.874 44.1983C211.164 44.92 210.214 45.3246 208.994 45.3902H207.664V42.7657H208.344C209.734 42.7657 210.514 42.1096 210.604 40.4365V34.7609H211.404C212.734 34.7609 213.154 35.3515 213.154 36.8496V40.6005V40.5895ZM208.494 31.5459C208.494 30.7039 209.144 30.0477 209.954 30.0477C210.764 30.0477 211.374 30.7039 211.374 31.5459C211.374 32.3879 210.754 33.0441 209.954 33.0441C209.154 33.0441 208.494 32.377 208.494 31.5459ZM211.874 31.5459C211.874 30.7039 212.534 30.0477 213.364 30.0477C214.104 30.0477 214.784 30.7039 214.784 31.5459C214.784 32.3879 214.104 33.0441 213.364 33.0441C212.534 33.0441 211.874 32.377 211.874 31.5459ZM217.144 45.3902H215.504V42.7657H216.484C217.884 42.7657 218.654 42.1096 218.744 40.4365V26.614H219.554C220.884 26.614 221.294 27.2045 221.294 28.7027V39.3757C221.294 42.3392 220.404 45.1715 217.144 45.3902ZM227.604 45.3902C226.654 45.3902 225.994 44.8325 225.994 43.5203V26.5812H227.174C227.804 26.5812 228.484 27.117 228.484 27.8606V45.3793H227.594L227.604 45.3902ZM244.364 40.7098C244.364 43.0172 244.014 45.0184 243.834 45.6417C242.974 48.6053 240.384 50.847 236.734 50.847C235.404 50.847 234.304 50.4971 234.304 49.4145V48.3865C234.784 48.5178 235.344 48.5724 235.934 48.5724C238.874 48.5724 240.684 47.2274 241.394 45.3902C237.774 45.2918 232.904 44.3623 232.904 38.9711C232.904 34.7281 235.104 32.1364 238.554 32.1364C243.334 32.1364 244.374 36.8168 244.374 40.7098H244.364ZM241.694 42.7657C241.694 38.2165 241.934 34.5422 238.284 34.5422C236.464 34.5422 235.284 36.106 235.284 38.5337C235.284 42.4048 238.074 42.7657 241.694 42.7657ZM263.894 45.2918C263.864 45.3902 263.834 45.4558 263.834 45.5433V46.9212C263.834 48.9771 262.294 50.8798 259.954 50.8798C258.724 50.8798 257.894 50.344 257.894 49.4473V48.7365C258.134 48.7693 258.374 48.8021 258.604 48.8021C261.854 48.8021 261.454 46.7462 261.454 42.6564V34.7391H262.254C263.594 34.7391 264.014 35.3296 264.014 36.8277V42.5033C264.364 42.6892 264.784 42.7766 265.344 42.7766H275.014V45.4012H264.694C264.394 45.4012 264.124 45.3684 263.884 45.3027L263.894 45.2918ZM274.584 42.7657H277.904V33.1644H278.714C280.054 33.1644 280.464 33.7549 280.464 35.253V42.7657H283.134C284.534 42.7657 285.304 42.1096 285.394 40.4365V33.1644H286.194C287.534 33.1644 287.954 33.7549 287.954 35.253C287.954 35.253 287.954 40.7098 287.974 40.7755C287.954 41.2457 287.884 41.6831 287.794 42.0549C288.744 42.6454 289.664 42.8641 290.464 42.8641C292.274 42.8641 292.784 41.869 292.834 40.4365V33.1644H293.634C294.974 33.1644 295.394 33.7549 295.394 35.253V40.5895C295.454 42.1424 296.284 42.7657 297.654 42.7657H298.324V45.3902H296.994C295.774 45.3246 294.614 44.7997 293.934 44.078C293.194 44.92 292.184 45.3902 290.904 45.3902C287.874 45.3902 286.744 44.3295 286.594 44.1983C285.874 44.9528 284.954 45.3574 283.774 45.3902H274.564V42.7657H274.584ZM283.344 28.4512C283.344 27.6201 283.994 26.953 284.804 26.953C285.614 26.953 286.234 27.6091 286.234 28.4512C286.234 29.2932 285.604 29.9493 284.804 29.9493C284.004 29.9493 283.344 29.2932 283.344 28.4512ZM284.984 25.2471C284.984 24.3941 285.634 23.7489 286.464 23.7489C287.204 23.7489 287.894 24.3941 287.894 25.2471C287.894 26.1 287.214 26.7452 286.464 26.7452C285.634 26.7452 284.984 26.0891 284.984 25.2471ZM286.734 28.4512C286.734 27.6201 287.394 26.953 288.214 26.953C288.964 26.953 289.644 27.6091 289.644 28.4512C289.644 29.2932 288.954 29.9493 288.214 29.9493C287.384 29.9493 286.734 29.2932 286.734 28.4512ZM303.394 40.5895C303.454 42.1424 304.284 42.7657 305.654 42.7657H306.334V45.3902H304.994C303.774 45.3246 302.794 44.92 302.114 44.1983C301.394 44.92 300.444 45.3246 299.234 45.3902H297.894V42.7657H298.574C299.974 42.7657 300.744 42.1096 300.834 40.4365V34.7609H301.634C302.974 34.7609 303.384 35.3515 303.384 36.8496V40.6005L303.394 40.5895ZM300.604 31.5787C300.604 30.7367 301.264 30.0805 302.094 30.0805C302.834 30.0805 303.514 30.7367 303.514 31.5787C303.514 32.4207 302.834 33.0769 302.094 33.0769C301.264 33.0769 300.604 32.4317 300.604 31.5787ZM311.244 40.5895C311.304 42.1424 312.134 42.7657 313.504 42.7657H315.924V45.3902H312.854C311.644 45.3246 310.664 44.92 309.974 44.1983C309.264 44.92 308.314 45.3246 307.094 45.3902H305.754V42.7657H306.434C307.834 42.7657 308.604 42.1096 308.694 40.4365V26.5921H309.504C310.834 26.5921 311.254 27.1936 311.254 28.6808V40.6005L311.244 40.5895ZM316.954 45.3902H313.574V42.7657H316.294C317.684 42.7657 318.464 42.1096 318.554 40.4365V26.614H319.354C320.694 26.614 321.114 27.2045 321.114 28.7027V39.3757C321.114 42.3392 320.224 45.1715 316.954 45.3902ZM345.494 42.7657V45.3902H335.424C334.704 45.3902 334.204 44.6685 334.204 44.0124V42.7657H342.964C342.844 40.5895 341.574 36.6528 339.374 35.6904C338.414 35.2858 337.614 35.1655 337.034 35.1655C336.054 35.1655 335.514 35.4717 335.514 35.4717L335.934 34.6625C336.464 33.5908 337.444 33.0003 338.954 33.0003C338.954 33.0003 340.504 33.0003 341.924 34.0611C344.394 35.592 345.494 40.174 345.494 42.7548V42.7657ZM351.794 45.3902C350.844 45.3902 350.184 44.8325 350.184 43.5203V26.5812H351.374C351.994 26.5812 352.684 27.117 352.684 27.8606V45.3793H351.794V45.3902Z" fill="#1A4D96"/>
<path d="M360.004 26.7124L360.214 28.9214C360.274 29.5775 360.684 29.9602 361.104 29.9602C361.404 29.9602 361.794 29.7415 361.794 29.1838C361.764 28.648 361.674 27.959 361.614 27.281C361.584 26.8108 361.884 26.7561 362.334 26.7561L362.574 29.0307C362.624 29.654 362.904 29.9712 363.374 29.9712C363.844 29.9712 364.174 29.5338 364.084 28.7901C363.894 27.1608 363.964 27.5654 363.934 27.1936C363.934 26.8546 364.174 26.789 364.584 26.789L364.814 29.162C364.814 29.8181 364.514 30.5289 363.514 30.6273C363.224 30.6273 362.654 30.5945 362.204 30.1024C361.974 30.4414 361.554 30.5945 361.144 30.5945C360.194 30.5945 359.564 29.8181 359.484 28.8558C359.334 27.292 359.364 27.2592 359.364 27.2264C359.364 26.9202 359.634 26.7343 359.894 26.7343H360.014L360.004 26.7124Z" fill="#1A4D96"/>
<path d="M368.554 40.7098C368.554 43.0172 368.204 45.0184 368.024 45.6417C367.164 48.6052 364.584 50.847 360.924 50.847C359.584 50.847 358.494 50.4971 358.494 49.4145V48.3865C358.964 48.5178 359.534 48.5724 360.124 48.5724C363.064 48.5724 364.874 47.2274 365.594 45.3902C361.974 45.2918 357.104 44.3623 357.104 38.9711C357.104 34.7281 359.304 32.1364 362.744 32.1364C367.524 32.1364 368.564 36.8168 368.564 40.7098H368.554ZM365.884 42.7657C365.884 38.2165 366.124 34.5422 362.464 34.5422C360.654 34.5422 359.474 36.106 359.474 38.5337C359.474 42.4048 362.264 42.7657 365.884 42.7657ZM376.734 45.2918C376.704 45.3902 376.664 45.4558 376.664 45.5433V46.9212C376.664 48.977 375.124 50.8798 372.784 50.8798C371.554 50.8798 370.734 50.344 370.734 49.4473V48.7365C370.964 48.7693 371.204 48.8021 371.444 48.8021C374.684 48.8021 374.304 46.7462 374.304 42.6563V34.739H375.104C376.434 34.739 376.854 35.3296 376.854 36.8277V42.5032C377.214 42.6891 377.624 42.7766 378.184 42.7766H388.424V45.4011H377.534C377.234 45.4011 376.974 45.3683 376.734 45.3027V45.2918ZM389.474 45.3902H387.844V42.7657H388.824C390.214 42.7657 390.984 42.1096 391.084 40.4364V26.614H391.884C393.214 26.614 393.634 27.2045 393.634 28.7027V39.3757C393.634 42.3392 392.744 45.1715 389.474 45.3902ZM398.204 45.3902C397.244 45.3902 396.604 44.8325 396.604 43.5202V26.5812H397.794C398.414 26.5812 399.094 27.117 399.094 27.8606V45.3793H398.204V45.3902Z" fill="#1A4D96"/>
<path d="M299.754 23.4646L299.964 25.6736C300.024 26.3297 300.434 26.7124 300.854 26.7124C301.154 26.7124 301.544 26.4937 301.544 25.9251C301.514 25.3892 301.424 24.7112 301.364 24.0223C301.334 23.5521 301.634 23.4974 302.074 23.4974L302.314 25.772C302.374 26.3953 302.644 26.7124 303.124 26.7124C303.604 26.7124 303.924 26.275 303.834 25.5314C303.654 23.902 303.714 24.3176 303.684 23.9348C303.684 23.5958 303.924 23.5302 304.334 23.5302L304.574 25.8923C304.574 26.5484 304.274 27.2592 303.274 27.3576C302.984 27.3576 302.414 27.3248 301.964 26.8327C301.734 27.1717 301.314 27.3248 300.904 27.3248C299.954 27.3248 299.334 26.5484 299.244 25.5861C299.094 24.0223 299.124 23.9895 299.124 23.9567C299.124 23.6505 299.394 23.4646 299.654 23.4646H299.774H299.754Z" fill="#1A4D96"/>
<path d="M208.324 23.2568L208.534 25.4658C208.594 26.1219 209.004 26.4937 209.424 26.4937C209.724 26.4937 210.114 26.275 210.114 25.7173C210.084 25.1815 209.994 24.4925 209.934 23.8145C209.904 23.3443 210.194 23.2896 210.644 23.2896L210.884 25.5642C210.934 26.1875 211.214 26.5047 211.684 26.5047C212.154 26.5047 212.484 26.0673 212.394 25.3236C212.204 23.6943 212.274 24.0989 212.244 23.7271C212.244 23.3881 212.484 23.3224 212.894 23.3224L213.134 25.6845C213.134 26.3406 212.834 27.0514 211.824 27.1499C211.534 27.1499 210.964 27.1171 210.514 26.625C210.284 26.964 209.874 27.1171 209.454 27.1171C208.504 27.1171 207.884 26.3406 207.794 25.3783C207.644 23.8145 207.674 23.7817 207.674 23.7489C207.674 23.4427 207.944 23.2568 208.204 23.2568H208.324Z" fill="#1A4D96"/>
<path d="M203.804 68.4532C204.194 68.4532 204.484 68.5517 204.664 68.7594C204.844 68.9672 204.944 69.2843 204.944 69.7327V77.3766C204.884 77.9999 204.764 78.5358 204.594 79.006C204.374 79.6293 204.064 80.1214 203.674 80.4932C203.294 80.8431 202.844 81.1056 202.334 81.2915C201.004 81.7399 199.594 81.718 198.104 81.2149C197.604 81.04 197.164 80.7775 196.794 80.3948C196.424 80.0339 196.124 79.5418 195.904 78.9294C195.684 78.317 195.584 77.5734 195.584 76.6877V70.8153C195.584 70.367 195.674 70.0389 195.864 69.842C196.054 69.6343 196.344 69.5249 196.724 69.5249C197.104 69.5249 197.374 69.6343 197.574 69.842C197.754 70.0498 197.854 70.367 197.854 70.8153V76.5892C197.854 77.1798 197.954 77.6609 198.144 78.0327C198.504 78.7107 199.224 79.0825 200.304 79.1372C201.394 79.181 202.104 78.842 202.424 78.1093C202.584 77.7703 202.654 77.2891 202.654 76.6658V69.7327C202.654 69.2953 202.754 68.9672 202.944 68.7594C203.124 68.5517 203.414 68.4532 203.804 68.4532ZM199.974 64.3306C200.194 64.3306 200.404 64.3852 200.604 64.5055C200.784 64.6258 200.924 64.7789 201.044 64.9867C201.154 65.1945 201.204 65.4132 201.204 65.6428C201.204 65.8725 201.154 66.113 201.044 66.3318C200.944 66.5286 200.804 66.6817 200.604 66.8129C200.414 66.9332 200.204 66.9879 199.974 66.9879C199.744 66.9879 199.554 66.9332 199.364 66.8129C199.184 66.6708 199.034 66.5177 198.944 66.3318C198.834 66.124 198.784 65.8943 198.784 65.6428C198.784 65.4241 198.834 65.2054 198.944 64.9867C199.044 64.7789 199.184 64.6258 199.364 64.5055C199.554 64.3852 199.764 64.3306 199.974 64.3306Z" fill="#1A4D96"/>
<path d="M209.744 68.5625C210.304 68.5625 210.824 68.6937 211.314 68.9452C211.754 69.1858 212.124 69.5358 212.434 69.9732C213.024 70.7824 213.374 71.865 213.484 73.232C213.554 74.1068 213.594 74.7957 213.604 75.3097H214.974V77.6608H214.434C214.014 77.6608 213.714 77.5296 213.544 77.2781C213.474 77.9451 213.354 78.5466 213.164 79.0715C212.934 79.6948 212.614 80.1979 212.214 80.5697C211.444 81.3023 210.314 81.696 208.834 81.7398C208.094 81.7726 207.584 81.6741 207.314 81.4336C207.154 81.3023 207.054 81.1492 206.994 80.9524C206.924 80.7665 206.904 80.5587 206.934 80.3072C206.974 79.9245 207.094 79.6401 207.294 79.4652C207.484 79.2902 207.774 79.2137 208.154 79.2137H208.434C209.124 79.2137 209.604 79.1809 209.884 79.1152C210.344 78.984 210.684 78.6669 210.924 78.142C211.014 77.9561 211.084 77.7046 211.134 77.3765C210.724 77.5733 210.264 77.6608 209.744 77.6608C209.144 77.6608 208.614 77.5296 208.164 77.2781C207.734 77.0375 207.364 76.6876 207.034 76.2392C206.724 75.8018 206.494 75.3097 206.344 74.7739C206.184 74.2271 206.104 73.6584 206.104 73.0461C206.104 72.4774 206.184 71.9197 206.344 71.351C206.504 70.7715 206.734 70.3012 207.034 69.9294C207.334 69.503 207.714 69.1749 208.164 68.9343C208.634 68.6937 209.154 68.5625 209.744 68.5625ZM209.744 70.7168C209.484 70.7387 209.264 70.8043 209.104 70.9246C208.944 71.0339 208.794 71.1979 208.664 71.4167C208.544 71.6244 208.464 71.865 208.404 72.1384C208.344 72.4009 208.314 72.6742 208.314 72.9586C208.314 73.2101 208.344 73.4944 208.404 73.8115C208.464 74.1068 208.554 74.3911 208.664 74.6426C208.784 74.9051 208.924 75.1238 209.104 75.2769C209.264 75.4519 209.484 75.5284 209.744 75.5284C210.004 75.5284 210.204 75.4628 210.374 75.3206C210.564 75.1675 210.714 74.9926 210.814 74.7739C210.934 74.5551 211.014 74.3036 211.074 74.0193C211.124 73.7241 211.144 73.4507 211.144 73.1991C211.144 72.9476 211.114 72.6742 211.074 72.3571C211.034 72.1384 210.944 71.865 210.814 71.5588C210.684 71.2854 210.544 71.0777 210.374 70.9464C210.194 70.7933 209.984 70.7168 209.744 70.7059V70.7168Z" fill="#1A4D96"/>
<path d="M218.424 77.6608H214.374V75.3097H218.424V77.6608Z" fill="#1A4D96"/>
<path d="M227.284 64.5055C227.474 64.5492 227.654 64.6476 227.824 64.8117C227.984 64.9538 228.094 65.1179 228.164 65.3256C228.254 65.5881 228.254 65.8287 228.174 66.0474C228.094 66.277 227.954 66.4848 227.754 66.6707C227.154 67.1956 226.614 67.6549 226.134 68.0486L224.454 69.4374C224.324 69.5467 224.054 69.7545 223.634 70.0607C223.344 70.2685 223.074 70.4762 222.844 70.6731H226.454C226.564 70.6731 226.644 70.6731 226.684 70.684C227.384 70.7387 227.974 70.859 228.444 71.0558C229.004 71.2964 229.454 71.6354 229.784 72.0619C230.104 72.4774 230.344 72.9586 230.514 73.5163C230.644 74.0084 230.714 74.6098 230.734 75.3207H232.094V77.6718H231.554C231.044 77.6718 230.714 77.4749 230.554 77.0813C230.514 77.1797 230.454 77.2562 230.374 77.3218C230.164 77.5515 229.834 77.6718 229.384 77.6718H217.834V75.3207H228.564V75.2878C228.564 74.8176 228.504 74.4349 228.374 74.1178C228.264 73.8662 228.014 73.6257 227.614 73.4179C227.314 73.2429 226.884 73.1664 226.314 73.1664C225.184 73.1664 223.364 73.1445 220.864 73.1008C220.504 73.1008 220.194 73.0242 219.944 72.882C219.724 72.7399 219.554 72.5321 219.444 72.2478C219.344 71.9525 219.354 71.6463 219.474 71.3401C219.584 71.0668 219.804 70.7715 220.134 70.4653L226.344 64.7898L226.504 64.6476L226.694 64.5492C226.874 64.4836 227.064 64.4836 227.274 64.5383L227.284 64.5055Z" fill="#1A4D96"/>
<path d="M235.544 77.6608H231.494V75.3097H235.544V77.6608Z" fill="#1A4D96"/>
<path d="M237.694 68.4969C238.054 68.4969 238.324 68.5953 238.494 68.7812C238.674 68.9781 238.754 69.2733 238.754 69.6779V76.1627C238.754 76.6439 238.644 77.0157 238.434 77.2672C238.224 77.5187 237.904 77.6499 237.494 77.6499H234.954V75.2988H236.594V69.667C236.594 68.8797 236.954 68.486 237.694 68.486V68.4969ZM237.594 63.9478C237.834 63.9696 238.044 64.0243 238.204 64.1227C238.364 64.2321 238.514 64.3852 238.644 64.582C238.734 64.757 238.784 64.9757 238.804 65.2381C238.784 65.5115 238.734 65.7412 238.644 65.9052C238.544 66.113 238.404 66.2661 238.204 66.3864C238.044 66.4848 237.844 66.5395 237.594 66.5613C237.354 66.5395 237.154 66.4848 236.994 66.3864C236.814 66.2661 236.674 66.113 236.574 65.9052C236.464 65.6974 236.414 65.4678 236.414 65.2381C236.414 65.0085 236.464 64.8007 236.574 64.582C236.684 64.3742 236.824 64.2102 236.994 64.1227C237.154 64.0243 237.354 63.9696 237.594 63.9478Z" fill="#1A4D96"/>
<path d="M244.574 74.7302C244.944 74.7302 245.264 74.8724 245.524 75.1567C245.784 75.441 245.914 75.78 245.914 76.1846C245.914 76.6111 245.784 76.961 245.534 77.2344C245.284 77.5078 244.954 77.65 244.564 77.65C244.174 77.65 243.864 77.5078 243.604 77.2126C243.344 76.9282 243.214 76.5783 243.214 76.1737C243.214 75.7691 243.344 75.4301 243.604 75.1457C243.864 74.8614 244.184 74.7193 244.564 74.7193L244.574 74.7302ZM245.454 67.5565C245.764 67.5565 246.044 67.6877 246.284 67.9393C246.524 68.1908 246.644 68.497 246.644 68.8469C246.644 68.9891 246.614 69.1203 246.554 69.2625V69.2953L245.644 71.6901C245.404 72.3135 245.014 72.6197 244.464 72.6197C244.144 72.6197 243.864 72.4994 243.634 72.2478C243.404 71.9963 243.294 71.712 243.294 71.3949C243.294 71.2855 243.324 71.1324 243.384 70.9137L244.404 68.3548C244.614 67.819 244.964 67.5565 245.454 67.5565Z" fill="#1A4D96"/>
<path d="M257.154 68.6282C257.754 68.6282 258.274 68.7594 258.724 69.0109C259.174 69.2515 259.554 69.5905 259.864 70.017C260.174 70.4544 260.414 70.9356 260.564 71.4714C260.714 72.0182 260.784 72.5868 260.784 73.1773C260.784 73.7679 260.704 74.3584 260.554 74.9051C260.504 75.0692 260.454 75.2004 260.404 75.3098H261.664V77.6609H260.844C260.124 77.6609 259.764 77.2672 259.764 76.4799C259.474 76.8407 259.124 77.1251 258.724 77.3438C258.264 77.5843 257.744 77.7156 257.154 77.7265H255.354C254.964 77.7265 254.634 77.7921 254.374 77.9124C254.074 78.0546 253.824 78.2951 253.644 78.6451C253.454 78.9841 253.364 79.4652 253.364 80.0667V80.2854C253.364 80.7228 253.274 81.04 253.084 81.2477C252.894 81.4555 252.604 81.5648 252.234 81.5648C251.864 81.5648 251.584 81.4555 251.384 81.2477C251.194 81.04 251.104 80.7228 251.104 80.2854V79.9683C251.104 79.0934 251.214 78.3498 251.424 77.7484C251.634 77.125 251.924 76.6439 252.304 76.283C252.654 75.9331 253.084 75.6597 253.604 75.4847C253.684 75.4519 253.794 75.4191 253.954 75.3754C253.834 75.0473 253.774 74.8614 253.764 74.8177C253.604 74.2709 253.534 73.7022 253.534 73.0898C253.534 72.4775 253.614 71.9088 253.764 71.3949C253.914 70.87 254.134 70.3997 254.454 69.9732C254.754 69.5577 255.134 69.2296 255.584 69C256.054 68.7594 256.574 68.6282 257.144 68.6282H257.154ZM257.154 70.7825C256.914 70.7825 256.704 70.8481 256.524 70.9793C256.334 71.0887 256.194 71.2527 256.084 71.4933C255.964 71.701 255.874 71.9416 255.824 72.1931C255.764 72.4665 255.734 72.7509 255.734 73.0242C255.734 73.2976 255.764 73.571 255.824 73.8553C255.884 74.1397 255.974 74.424 256.084 74.6974C256.174 74.927 256.314 75.1348 256.524 75.3207C256.704 75.4957 256.914 75.5722 257.154 75.5722C257.414 75.5722 257.634 75.5066 257.794 75.3644C257.974 75.2332 258.114 75.0582 258.234 74.8177C258.354 74.5989 258.444 74.3474 258.494 74.085C258.544 73.7897 258.564 73.5054 258.564 73.2539C258.564 73.0024 258.544 72.729 258.494 72.4119C258.434 72.1166 258.344 71.8432 258.234 71.6136C258.104 71.362 257.964 71.1652 257.794 71.023C257.604 70.859 257.394 70.7825 257.154 70.7825Z" fill="#1A4D96"/>
<path d="M264.214 64.5055C264.564 64.5055 264.824 64.6039 265.004 64.8117C265.184 65.0195 265.284 65.3147 265.284 65.7084V76.1955C265.284 76.6986 265.174 77.0594 264.964 77.3C264.754 77.5406 264.454 77.6718 264.044 77.6718H261.074V75.3207H263.134V65.7084C263.134 64.9101 263.494 64.5055 264.214 64.5055Z" fill="#1A4D96"/>
<path d="M267.504 64.571C268.224 64.571 268.584 64.9647 268.584 65.7521V75.3097H269.954V77.6608H267.674C267.264 77.6608 266.954 77.5405 266.754 77.289C266.554 77.0484 266.444 76.6766 266.444 76.2064V65.7521C266.444 65.3803 266.534 65.085 266.704 64.8772C266.884 64.6804 267.144 64.571 267.494 64.571H267.504Z" fill="#1A4D96"/>
<path d="M274.434 68.7375H275.734C276.124 68.7375 276.414 68.836 276.594 69.0437C276.774 69.2406 276.874 69.5358 276.874 69.9514C276.874 70.3669 276.784 70.6513 276.594 70.8481C276.404 71.0559 276.124 71.1543 275.734 71.1543H274.524C273.974 71.1543 273.534 71.2527 273.234 71.4605C272.924 71.6464 272.714 71.9088 272.594 72.226C272.464 72.5322 272.404 72.904 272.404 73.3304C272.404 73.7569 272.464 74.0959 272.594 74.3693C272.714 74.6427 272.924 74.8724 273.234 75.0583C273.534 75.2332 273.964 75.3098 274.524 75.3098H278.034V77.6609H269.374V75.3098H270.544C270.504 75.2114 270.454 75.0692 270.394 74.8724C270.244 74.3803 270.174 73.8007 270.174 73.1336C270.174 72.4665 270.244 71.8979 270.394 71.4277C270.554 70.87 270.794 70.3997 271.114 70.017C271.454 69.6124 271.894 69.2953 272.424 69.0765C272.974 68.8578 273.644 68.7375 274.424 68.7375H274.434Z" fill="#1A4D96"/>
<path d="M280.584 64.5055C280.934 64.5055 281.194 64.6039 281.374 64.8117C281.554 65.0195 281.654 65.3147 281.654 65.7084V76.1955C281.654 76.6986 281.544 77.0594 281.334 77.3C281.124 77.5406 280.824 77.6718 280.414 77.6718H277.444V75.3207H279.504V65.7084C279.504 64.9101 279.864 64.5055 280.584 64.5055Z" fill="#1A4D96"/>
<path d="M283.904 64.7789C284.624 64.7789 284.984 65.1726 284.984 65.96V76.4799C284.984 76.8736 284.894 77.1688 284.704 77.3766C284.534 77.5734 284.264 77.6609 283.904 77.6609C283.544 77.6609 283.274 77.5625 283.104 77.3766C282.914 77.1688 282.824 76.8736 282.824 76.4799V65.96C282.824 65.1726 283.184 64.7789 283.904 64.7789Z" fill="#1A4D96"/>
<path d="M297.674 68.4532C298.064 68.4532 298.354 68.5517 298.534 68.7594C298.714 68.9672 298.814 69.2843 298.814 69.7327V77.3766C298.754 77.9999 298.634 78.5358 298.464 79.006C298.244 79.6293 297.934 80.1214 297.544 80.4932C297.164 80.8431 296.714 81.1056 296.204 81.2915C294.874 81.7399 293.464 81.718 291.974 81.2149C291.474 81.04 291.034 80.7775 290.664 80.3948C290.294 80.0339 289.994 79.5418 289.774 78.9294C289.554 78.317 289.454 77.5734 289.454 76.6877V70.8153C289.454 70.367 289.544 70.0389 289.734 69.842C289.924 69.6343 290.214 69.5249 290.594 69.5249C290.974 69.5249 291.244 69.6343 291.444 69.842C291.624 70.0498 291.724 70.367 291.724 70.8153V76.5892C291.724 77.1798 291.824 77.6609 292.014 78.0327C292.374 78.7107 293.094 79.0825 294.174 79.1372C295.264 79.181 295.974 78.842 296.294 78.1093C296.454 77.7703 296.524 77.2891 296.524 76.6658V69.7327C296.524 69.2953 296.624 68.9672 296.814 68.7594C296.994 68.5517 297.284 68.4532 297.674 68.4532ZM293.844 64.3306C294.064 64.3306 294.274 64.3852 294.474 64.5055C294.654 64.6258 294.794 64.7789 294.914 64.9867C295.024 65.1945 295.074 65.4132 295.074 65.6428C295.074 65.8725 295.024 66.113 294.914 66.3318C294.814 66.5286 294.674 66.6817 294.474 66.8129C294.284 66.9332 294.074 66.9879 293.844 66.9879C293.614 66.9879 293.424 66.9332 293.234 66.8129C293.054 66.6708 292.904 66.5177 292.814 66.3318C292.704 66.124 292.654 65.8943 292.654 65.6428C292.654 65.4241 292.704 65.2054 292.814 64.9867C292.914 64.7789 293.054 64.6258 293.234 64.5055C293.424 64.3852 293.634 64.3306 293.844 64.3306Z" fill="#1A4D96"/>
<path d="M303.614 68.5625C304.174 68.5625 304.694 68.6937 305.184 68.9452C305.624 69.1858 305.994 69.5358 306.304 69.9732C306.894 70.7824 307.244 71.865 307.354 73.232C307.424 74.1068 307.464 74.7957 307.474 75.3097H308.844V77.6608H308.304C307.884 77.6608 307.584 77.5296 307.414 77.2781C307.344 77.9451 307.224 78.5466 307.034 79.0715C306.804 79.6948 306.484 80.1979 306.084 80.5697C305.314 81.3023 304.184 81.696 302.704 81.7398C301.964 81.7726 301.454 81.6741 301.184 81.4336C301.024 81.3023 300.924 81.1492 300.864 80.9524C300.794 80.7665 300.774 80.5587 300.804 80.3072C300.844 79.9245 300.964 79.6401 301.164 79.4652C301.354 79.2902 301.644 79.2137 302.024 79.2137H302.304C302.994 79.2137 303.474 79.1809 303.754 79.1152C304.214 78.984 304.554 78.6669 304.794 78.142C304.884 77.9561 304.954 77.7046 305.004 77.3765C304.594 77.5733 304.134 77.6608 303.614 77.6608C303.014 77.6608 302.484 77.5296 302.034 77.2781C301.604 77.0375 301.234 76.6876 300.904 76.2392C300.594 75.8018 300.364 75.3097 300.214 74.7739C300.054 74.2271 299.974 73.6584 299.974 73.0461C299.974 72.4774 300.054 71.9197 300.214 71.351C300.374 70.7715 300.604 70.3012 300.904 69.9294C301.204 69.503 301.584 69.1749 302.034 68.9343C302.504 68.6937 303.024 68.5625 303.614 68.5625ZM303.614 70.7168C303.354 70.7387 303.134 70.8043 302.974 70.9246C302.814 71.0339 302.664 71.1979 302.534 71.4167C302.414 71.6244 302.334 71.865 302.274 72.1384C302.214 72.4009 302.184 72.6742 302.184 72.9586C302.184 73.2101 302.214 73.4944 302.274 73.8115C302.334 74.1068 302.424 74.3911 302.534 74.6426C302.654 74.9051 302.794 75.1238 302.974 75.2769C303.134 75.4519 303.354 75.5284 303.614 75.5284C303.874 75.5284 304.074 75.4628 304.244 75.3206C304.434 75.1675 304.584 74.9926 304.684 74.7739C304.804 74.5551 304.884 74.3036 304.944 74.0193C304.994 73.7241 305.014 73.4507 305.014 73.1991C305.014 72.9476 304.984 72.6742 304.944 72.3571C304.904 72.1384 304.814 71.865 304.684 71.5588C304.554 71.2854 304.414 71.0777 304.244 70.9464C304.064 70.7933 303.854 70.7168 303.614 70.7059V70.7168Z" fill="#1A4D96"/>
<path d="M317.684 64.5055C317.874 64.5492 318.054 64.6476 318.224 64.8117C318.384 64.9538 318.494 65.1179 318.564 65.3256C318.654 65.5881 318.654 65.8287 318.574 66.0474C318.494 66.277 318.354 66.4848 318.154 66.6707C317.554 67.1956 317.014 67.6549 316.534 68.0486L314.854 69.4374C314.724 69.5467 314.454 69.7545 314.034 70.0607C313.744 70.2685 313.474 70.4762 313.244 70.6731H316.854C316.964 70.6731 317.044 70.6731 317.084 70.684C317.784 70.7387 318.374 70.859 318.844 71.0558C319.404 71.2964 319.854 71.6354 320.184 72.0619C320.504 72.4774 320.744 72.9586 320.914 73.5163C321.044 74.0084 321.114 74.6098 321.134 75.3207H322.494V77.6718H321.954C321.444 77.6718 321.114 77.4749 320.954 77.0813C320.914 77.1797 320.854 77.2562 320.774 77.3218C320.564 77.5515 320.234 77.6718 319.784 77.6718H308.234V75.3207H318.964V75.2878C318.964 74.8176 318.904 74.4349 318.774 74.1178C318.664 73.8662 318.414 73.6257 318.014 73.4179C317.714 73.2429 317.284 73.1664 316.714 73.1664C315.584 73.1664 313.764 73.1445 311.264 73.1008C310.904 73.1008 310.594 73.0242 310.344 72.882C310.124 72.7399 309.954 72.5321 309.844 72.2478C309.744 71.9525 309.754 71.6463 309.874 71.3401C309.984 71.0668 310.204 70.7715 310.534 70.4653L316.744 64.7898L316.904 64.6476L317.094 64.5492C317.274 64.4836 317.464 64.4836 317.674 64.5383L317.684 64.5055Z" fill="#1A4D96"/>
<path d="M327.264 68.5625C327.624 68.5625 327.894 68.6609 328.064 68.8687C328.244 69.0765 328.324 69.3827 328.324 69.7654V76.1955C328.324 76.6876 328.224 77.0484 328.014 77.3C327.804 77.5405 327.494 77.6718 327.074 77.6718H321.884V75.3206H326.164V69.7763C326.164 68.978 326.524 68.5734 327.244 68.5734L327.264 68.5625ZM324.034 79.2902C324.274 79.3121 324.484 79.3668 324.644 79.4652C324.804 79.5745 324.954 79.7276 325.084 79.9245C325.174 80.0994 325.224 80.3181 325.244 80.5806C325.224 80.854 325.174 81.0836 325.084 81.2477C324.984 81.4554 324.844 81.6085 324.644 81.7288C324.484 81.8272 324.284 81.8819 324.034 81.9038C323.794 81.8819 323.594 81.8272 323.434 81.7288C323.254 81.6085 323.114 81.4554 323.014 81.2477C322.904 81.0399 322.854 80.8102 322.854 80.5806C322.854 80.351 322.904 80.1432 323.014 79.9245C323.124 79.7058 323.264 79.5527 323.434 79.4652C323.594 79.3668 323.794 79.3121 324.034 79.2902ZM327.234 79.2902C327.474 79.3121 327.684 79.3668 327.844 79.4652C328.004 79.5745 328.154 79.7276 328.284 79.9245C328.374 80.0994 328.424 80.3181 328.444 80.5806C328.424 80.854 328.374 81.0836 328.284 81.2477C328.174 81.4554 328.034 81.6085 327.844 81.7288C327.684 81.8272 327.484 81.8819 327.234 81.9038C326.994 81.8819 326.794 81.8272 326.634 81.7288C326.454 81.6085 326.314 81.4554 326.214 81.2477C326.104 81.0399 326.054 80.8102 326.054 80.5806C326.054 80.351 326.104 80.1432 326.214 79.9245C326.324 79.7058 326.464 79.5527 326.634 79.4652C326.794 79.3668 326.994 79.3121 327.234 79.2902Z" fill="#1A4D96"/>
<path d="M333.204 68.8031C333.384 68.5954 333.674 68.4969 334.054 68.4969C334.434 68.4969 334.714 68.5954 334.904 68.8031C335.094 69.0109 335.184 69.328 335.184 69.7655V72.8711C335.184 73.4835 335.264 73.9537 335.414 74.2927C335.594 74.6974 335.804 74.9707 336.054 75.1129C336.324 75.2551 336.624 75.3207 336.944 75.3207H344.764V69.842C344.764 69.0656 345.124 68.6719 345.844 68.6719C346.194 68.6719 346.454 68.7703 346.634 68.9562C346.814 69.164 346.894 69.4483 346.894 69.8311V75.3097H349.014V77.6609H337.024C336.484 77.6609 335.984 77.5843 335.504 77.4203C334.984 77.2453 334.544 76.9719 334.174 76.622C333.774 76.2502 333.464 75.769 333.254 75.1676C333.034 74.5333 332.914 73.7897 332.914 72.9586V69.7655C332.914 69.328 333.004 69.0109 333.194 68.8031H333.204ZM338.554 65.0304C338.794 65.0523 339.004 65.1069 339.164 65.2054C339.324 65.3147 339.474 65.4678 339.604 65.6646C339.694 65.8396 339.744 66.0583 339.764 66.3208C339.744 66.5942 339.694 66.8238 339.604 66.9878C339.494 67.1956 339.354 67.3487 339.164 67.469C339.004 67.5674 338.804 67.6221 338.554 67.644C338.314 67.6221 338.114 67.5674 337.954 67.469C337.774 67.3487 337.634 67.1956 337.534 66.9878C337.424 66.7801 337.374 66.5504 337.374 66.3208C337.374 66.0911 337.424 65.8834 337.534 65.6646C337.644 65.4459 337.784 65.2928 337.954 65.2054C338.114 65.1069 338.314 65.0523 338.554 65.0304ZM340.214 61.9575C340.454 61.9794 340.664 62.0341 340.824 62.1325C340.984 62.2418 341.134 62.3949 341.264 62.5918C341.354 62.7667 341.404 62.9855 341.424 63.2479C341.404 63.5213 341.354 63.7509 341.264 63.915C341.154 64.1227 341.014 64.2758 340.824 64.3961C340.664 64.4946 340.464 64.5492 340.214 64.5711C339.974 64.5492 339.774 64.4946 339.614 64.3961C339.444 64.2758 339.294 64.1227 339.194 63.915C339.084 63.7072 339.034 63.4776 339.034 63.2479C339.034 63.0183 339.084 62.8105 339.194 62.5918C339.304 62.3731 339.444 62.22 339.614 62.1325C339.774 62.0341 339.974 61.9794 340.214 61.9575ZM341.754 65.0304C341.994 65.0523 342.204 65.1069 342.364 65.2054C342.524 65.3147 342.674 65.4678 342.804 65.6646C342.894 65.8396 342.944 66.0583 342.964 66.3208C342.944 66.5942 342.894 66.8238 342.804 66.9878C342.704 67.1956 342.564 67.3487 342.364 67.469C342.204 67.5674 342.004 67.6221 341.754 67.644C341.514 67.6221 341.314 67.5674 341.154 67.469C340.974 67.3487 340.834 67.1956 340.734 66.9878C340.624 66.7801 340.574 66.5504 340.574 66.3208C340.574 66.0911 340.624 65.8834 340.734 65.6646C340.844 65.4459 340.984 65.2928 341.154 65.2054C341.314 65.1069 341.514 65.0523 341.754 65.0304Z" fill="#1A4D96"/>
<path d="M353.534 68.4969C353.894 68.4969 354.164 68.5954 354.344 68.7813C354.524 68.9781 354.604 69.2734 354.604 69.678V75.3098H356.754V77.6609H355.414C354.914 77.6609 354.594 77.464 354.434 77.0704C354.374 77.1797 354.324 77.2453 354.284 77.2781C354.084 77.5297 353.764 77.6609 353.344 77.6609H348.434V75.3098H352.434V69.678C352.434 68.8906 352.804 68.4969 353.534 68.4969ZM351.784 79.2903C352.024 79.3121 352.234 79.3668 352.394 79.4652C352.554 79.5746 352.704 79.7277 352.834 79.9245C352.924 80.0995 352.974 80.3182 352.994 80.5807C352.974 80.854 352.924 81.0837 352.834 81.2477C352.724 81.4555 352.584 81.6086 352.394 81.7289C352.234 81.8273 352.034 81.882 351.784 81.9039C351.544 81.882 351.344 81.8273 351.184 81.7289C351.004 81.6086 350.864 81.4555 350.764 81.2477C350.654 81.04 350.604 80.8103 350.604 80.5807C350.604 80.351 350.654 80.1432 350.764 79.9245C350.874 79.7058 351.014 79.5527 351.184 79.4652C351.344 79.3668 351.544 79.3121 351.784 79.2903ZM354.984 79.2903C355.224 79.3121 355.434 79.3668 355.594 79.4652C355.754 79.5746 355.904 79.7277 356.034 79.9245C356.124 80.0995 356.174 80.3182 356.194 80.5807C356.174 80.854 356.124 81.0837 356.034 81.2477C355.934 81.4555 355.794 81.6086 355.594 81.7289C355.434 81.8273 355.234 81.882 354.984 81.9039C354.744 81.882 354.544 81.8273 354.384 81.7289C354.204 81.6086 354.064 81.4555 353.964 81.2477C353.854 81.04 353.804 80.8103 353.804 80.5807C353.804 80.351 353.854 80.1432 353.964 79.9245C354.074 79.7058 354.214 79.5527 354.384 79.4652C354.544 79.3668 354.744 79.3121 354.984 79.2903Z" fill="#1A4D96"/>
<path d="M359.544 68.5953H362.484C363.264 68.5953 363.944 68.7156 364.534 68.9671C365.104 69.2077 365.544 69.5467 365.874 69.9732C366.194 70.3888 366.444 70.8809 366.604 71.4386C366.764 72.0072 366.844 72.5649 366.844 73.1336V76.2939C366.834 76.7532 366.714 77.0922 366.494 77.3219C366.264 77.5406 365.924 77.6608 365.484 77.6608H356.174V75.3097H364.654V73.0242C364.654 72.6633 364.594 72.3353 364.474 72.0509C364.364 71.7994 364.114 71.5589 363.714 71.3511C363.404 71.1761 362.964 71.0996 362.394 71.0996H359.544C359.144 71.0996 358.844 70.9902 358.654 70.7824C358.464 70.5856 358.374 70.2685 358.374 69.842C358.374 69.4155 358.464 69.1202 358.654 68.9125C358.834 68.7047 359.134 68.6063 359.544 68.6063V68.5953Z" fill="#1A4D96"/>
<path d="M0.404297 83.2599C1.0243 83.1286 2.2943 83.0193 3.4743 83.0193C4.9243 83.0193 5.8143 83.1724 6.5743 83.6645C7.3043 84.091 7.8343 84.8783 7.8343 85.9172C7.8343 86.9561 7.2843 87.8965 6.1043 88.3777V88.4105C7.3043 88.7714 8.1943 89.7555 8.1943 91.2428C8.1943 92.2816 7.7543 93.1018 7.1043 93.6814C6.3443 94.3484 5.0643 94.7203 2.9743 94.7203C1.8043 94.7203 0.934297 94.6328 0.404297 94.5453L0.404297 83.2599ZM2.7543 87.6669H3.5343C4.7843 87.6669 5.4543 87.1092 5.4543 86.2562C5.4543 85.4032 4.8443 84.9221 3.7743 84.9221C3.2643 84.9221 2.9643 84.9549 2.7643 84.9877V87.6669H2.7543ZM2.7543 92.7628C2.9843 92.7956 3.2643 92.7956 3.6743 92.7956C4.7543 92.7956 5.7043 92.3473 5.7043 91.1444C5.7043 89.9414 4.7543 89.5259 3.5643 89.5259H2.7543V92.7628Z" fill="#1A4D96"/>
<path d="M11.8143 91.2646C11.8943 92.3363 12.8543 92.8503 13.9643 92.8503C14.7743 92.8503 15.4343 92.73 16.0743 92.5113L16.3843 94.2719C15.6043 94.6109 14.6543 94.7859 13.6243 94.7859C11.0343 94.7859 9.55432 93.1456 9.55432 90.5429C9.55432 88.4324 10.7543 86.0922 13.4043 86.0922C15.8643 86.0922 16.8043 88.1918 16.8043 90.2476C16.8043 90.696 16.7543 91.0787 16.7243 91.2756H11.8143V91.2646ZM14.6143 89.4822C14.6143 88.8479 14.3643 87.7981 13.2743 87.7981C12.2743 87.7981 11.8743 88.7823 11.8043 89.4822H14.6143Z" fill="#1A4D96"/>
<path d="M23.3243 86.2671L23.9343 89.679C24.0943 90.5538 24.2443 91.4724 24.3743 92.4238H24.4043C24.5643 91.4724 24.7743 90.5101 24.9643 89.7008L25.7743 86.278H27.6443L28.4043 89.6024C28.6043 90.5429 28.8143 91.4833 28.9643 92.4347H28.9943C29.1043 91.4833 29.2643 90.5429 29.4343 89.5915L30.0843 86.289H32.4043L30.0643 94.6218H27.8343L27.1143 91.6911C26.9243 90.8709 26.7843 90.1273 26.6343 89.0994H26.6043C26.4643 90.1383 26.3043 90.9037 26.1043 91.6911L25.3443 94.6218H23.1143L20.9043 86.289H23.3243V86.2671Z" fill="#1A4D96"/>
<path d="M33.6743 82.4944H36.0443V87.2513H36.0743C36.3243 86.8904 36.6343 86.6171 37.0143 86.3984C37.3543 86.1906 37.8143 86.0703 38.2443 86.0703C39.7543 86.0703 40.9143 87.2076 40.9143 89.7227V94.6H38.5443V90.018C38.5443 88.9244 38.2043 88.1808 37.3143 88.1808C36.6943 88.1808 36.3043 88.6292 36.1343 89.0885C36.0743 89.2634 36.0543 89.4822 36.0543 89.6681V94.6109H33.6843V82.5053L33.6743 82.4944Z" fill="#1A4D96"/>
<path d="M44.7943 91.2646C44.8743 92.3363 45.8343 92.8503 46.9443 92.8503C47.7543 92.8503 48.4143 92.73 49.0543 92.5113L49.3643 94.2719C48.5843 94.6109 47.6343 94.7859 46.6043 94.7859C44.0143 94.7859 42.5343 93.1456 42.5343 90.5429C42.5343 88.4324 43.7343 86.0922 46.3843 86.0922C48.8443 86.0922 49.7843 88.1918 49.7843 90.2476C49.7843 90.696 49.7343 91.0787 49.7043 91.2756H44.7943V91.2646ZM47.5843 89.4822C47.5843 88.8479 47.3343 87.7981 46.2443 87.7981C45.2443 87.7981 44.8443 88.7823 44.7743 89.4822H47.5843Z" fill="#1A4D96"/>
<path d="M51.3643 89.012C51.3643 87.7872 51.3343 86.978 51.3043 86.2672H53.3443L53.4243 87.7981H53.4843C53.8743 86.5843 54.8143 86.0703 55.5443 86.0703C55.7643 86.0703 55.8743 86.0703 56.0443 86.1031V88.5417C55.8743 88.5089 55.6743 88.4761 55.4043 88.4761C54.5343 88.4761 53.9343 88.9901 53.7843 89.7884C53.7543 89.9633 53.7343 90.1602 53.7343 90.368V94.6H51.3643V89.012Z" fill="#1A4D96"/>
<path d="M59.1443 91.2646C59.2243 92.3363 60.1843 92.8503 61.2943 92.8503C62.1043 92.8503 62.7643 92.73 63.4043 92.5113L63.7143 94.2719C62.9343 94.6109 61.9843 94.7859 60.9543 94.7859C58.3643 94.7859 56.8843 93.1456 56.8843 90.5429C56.8843 88.4324 58.0843 86.0922 60.7343 86.0922C63.1943 86.0922 64.1343 88.1918 64.1343 90.2476C64.1343 90.696 64.0843 91.0787 64.0543 91.2756H59.1443V91.2646ZM61.9343 89.4822C61.9343 88.8479 61.6843 87.7981 60.5943 87.7981C59.5943 87.7981 59.1943 88.7823 59.1243 89.4822H61.9343Z" fill="#1A4D96"/>
<path d="M71.6642 83.8722V86.2561H73.3642V88.1698H71.6642V91.188C71.6642 92.1941 71.8842 92.6534 72.6042 92.6534C72.9042 92.6534 73.1342 92.6206 73.3042 92.5878L73.3242 94.5452C73.0142 94.6765 72.4542 94.7639 71.7842 94.7639C71.0242 94.7639 70.3842 94.4687 70.0042 94.0531C69.5642 93.561 69.3542 92.7627 69.3542 91.5817V88.1698H68.3442V86.2561H69.3542V84.4518L71.6742 83.8722H71.6642Z" fill="#1A4D96"/>
<path d="M74.8943 82.4944H77.2643V87.2513H77.2943C77.5443 86.8904 77.8543 86.6171 78.2343 86.3984C78.5743 86.1906 79.0343 86.0703 79.4643 86.0703C80.9743 86.0703 82.1343 87.2076 82.1343 89.7227V94.6H79.7643V90.018C79.7643 88.9244 79.4243 88.1808 78.5343 88.1808C77.9143 88.1808 77.5243 88.6292 77.3543 89.0885C77.2943 89.2634 77.2743 89.4822 77.2743 89.6681V94.6109H74.9043V82.5053L74.8943 82.4944Z" fill="#1A4D96"/>
<path d="M86.0043 91.2646C86.0843 92.3363 87.0443 92.8503 88.1543 92.8503C88.9643 92.8503 89.6243 92.73 90.2643 92.5113L90.5743 94.2719C89.7943 94.6109 88.8443 94.7859 87.8143 94.7859C85.2243 94.7859 83.7443 93.1456 83.7443 90.5429C83.7443 88.4324 84.9443 86.0922 87.5943 86.0922C90.0543 86.0922 90.9943 88.1918 90.9943 90.2476C90.9943 90.696 90.9443 91.0787 90.9143 91.2756H86.0043V91.2646ZM88.7943 89.4822C88.7943 88.8479 88.5443 87.7981 87.4543 87.7981C86.4543 87.7981 86.0543 88.7823 85.9843 89.4822H88.7943Z" fill="#1A4D96"/>
<path d="M97.0743 94.6L94.5844 83.1068H97.1244L97.9243 87.8418C98.1543 89.2088 98.3743 90.6851 98.5443 91.8442H98.5743C98.7443 90.5976 98.9944 89.2197 99.2644 87.7981L100.154 83.0958H102.684L103.524 87.9402C103.754 89.2853 103.934 90.5101 104.084 91.7895H104.114C104.274 90.5101 104.504 89.165 104.724 87.7981L105.584 83.0958H108.004L105.294 94.589H102.724L101.834 89.6462C101.634 88.487 101.464 87.4153 101.334 86.1031H101.304C101.114 87.3935 100.944 88.487 100.694 89.6462L99.6944 94.589H97.0944L97.0743 94.6Z" fill="#1A4D96"/>
<path d="M116.184 90.3352C116.184 93.3862 114.204 94.7859 112.164 94.7859C109.934 94.7859 108.214 93.1784 108.214 90.4882C108.214 87.7981 109.834 86.0703 112.284 86.0703C114.734 86.0703 116.184 87.8309 116.184 90.3352ZM110.664 90.4226C110.664 91.8552 111.214 92.9269 112.224 92.9269C113.144 92.9269 113.734 91.9208 113.734 90.4226C113.734 89.176 113.294 87.9184 112.224 87.9184C111.084 87.9184 110.664 89.1979 110.664 90.4226Z" fill="#1A4D96"/>
<path d="M117.804 89.012C117.804 87.7872 117.774 86.978 117.744 86.2672H119.784L119.864 87.7981H119.924C120.314 86.5843 121.254 86.0703 121.984 86.0703C122.204 86.0703 122.314 86.0703 122.484 86.1031V88.5417C122.314 88.5089 122.114 88.4761 121.844 88.4761C120.974 88.4761 120.374 88.9901 120.224 89.7884C120.194 89.9633 120.174 90.1602 120.174 90.368V94.6H117.804V89.012Z" fill="#1A4D96"/>
<path d="M123.834 82.4944H126.204V94.6H123.834V82.4944Z" fill="#1A4D96"/>
<path d="M135.674 82.4944V92.1067C135.674 93.0471 135.704 94.0313 135.734 94.6H133.624L133.514 93.3752H133.484C133.004 94.3156 132.084 94.7859 131.094 94.7859C129.284 94.7859 127.834 93.1018 127.834 90.5101C127.814 87.6997 129.424 86.0812 131.244 86.0812C132.184 86.0812 132.914 86.4421 133.254 87.0217H133.284V82.5053H135.654L135.674 82.4944ZM133.304 89.7884C133.304 89.6571 133.284 89.4603 133.274 89.3291C133.134 88.6292 132.624 88.0496 131.884 88.0496C130.804 88.0496 130.244 89.1104 130.244 90.4226C130.244 91.8333 130.884 92.7191 131.864 92.7191C132.554 92.7191 133.094 92.2051 133.234 91.4724C133.284 91.2865 133.294 91.1006 133.294 90.871V89.7774L133.304 89.7884Z" fill="#1A4D96"/>
<path d="M143.484 83.9489C143.484 84.6597 142.984 85.2502 142.204 85.2502C141.424 85.2502 140.954 84.6706 140.974 83.9489C140.954 83.1943 141.454 82.6366 142.224 82.6366C142.994 82.6366 143.474 83.1943 143.484 83.9489ZM141.034 94.6V86.2672H143.404V94.6H141.034Z" fill="#1A4D96"/>
<path d="M145.444 92.3363C145.884 92.6206 146.784 92.9706 147.484 92.9706C148.184 92.9706 148.494 92.6972 148.494 92.2707C148.494 91.8442 148.264 91.6365 147.374 91.3193C145.804 90.7397 145.194 89.7993 145.204 88.8151C145.204 87.2623 146.424 86.0922 148.304 86.0922C149.194 86.0922 149.984 86.3109 150.454 86.5733L150.034 88.3667C149.694 88.159 149.034 87.8856 148.384 87.8856C147.804 87.8856 147.484 88.1371 147.484 88.5636C147.484 88.9573 147.784 89.165 148.714 89.515C150.164 90.0617 150.774 90.86 150.784 92.0848C150.784 93.6376 149.664 94.7749 147.474 94.7749C146.474 94.7749 145.584 94.5344 145.014 94.1954L145.434 92.3363H145.444Z" fill="#1A4D96"/>
<path d="M162.974 86.2671C162.944 86.792 162.914 87.4919 162.914 88.7385V93.3971C162.914 95.0046 162.614 96.3168 161.764 97.1479C160.924 97.9353 159.784 98.1759 158.664 98.1759C157.664 98.1759 156.604 97.9572 155.924 97.5307L156.394 95.5732C156.874 95.8794 157.714 96.2075 158.604 96.2075C159.724 96.2075 160.584 95.5404 160.584 94.0095V93.4627H160.554C160.104 94.1625 159.374 94.5562 158.494 94.5562C156.604 94.5562 155.264 92.8831 155.264 90.4773C155.264 87.7981 156.854 86.0922 158.724 86.0922C159.774 86.0922 160.424 86.5843 160.814 87.2732H160.844L160.924 86.289H162.984L162.974 86.2671ZM160.544 89.6571C160.544 89.4822 160.524 89.3181 160.494 89.176C160.324 88.498 159.874 88.0387 159.214 88.0387C158.354 88.0387 157.654 88.8916 157.654 90.4117C157.654 91.6583 158.214 92.6316 159.214 92.6316C159.824 92.6316 160.304 92.1832 160.464 91.5708C160.524 91.3849 160.544 91.1115 160.544 90.8928V89.6681V89.6571Z" fill="#1A4D96"/>
<path d="M172.504 90.3352C172.504 93.3862 170.524 94.7859 168.484 94.7859C166.254 94.7859 164.544 93.1784 164.544 90.4882C164.544 87.7981 166.164 86.0703 168.614 86.0703C171.064 86.0703 172.514 87.8309 172.514 90.3352H172.504ZM166.984 90.4226C166.984 91.8552 167.534 92.9269 168.544 92.9269C169.464 92.9269 170.054 91.9208 170.054 90.4226C170.054 89.176 169.614 87.9184 168.544 87.9184C167.404 87.9184 166.984 89.1979 166.984 90.4226Z" fill="#1A4D96"/>
<path d="M176.574 83.9489C176.574 84.6597 176.074 85.2502 175.294 85.2502C174.514 85.2502 174.044 84.6706 174.064 83.9489C174.044 83.1943 174.544 82.6366 175.314 82.6366C176.084 82.6366 176.564 83.1943 176.574 83.9489ZM174.124 94.6V86.2672H176.494V94.6H174.124Z" fill="#1A4D96"/>
<path d="M178.554 88.9245C178.554 87.8856 178.524 86.9998 178.494 86.2672H180.554L180.664 87.4044H180.714C181.024 86.8795 181.804 86.0703 183.064 86.0703C184.624 86.0703 185.794 87.1967 185.794 89.6462V94.5891H183.424V89.9633C183.424 88.8917 183.084 88.159 182.224 88.159C181.564 88.159 181.174 88.6511 181.024 89.1323C180.964 89.2853 180.934 89.5369 180.934 89.7774V94.5891H178.564V88.9135L178.554 88.9245Z" fill="#1A4D96"/>
<path d="M195.124 86.2671C195.094 86.792 195.064 87.4919 195.064 88.7385V93.3971C195.064 95.0046 194.764 96.3168 193.914 97.1479C193.074 97.9353 191.934 98.1759 190.814 98.1759C189.814 98.1759 188.754 97.9572 188.074 97.5307L188.544 95.5732C189.024 95.8794 189.864 96.2075 190.754 96.2075C191.874 96.2075 192.734 95.5404 192.734 94.0095V93.4627H192.704C192.254 94.1625 191.524 94.5562 190.644 94.5562C188.754 94.5562 187.414 92.8831 187.414 90.4773C187.414 87.7981 189.004 86.0922 190.874 86.0922C191.924 86.0922 192.574 86.5843 192.964 87.2732H192.994L193.074 86.289H195.134L195.124 86.2671ZM192.694 89.6571C192.694 89.4822 192.674 89.3181 192.644 89.176C192.474 88.498 192.024 88.0387 191.364 88.0387C190.504 88.0387 189.804 88.8916 189.804 90.4117C189.804 91.6583 190.364 92.6316 191.364 92.6316C191.974 92.6316 192.454 92.1832 192.614 91.5708C192.674 91.3849 192.694 91.1115 192.694 90.8928V89.6681V89.6571Z" fill="#1A4D96"/>
<path d="M204.994 98.4929V83.8175L216.104 91.1552L204.994 98.4929Z" fill="#FDDE82" stroke="#F3D87F" stroke-width="0.51"/>
<path d="M372.794 11.7528V18.4562H376.204C376.474 18.4562 376.684 18.5328 376.834 18.6749C376.984 18.8171 377.054 19.003 377.054 19.2326C377.054 19.4623 376.984 19.6373 376.834 19.7794C376.694 19.9216 376.484 19.9872 376.204 19.9872H372.144C371.774 19.9872 371.514 19.8997 371.354 19.7138C371.194 19.5279 371.114 19.2436 371.114 18.839V11.7528C371.114 11.381 371.194 11.0966 371.344 10.8998C371.494 10.7139 371.694 10.6155 371.944 10.6155C372.194 10.6155 372.404 10.7139 372.564 10.8998C372.724 11.0857 372.794 11.37 372.794 11.7528Z" fill="#1A4D96"/>
<path d="M379.074 20.1403C378.844 20.1403 378.634 20.0528 378.464 19.8888C378.294 19.7248 378.214 19.4842 378.214 19.1889C378.214 18.9374 378.294 18.7187 378.454 18.5328C378.614 18.3469 378.814 18.2594 379.054 18.2594C379.294 18.2594 379.494 18.3469 379.664 18.5328C379.834 18.7187 379.914 18.9374 379.914 19.1998C379.914 19.4951 379.834 19.7248 379.664 19.8997C379.494 20.0638 379.294 20.1512 379.074 20.1512V20.1403Z" fill="#1A4D96"/>
<path d="M383.434 11.7528V18.4562H386.844C387.114 18.4562 387.324 18.5328 387.474 18.6749C387.624 18.8171 387.694 19.003 387.694 19.2326C387.694 19.4623 387.624 19.6373 387.474 19.7794C387.334 19.9216 387.124 19.9872 386.844 19.9872H382.784C382.414 19.9872 382.154 19.8997 381.994 19.7138C381.834 19.5279 381.754 19.2436 381.754 18.839V11.7528C381.754 11.381 381.834 11.0966 381.984 10.8998C382.134 10.7139 382.334 10.6155 382.584 10.6155C382.834 10.6155 383.044 10.7139 383.204 10.8998C383.364 11.0857 383.434 11.37 383.434 11.7528Z" fill="#1A4D96"/>
<path d="M389.714 20.1403C389.484 20.1403 389.274 20.0528 389.104 19.8888C388.934 19.7248 388.854 19.4842 388.854 19.1889C388.854 18.9374 388.934 18.7187 389.094 18.5328C389.254 18.3469 389.454 18.2594 389.694 18.2594C389.934 18.2594 390.134 18.3469 390.304 18.5328C390.474 18.7187 390.554 18.9374 390.554 19.1998C390.554 19.4951 390.474 19.7248 390.304 19.8997C390.134 20.0638 389.934 20.1512 389.714 20.1512V20.1403Z" fill="#1A4D96"/>
<path d="M399.504 17.0783C399.504 17.3736 399.434 17.6907 399.304 18.0297C399.174 18.3687 398.964 18.7077 398.694 19.0358C398.414 19.3639 398.054 19.6263 397.624 19.8341C397.194 20.0419 396.684 20.1403 396.104 20.1403C395.664 20.1403 395.264 20.0965 394.904 19.9981C394.544 19.9106 394.224 19.7575 393.924 19.5716C393.624 19.3857 393.364 19.1233 393.114 18.8062C392.894 18.5218 392.704 18.1938 392.554 17.8329C392.404 17.472 392.284 17.0893 392.204 16.6847C392.124 16.2801 392.084 15.8426 392.084 15.3943C392.084 14.6507 392.184 13.9945 392.374 13.404C392.564 12.8135 392.844 12.3214 393.214 11.8949C393.574 11.4794 394.004 11.1623 394.494 10.9435C394.984 10.7248 395.504 10.6155 396.054 10.6155C396.724 10.6155 397.324 10.7686 397.854 11.0638C398.384 11.3591 398.784 11.7309 399.064 12.1683C399.344 12.6057 399.484 13.0213 399.484 13.404C399.484 13.6227 399.414 13.8086 399.284 13.9727C399.144 14.1367 398.984 14.2133 398.794 14.2133C398.574 14.2133 398.414 14.1586 398.314 14.0492C398.214 13.9399 398.084 13.743 397.954 13.4696C397.734 13.0103 397.474 12.6713 397.184 12.4417C396.884 12.2121 396.524 12.1027 396.084 12.1027C395.394 12.1027 394.844 12.398 394.434 12.9775C394.024 13.5571 393.824 14.3882 393.824 15.4599C393.824 16.1707 393.914 16.7722 394.094 17.2424C394.274 17.7126 394.534 18.0735 394.864 18.3031C395.194 18.5328 395.584 18.6531 396.034 18.6531C396.514 18.6531 396.924 18.5218 397.264 18.2594C397.594 17.9969 397.854 17.6033 398.024 17.0893C398.094 16.8487 398.184 16.6519 398.294 16.4988C398.404 16.3457 398.574 16.2691 398.804 16.2691C399.004 16.2691 399.174 16.3457 399.324 16.4988C399.464 16.6519 399.544 16.8487 399.544 17.0783H399.504Z" fill="#1A4D96"/>
<path d="M95.8642 43.2687H95.7742C95.1242 43.2687 94.3842 42.8313 93.6342 42.8313C92.8842 42.8313 92.1142 42.9844 91.4042 43.2906C91.6042 44.0014 91.7442 44.8653 91.7442 45.598C91.7442 46.5275 91.4642 48.3975 90.8342 49.0536L90.0742 43.4328C89.8742 41.9127 92.4642 41.0598 93.3542 40.7098C93.1542 40.4255 92.6842 40.0646 92.3342 40.0646C91.6242 40.0646 91.1242 40.8957 90.6142 41.3222C90.8942 40.1193 91.9342 37.7135 93.2342 37.7135C94.2142 37.7135 96.0242 40.3052 96.5942 41.1144L95.8642 43.2797V43.2687Z" fill="#1A4D96"/>
<path d="M99.4942 44.7231C99.2942 44.7231 97.8342 43.7608 97.8342 43.5749C97.8342 43.3562 99.2142 42.2189 99.4742 42.2189C99.7042 42.2189 101.024 43.3015 101.244 43.553C101.084 43.8373 99.7842 44.7231 99.4942 44.7231Z" fill="#1A4D96"/>
<path d="M109.314 43.2687H109.224C108.574 43.2687 107.834 42.8313 107.084 42.8313C106.334 42.8313 105.564 42.9844 104.854 43.2906C105.054 44.0014 105.194 44.8653 105.194 45.598C105.194 46.5275 104.914 48.3975 104.284 49.0536L103.524 43.4328C103.324 41.9127 105.914 41.0598 106.804 40.7098C106.604 40.4255 106.134 40.0646 105.784 40.0646C105.074 40.0646 104.574 40.8957 104.064 41.3222C104.344 40.1193 105.384 37.7135 106.684 37.7135C107.664 37.7135 109.474 40.3052 110.044 41.1144L109.314 43.2797V43.2687Z" fill="#1A4D96"/>
<path d="M112.934 44.7231C112.734 44.7231 111.274 43.7608 111.274 43.5749C111.274 43.3562 112.654 42.2189 112.914 42.2189C113.144 42.2189 114.464 43.3015 114.684 43.553C114.524 43.8373 113.224 44.7231 112.934 44.7231Z" fill="#1A4D96"/>
<path d="M118.274 36.8168C118.054 36.8168 116.924 35.9529 116.924 35.7013C116.924 35.5154 117.874 34.4656 118.074 34.3453L119.494 35.581C119.374 35.7998 118.454 36.8168 118.274 36.8168ZM121.844 44.7231H117.084L117.304 42.3501H121.134L121.154 42.2626C120.784 40.9941 119.794 40.4036 118.734 39.9224L119.524 37.3089C121.474 38.1728 122.454 40.1411 122.454 42.3392C122.454 42.9844 122.474 44.3732 121.854 44.7122L121.844 44.7231Z" fill="#1A4D96"/>
</svg>
