<svg width="381" height="53" viewBox="0 0 381 53" fill="none" xmlns="http://www.w3.org/2000/svg">
<path d="M6.63554 18.2055C7.74378 13.444 7.60597 9.29568 6.32774 8.9399C5.0495 8.58412 3.11489 12.1556 2.00665 16.9171C0.898406 21.6786 1.03621 25.8269 2.31445 26.1827C3.59268 26.5385 5.5273 22.967 6.63554 18.2055Z" fill="white"/>
<path d="M2.62992 26.425C2.50622 26.4458 2.38253 26.4354 2.25884 26.4042C1.52619 26.1961 1.10753 25.0931 1.05044 23.2098C0.993353 21.441 1.25977 19.1831 1.7926 16.8628C2.33495 14.5425 3.08663 12.4198 3.91443 10.9007C4.79931 9.27752 5.64614 8.51796 6.37879 8.72606C7.11144 8.93416 7.53009 10.0371 7.58718 11.9204C7.64427 13.6892 7.37785 15.9471 6.84502 18.2674C6.30267 20.5878 5.55099 22.7104 4.7232 24.2295C3.99055 25.5822 3.27693 26.3313 2.62992 26.425ZM6.0648 9.15266C5.02767 9.30874 3.28644 12.347 2.21126 16.9668C1.67843 19.2455 1.42152 21.4514 1.47861 23.1786C1.5357 24.7706 1.86872 25.8007 2.3635 25.9359C3.36256 26.2169 5.27506 23.0746 6.42636 18.1322C6.9592 15.8535 7.2161 13.6476 7.15901 11.9204C7.10192 10.3284 6.7689 9.29833 6.27413 9.16307C6.20752 9.14226 6.14092 9.14226 6.0648 9.15266Z" fill="white"/>
<path d="M17.5017 26.5191H17.4636L3.64798 25.6659C3.5338 25.6659 3.43865 25.5515 3.44817 25.4162C3.44817 25.2913 3.55283 25.1873 3.67652 25.1977L17.4541 26.0405C18.7767 25.6243 19.9375 24.0011 20.4228 21.8993C20.908 19.7975 20.6035 17.7685 19.6235 16.7072L7.09238 10.4954C6.98771 10.4434 6.94014 10.3081 6.98771 10.1833C7.03529 10.0688 7.15898 10.0168 7.27316 10.0688L19.8709 16.3118L19.8994 16.343C21.0222 17.5292 21.3742 19.7038 20.8414 22.0138C20.2991 24.3341 19.0336 26.0509 17.5397 26.5087H17.5017V26.5191Z" fill="white"/>
<path d="M20.7181 22.4927C24.4099 23.3563 27.9019 24.9483 30.7563 27.0917C31.6032 27.7264 32.3834 28.4132 33.097 29.1311C34.3339 28.4548 35.6089 27.8201 36.8744 27.1958C37.588 26.842 38.3017 26.4882 39.0058 26.1241C38.6632 25.7911 38.3302 25.4373 38.0067 25.0732C34.4196 20.984 31.6888 12.6392 33.3539 6.71872C34.3244 3.27466 36.6746 1.03759 40.138 0.236402C43.5729 -0.554379 46.5891 0.652602 48.6348 3.64924C49.8908 5.48053 50.6806 7.88408 50.8709 10.4125C51.0612 12.9617 50.6235 15.4693 49.6339 17.4671C47.5406 21.6915 43.7632 24.1471 39.767 26.2385C45.2666 31.2329 52.6311 31.3162 62.7359 26.5611C62.8406 26.509 62.9738 26.5611 63.0214 26.6859C63.069 26.8004 63.0214 26.9461 62.9072 26.9981C57.9404 29.3392 53.7253 30.4838 50.005 30.515C47.7404 30.5358 45.6186 30.13 43.7061 29.3184C42.1457 28.6525 40.6899 27.6952 39.3483 26.457C38.5776 26.8524 37.8069 27.2374 37.0362 27.612C35.8278 28.2051 34.6099 28.819 33.4205 29.4641C35.3045 31.4514 36.7032 33.7197 37.5214 36.1545C38.7393 39.7442 37.9591 43.6461 35.5899 45.852C34.667 46.7052 33.5632 47.2462 32.3739 47.4231C32.2312 47.4439 32.0884 47.4647 31.9362 47.4751C30.4424 47.5792 28.9009 47.1422 27.3405 46.1745C25.4565 45.0092 24.3243 43.2715 24.0864 41.1489C23.7914 38.5893 24.8286 35.7903 26.8552 33.6573C28.5108 31.9196 30.5375 30.5566 32.6784 29.3496C29.2435 25.968 24.6097 23.8766 20.5659 22.9297C20.5183 22.9193 20.6705 22.4719 20.7086 22.4823L20.7181 22.4927ZM33.0209 29.693C30.8515 30.9 28.8058 32.263 27.1502 34.0007C25.2472 35.9984 24.2386 38.7141 24.5051 41.0969C24.7334 43.0634 25.78 44.6762 27.5498 45.7687C30.4043 47.5376 33.2302 47.4439 35.314 45.5086C37.55 43.4276 38.2731 39.7442 37.1218 36.3314C36.2464 33.7405 34.8002 31.5347 33.0209 29.7034V29.693ZM40.9658 0.548552C40.728 0.579767 40.4806 0.631792 40.2332 0.683817C36.8744 1.46419 34.705 3.53479 33.7631 6.85399C32.1455 12.608 34.8097 20.7551 38.3112 24.7402C38.6727 25.1564 39.0438 25.5414 39.4244 25.9056C43.4207 23.8246 47.2076 21.4002 49.2724 17.2486C51.2229 13.3155 50.8042 7.58234 48.3113 3.93018C46.513 1.30812 43.9345 0.121947 40.9754 0.558957L40.9658 0.548552Z" fill="white"/>
<path d="M72.8408 13.8968C72.936 13.1164 73.1738 12.5962 73.564 12.4401C74.8009 11.9407 77.0845 15.3015 78.6639 19.9525C80.2434 24.6036 80.5193 28.776 79.2824 29.2858C78.8923 29.4419 78.407 29.2234 77.8647 28.7031L78.1406 25.5296L77.0083 20.9514L75.1529 17.0079L72.8408 13.8968Z" fill="white"/>
<path d="M79.1388 29.5575C78.7201 29.6199 78.2444 29.391 77.7115 28.8708C77.6259 28.7875 77.6164 28.6419 77.6925 28.5378C77.7686 28.4442 77.9018 28.4338 77.997 28.517C78.3395 28.85 78.8248 29.2141 79.1959 29.0581C79.6811 28.8604 79.9095 27.7886 79.8048 26.1863C79.6906 24.4486 79.2149 22.2636 78.4537 20.0369C77.702 17.8102 76.76 15.8125 75.8086 14.4078C74.9332 13.1176 74.1244 12.4621 73.6296 12.6598C73.2586 12.8158 73.1063 13.4297 73.0397 13.9292C73.0207 14.054 72.916 14.1477 72.8018 14.1269C72.6877 14.1061 72.602 13.9916 72.6211 13.8667C72.7352 12.9615 73.0207 12.41 73.4774 12.2228C74.1815 11.9418 75.1045 12.5973 76.1416 14.1269C77.1121 15.5628 78.0731 17.6021 78.8438 19.8704C79.6145 22.1387 80.0998 24.3654 80.2235 26.1551C80.3472 28.0592 80.0427 29.2141 79.3386 29.5055C79.272 29.5367 79.2054 29.5471 79.1293 29.5575H79.1388Z" fill="white"/>
<path d="M61.0638 22.6289C60.967 22.6475 60.8767 22.6142 60.8155 22.5374C60.73 22.4319 60.7621 22.2959 60.8645 22.2154L73.3299 13.5335C73.4432 13.452 73.5878 13.4807 73.6724 13.576C73.758 13.6814 73.7259 13.8175 73.6234 13.898L61.158 22.5799C61.158 22.5799 61.0955 22.616 61.063 22.6188L61.0638 22.6289Z" fill="white"/>
<path d="M64.7014 32.2206C64.5822 32.2485 64.473 32.1368 64.4531 31.9694C64.4333 31.8019 64.5127 31.6344 64.6319 31.6065L78.2873 28.201C78.4065 28.1731 78.5257 28.2847 78.5455 28.4522C78.5654 28.6197 78.4859 28.7872 78.3668 28.8151L64.7113 32.2206H64.7014Z" fill="white"/>
<path d="M65.3714 32.2151C64.045 32.3693 62.3462 30.1693 61.3572 27.887C60.7987 26.5917 60.4613 25.3067 60.4264 24.2683C60.3799 23.1272 60.6824 22.4179 61.2874 22.2123C61.9041 22.0067 62.6604 22.3562 63.4865 23.2403C64.2428 24.0422 64.9642 25.1936 65.5227 26.4889C66.5699 28.9048 66.9422 31.7113 65.5925 32.174C65.5227 32.1945 65.4412 32.2151 65.3714 32.2254V32.2151ZM61.5783 22.6132C61.5783 22.6132 61.5085 22.6235 61.4852 22.6338C61.1129 22.7571 60.9151 23.3637 60.9616 24.2478C61.0082 25.245 61.3223 26.4786 61.8576 27.7226C62.9629 30.2824 64.522 31.845 65.3132 31.7525C65.3482 31.7525 65.3831 31.7422 65.418 31.7319C66.1743 31.4749 66.2092 29.3263 65.0456 26.6431C64.5104 25.3992 63.8123 24.2889 63.0909 23.5282C62.5091 22.901 61.9506 22.5721 61.5783 22.6235V22.6132Z" fill="white"/>
<path d="M78.038 28.1962C78.038 28.1962 77.9584 28.1962 77.9187 28.177C77.8093 28.1289 77.7596 28.0038 77.8093 27.8883C78.3959 26.6376 78.0678 24.0687 76.9542 21.1822C75.8307 18.2766 74.1603 15.7077 72.5893 14.4858C72.4899 14.4088 72.48 14.2741 72.5595 14.1779C72.639 14.0817 72.7782 14.0721 72.8777 14.149C74.5381 15.4383 76.2184 18.0168 77.3817 21.0283C78.555 24.059 78.8632 26.6953 78.2169 28.0615C78.1871 28.1289 78.1175 28.177 78.038 28.1866V28.1962Z" fill="white"/>
<path d="M121.853 11.3599C121.51 10.9957 121.111 10.6627 120.616 10.5067C120.178 10.2777 119.636 10.1737 119.084 10.1737C118.494 10.1737 117.999 10.2777 117.514 10.5067C117.067 10.6627 116.629 10.9957 116.325 11.3078C115.982 11.6824 115.735 12.1715 115.535 12.6501C115.392 13.1912 115.288 13.7842 115.288 14.3773C115.288 15.0224 115.383 15.5531 115.535 16.1046C115.735 16.5832 115.982 17.0722 116.325 17.4468C116.667 17.8318 117.067 18.0919 117.514 18.3C117.952 18.5185 118.494 18.5705 119.084 18.5705C119.636 18.5705 120.169 18.5185 120.616 18.3C121.111 18.0919 121.51 17.8318 121.805 17.4468C122.148 17.0722 122.395 16.6352 122.595 16.1046C122.785 15.5635 122.842 15.0224 122.842 14.3773C122.842 13.7842 122.795 13.1912 122.595 12.6501C122.443 12.1715 122.148 11.7344 121.843 11.3599M120.426 16.3647C120.083 16.8017 119.636 17.0722 119.084 17.0722C118.703 17.0722 118.361 16.9682 118.056 16.7497C117.809 16.5312 117.562 16.2086 117.409 15.834C117.257 15.397 117.21 14.9184 117.21 14.3877C117.21 13.8571 117.257 13.368 117.409 12.9935C117.552 12.5564 117.809 12.2443 118.104 12.0154C118.351 11.8073 118.694 11.6928 119.084 11.6928C119.636 11.6928 120.074 11.9634 120.426 12.442C120.768 12.8894 120.968 13.5761 120.968 14.3877C120.968 15.2513 120.768 15.886 120.426 16.3751" fill="white"/>
<path d="M321.417 10.1635L320.742 10.4965C320.59 10.7046 320.494 10.9855 320.494 11.4121V13.9509C320.494 14.9082 320.437 15.5533 320.342 15.8759L319.695 16.6771L318.82 16.9476C318.468 16.9476 318.23 16.8852 318.03 16.6771L317.63 15.9279C317.535 15.6053 317.535 15.1683 317.535 14.7417V11.4121C317.535 10.9855 317.431 10.7046 317.24 10.4965L316.555 10.1635L315.861 10.4965C315.718 10.6526 315.623 10.9855 315.623 11.4121V15.5013C315.623 16.3649 315.718 16.958 315.965 17.3846C316.165 17.7696 316.451 18.0921 316.803 18.2586C317.193 18.4563 317.583 18.5708 318.04 18.5708C318.43 18.5708 318.772 18.5187 319.077 18.4147L319.914 17.9257L320.599 17.1765V17.447C320.599 17.8216 320.694 18.0921 320.846 18.3002L321.484 18.5708L322.131 18.3002C322.321 18.0921 322.369 17.832 322.369 17.3846V11.4225C322.369 10.9959 322.331 10.663 322.131 10.5069L321.427 10.1739" fill="white"/>
<path d="M328.03 16.8436L327.583 16.9581L327.098 17.0205L326.641 16.8436L326.498 16.4274L326.451 15.6679V11.8492H326.841C327.183 11.8492 327.478 11.7972 327.688 11.6932L327.983 11.1001L327.783 10.5694L327.193 10.3509H326.46V8.95664L326.413 8.15546L326.165 7.66642L325.518 7.39589L325.081 7.51035L324.738 7.87452L324.586 8.36356V10.3613H324.396L323.701 10.5798L323.501 11.1105L323.701 11.6619L324.339 11.87H324.586V15.8552C324.586 16.4899 324.643 16.9893 324.738 17.4055C324.843 17.7801 325.033 18.061 325.338 18.2795C325.633 18.4772 326.07 18.5917 326.66 18.5917C327.298 18.5917 327.792 18.5397 328.135 18.3212C328.439 18.1651 328.63 17.9362 328.63 17.5616L328.439 17.0934L328.04 16.8644" fill="white"/>
<path d="M113.622 15.6691C113.374 15.1904 113.079 14.7534 112.737 14.3268C112.394 13.8898 112.042 13.6297 111.7 13.4112C112.585 13.1927 113.222 12.8181 113.622 12.3291C114.069 11.8504 114.259 11.1533 114.259 10.3417C114.259 9.95673 114.212 9.54053 114.117 9.21797C113.964 8.84339 113.774 8.51043 113.527 8.25031C113.279 7.96937 113.032 7.75087 112.68 7.6052C112.442 7.49074 112.147 7.38669 111.795 7.33467C111.443 7.33467 111.053 7.28264 110.606 7.28264H107.256C106.819 7.28264 106.467 7.38669 106.267 7.6052C106.076 7.8133 105.972 8.19828 105.972 8.67691V17.2402C105.972 17.6772 106.076 18.0414 106.267 18.2703C106.419 18.468 106.666 18.5825 107.009 18.5825L107.742 18.2703C107.941 18.0518 108.046 17.7293 108.046 17.2402V13.6817H108.779C109.131 13.6817 109.426 13.7337 109.673 13.8482L110.111 14.1187L110.406 14.3789C110.606 14.7118 110.901 15.1384 111.205 15.6691L112.033 17.1778L112.49 17.9894L112.88 18.416L113.479 18.5721L113.974 18.468L114.364 18.1559L114.469 17.7293C114.469 17.5524 114.412 17.2923 114.259 16.9073C114.117 16.5223 113.917 16.1061 113.622 15.6691ZM111.157 11.8921C110.872 11.9545 110.52 12.0065 110.12 12.0065L109.93 12.0689H108.056V8.99947H110.12C110.767 8.99947 111.157 9.04109 111.405 9.16595L111.995 9.6966L112.195 10.5082C112.195 10.8828 112.09 11.2053 111.947 11.4238C111.747 11.6527 111.509 11.8088 111.157 11.9025" fill="white"/>
<path d="M142.262 15.7302V13.3579C142.262 12.5983 142.167 11.9532 141.957 11.5162C141.767 11.0479 141.415 10.715 140.968 10.4965C140.482 10.278 139.835 10.1635 138.998 10.1635H138.798C138.161 10.1635 137.561 10.2676 137.124 10.4965C136.629 10.7046 136.239 10.9751 135.991 11.3601L135.649 12.3798L135.896 12.9729L136.439 13.1914L136.886 13.0873L137.276 12.4942L137.913 11.8491C138.113 11.6827 138.408 11.6306 138.798 11.6306L138.998 11.5786C139.541 11.5786 139.931 11.7347 140.073 12.0052C140.273 12.2237 140.368 12.6503 140.368 13.1914C139.969 13.2954 139.636 13.4099 139.284 13.5243L138.789 13.6284L138.047 13.7845C137.552 13.8989 137.257 14.0134 137.162 14.0134C136.562 14.1694 136.125 14.44 135.782 14.8146C135.487 15.2516 135.287 15.7302 135.287 16.2609C135.287 16.6875 135.383 17.0724 135.582 17.4574C135.782 17.78 136.068 18.1025 136.477 18.3106C136.819 18.4771 137.266 18.5812 137.752 18.5812C138.094 18.5812 138.446 18.5812 138.789 18.4771L139.188 18.3106C139.626 18.1025 140.073 17.832 140.521 17.4574C140.72 17.832 140.911 18.1025 141.11 18.3106L141.7 18.5812L142.29 18.3627L142.585 17.78C142.585 17.6759 142.538 17.343 142.395 16.9788C142.3 16.5418 142.243 16.1152 142.243 15.751M140.387 14.7521C140.387 15.4493 140.34 15.9903 140.14 16.2609L139.455 16.9684L138.808 17.2389H138.418C138.066 17.2389 137.771 17.1245 137.571 16.906L137.228 16.1048L137.523 15.4076L138.066 15.0851C138.208 15.0227 138.456 14.9706 138.808 14.8666L139.207 14.825C139.702 14.6585 140.14 14.544 140.387 14.4504V14.7729V14.7521Z" fill="white"/>
<path d="M133.784 10.164L133.251 10.3304L133.004 10.705L132.804 11.4646L131.577 16.0948L130.435 11.7871C130.292 11.3501 130.187 11.038 130.14 10.8611L129.797 10.3825L129.16 10.164L128.522 10.3825L128.18 10.8611C128.123 11.038 128.018 11.3501 127.923 11.7871L126.791 16.0948L125.563 11.4646C125.411 10.986 125.316 10.653 125.164 10.4449C125.068 10.268 124.869 10.164 124.526 10.164L123.936 10.4449L123.689 11.038C123.689 11.1837 123.793 11.5062 123.936 11.9952L125.458 16.948L125.658 17.4891L125.906 18.0718L126.248 18.4359L126.781 18.5504C127.181 18.5504 127.476 18.4359 127.618 18.1238C127.818 17.8533 127.961 17.4267 128.113 16.8752L129.15 12.8485L130.235 16.8752C130.33 17.2498 130.378 17.5203 130.482 17.7388L130.834 18.3215L131.519 18.54L132.205 18.3215L132.547 17.8429C132.595 17.6868 132.69 17.3538 132.842 16.9272L134.364 11.9744C134.517 11.5478 134.621 11.2253 134.621 11.0172L134.364 10.4241L133.775 10.1432" fill="white"/>
<path d="M211.873 7.42697L211.235 7.16685L210.54 7.4894L210.245 8.18654L210.54 8.9357L211.235 9.21663L211.873 8.9357L212.177 8.18654L211.873 7.42697Z" fill="white"/>
<path d="M339.221 11.3599C338.926 10.9957 338.536 10.6627 338.041 10.5067C337.594 10.2777 337.051 10.1737 336.509 10.1737H336.462C335.929 10.1737 335.377 10.2777 334.939 10.5067C334.444 10.6627 334.054 10.9957 333.75 11.3078C333.407 11.6824 333.15 12.1715 332.96 12.6501C332.808 13.1912 332.713 13.7842 332.713 14.3773C332.713 15.0224 332.808 15.5531 332.96 16.1046C333.16 16.5832 333.407 17.0722 333.75 17.4468C334.092 17.8318 334.492 18.0919 334.939 18.3C335.377 18.5185 335.919 18.5705 336.462 18.5705H336.509C337.051 18.5705 337.594 18.5185 338.041 18.3C338.488 18.0919 338.935 17.8318 339.221 17.4468C339.573 17.0722 339.82 16.6352 340.011 16.1046C340.163 15.5635 340.248 15.0224 340.248 14.3773C340.248 13.7842 340.163 13.1912 340.011 12.6501C339.811 12.1715 339.563 11.7344 339.221 11.3599ZM337.851 16.3647C337.499 16.8017 337.051 17.0722 336.509 17.0722H336.462C336.119 17.0722 335.776 16.9682 335.491 16.7497C335.234 16.5312 334.996 16.2086 334.844 15.834C334.692 15.397 334.644 14.9184 334.644 14.3877C334.644 13.8571 334.692 13.368 334.844 12.9935C334.996 12.5564 335.234 12.2443 335.491 12.0154C335.776 11.8073 336.119 11.6928 336.462 11.6928H336.509C337.051 11.6928 337.499 11.9634 337.851 12.442C338.193 12.8894 338.393 13.5761 338.393 14.3877C338.393 15.2513 338.193 15.886 337.851 16.3751" fill="white"/>
<path d="M211.188 10.1635L210.503 10.4965C210.351 10.7046 210.255 10.9855 210.255 11.4121V17.3326C210.255 17.7592 210.351 18.0297 210.503 18.2586L211.188 18.5708L211.873 18.3002C212.082 18.0921 212.177 17.7696 212.177 17.343V11.3601C212.177 10.9959 212.082 10.715 211.873 10.5069L211.188 10.1739" fill="white"/>
<path d="M103.611 13.463H101.432C101.099 13.463 100.804 13.5151 100.652 13.7232L100.404 14.3683L100.652 15.0134C100.852 15.1695 101.099 15.2839 101.432 15.2839H103.611C103.953 15.2839 104.201 15.1695 104.401 15.0134L104.648 14.3683L104.401 13.7232C104.201 13.5151 103.953 13.463 103.611 13.463Z" fill="white"/>
<path d="M185.497 7.49074C185.06 7.32426 184.47 7.28264 183.68 7.28264H181.016C180.578 7.28264 180.226 7.38669 180.036 7.6052C179.836 7.8133 179.741 8.20869 179.741 8.67691V17.2298C179.741 17.6668 179.836 18.0414 180.036 18.2599L180.768 18.5721L181.511 18.2599C181.701 18.0518 181.806 17.6668 181.806 17.2298V14.0563H183.68C184.965 14.0563 185.897 13.7754 186.534 13.1927C187.182 12.5996 187.476 11.736 187.476 10.6018C187.476 10.0608 187.419 9.63417 187.277 9.20757C187.124 8.78096 186.877 8.39598 186.582 8.13585C186.287 7.80289 185.887 7.59479 185.497 7.49074ZM185.155 11.684L184.413 12.225C184.175 12.277 183.918 12.3291 183.575 12.3811H181.806V8.98906H183.575C184.27 9.04109 184.765 9.20757 185.012 9.4781C185.25 9.79025 185.402 10.1752 185.402 10.6539C185.402 11.0909 185.307 11.4134 185.155 11.6736" fill="white"/>
<path d="M330.249 7.16685L329.611 7.4894L329.316 8.18654L329.611 8.9461L330.249 9.21663L330.943 8.9461L331.191 8.18654L330.943 7.42697L330.249 7.16685Z" fill="white"/>
<path d="M330.249 10.1635L329.554 10.4965C329.402 10.7046 329.307 10.9855 329.307 11.4121V17.3326C329.307 17.7592 329.402 18.0297 329.554 18.2586L330.249 18.5708L330.943 18.3002C331.086 18.0921 331.191 17.7696 331.191 17.343V11.3601C331.191 10.9959 331.086 10.715 330.943 10.5069L330.249 10.1739" fill="white"/>
<path d="M98.1983 7.11468L97.5037 7.43723C97.361 7.64533 97.2659 7.92627 97.2659 8.34247V17.3324C97.2659 17.759 97.361 18.0295 97.5608 18.2584L98.2078 18.5706L98.8929 18.3001C99.1022 18.092 99.1879 17.759 99.1879 17.3324V8.34247C99.1879 7.91586 99.0927 7.64533 98.8929 7.43723L98.2078 7.11468" fill="white"/>
<path d="M92.9076 9.21649C92.7649 8.84191 92.6603 8.57138 92.6222 8.35287L92.3272 7.75979L91.8229 7.28116L91.1379 7.11468L90.3957 7.28116L89.9485 7.75979L89.5965 8.45692L89.3586 9.21649L86.742 16.4272L86.4946 17.1139L86.447 17.6029L86.742 18.3001L87.4271 18.5706L88.0646 18.3001C88.2073 18.092 88.3595 17.7174 88.5498 17.1659L89.0446 15.7716H93.1836L93.6784 17.1035L93.8782 17.7486L94.1255 18.248L94.4205 18.5082L94.8582 18.5602L95.5433 18.248L95.8382 17.5301C95.8382 17.322 95.7431 16.885 95.5433 16.3439L92.8791 9.19568L92.9076 9.21649ZM91.1379 14.0548H89.606L91.0903 9.48702L91.1379 9.52864L92.6222 14.0548H91.1379Z" fill="white"/>
<path d="M192.499 18.4045L193.289 17.9155L194.031 17.1663V17.4472C194.031 17.8322 194.079 18.0924 194.279 18.3109L194.916 18.5814L195.554 18.3109C195.706 18.0924 195.801 17.8322 195.801 17.3952V11.4123C195.801 10.9857 195.706 10.6528 195.554 10.4967L194.869 10.1637L194.174 10.4967C193.974 10.7048 193.879 10.9753 193.879 11.4123V13.9512C193.879 14.9188 193.832 15.5535 193.736 15.8761L193.137 16.6773C192.842 16.8334 192.557 16.9582 192.204 16.9582L191.472 16.6773L191.025 15.9281C190.987 15.5952 190.929 15.1686 190.929 14.7419V11.4019C190.929 10.9753 190.834 10.7048 190.682 10.4863L190.007 10.1533L189.302 10.4863C189.112 10.632 189.055 10.9649 189.055 11.4019V15.4911C189.055 16.3443 189.16 16.9478 189.398 17.3744C189.597 17.749 189.892 18.0716 190.235 18.238C190.577 18.4461 191.015 18.5502 191.462 18.5502C191.852 18.5502 192.195 18.4982 192.499 18.3837" fill="white"/>
<path d="M224.452 12.1093L225.337 11.7867C225.879 11.7867 226.231 11.9532 226.374 12.3278C226.573 12.6504 226.669 13.1914 226.669 13.8365V17.3326C226.669 18.1962 226.964 18.5708 227.601 18.5708L228.286 18.3003C228.438 18.0922 228.534 17.7696 228.534 17.3326V13.3579C228.534 12.9729 228.534 12.5983 228.486 12.3278L228.181 11.4642C227.982 11.048 227.687 10.715 227.297 10.5069C226.954 10.2884 226.507 10.174 226.022 10.174L225.127 10.278L224.385 10.715L223.643 11.4122V8.34269C223.643 7.91609 223.595 7.64555 223.395 7.42705L222.71 7.10449L222.025 7.42705C221.883 7.63515 221.778 7.90568 221.778 8.34269V17.3326C221.778 18.1962 222.073 18.5708 222.71 18.5708L223.395 18.2587C223.605 18.0506 223.643 17.7696 223.643 17.3326V14.5857C223.643 13.7741 223.69 13.2434 223.833 12.9729C223.938 12.5983 224.138 12.2758 224.433 12.1093" fill="white"/>
<path d="M289.086 14.1076C288.687 13.8891 288.249 13.681 287.649 13.577C287.155 13.4209 286.765 13.3064 286.47 13.2024L285.785 12.8798L285.537 12.3388L285.889 11.7457C286.137 11.5792 286.422 11.4751 286.774 11.4751L287.564 11.6937L288.049 12.1827L288.496 12.7133L288.991 12.8798L289.629 12.6613L289.876 12.0786L289.629 11.4335L289.029 10.7884C288.782 10.6323 288.439 10.4763 288.04 10.3618C287.649 10.2474 287.202 10.1953 286.765 10.1953C286.127 10.1953 285.585 10.3098 285.138 10.5283C284.69 10.7364 284.348 11.0694 284.148 11.4439C283.901 11.7665 283.805 12.2035 283.805 12.5677C283.805 13.0567 283.91 13.4417 284.148 13.7538C284.395 14.0868 284.738 14.3573 285.138 14.555C285.585 14.7215 286.07 14.94 286.765 15.0961C287.307 15.2626 287.745 15.4186 287.992 15.5747C288.239 15.7516 288.382 16.0117 288.382 16.3863L287.992 16.9794C287.745 17.1875 287.45 17.2499 287.06 17.2499C286.612 17.2499 286.222 17.1875 285.965 16.9794C285.68 16.8233 285.433 16.5424 285.233 16.1678L284.938 15.7516L284.491 15.5747L283.948 15.7932L283.691 16.3759C283.691 16.7505 283.796 17.0834 284.043 17.406C284.291 17.7806 284.633 18.0615 285.128 18.2696C285.613 18.4777 286.203 18.5818 286.898 18.5818C287.592 18.5818 288.182 18.4777 288.677 18.3112C289.172 18.0927 289.571 17.7702 289.819 17.3436C290.066 16.969 290.209 16.48 290.209 15.8973C290.209 15.5227 290.114 15.1897 289.914 14.8672C289.714 14.6071 289.467 14.3365 289.077 14.118" fill="white"/>
<path d="M203.547 10.6528C203.1 10.3303 202.548 10.1638 201.92 10.1638L201.321 10.2158L200.54 10.4968C200.141 10.7049 199.798 11.0378 199.456 11.454V8.28049C199.456 7.8955 199.351 7.58335 199.199 7.36484L198.514 7.09431L197.876 7.41687C197.724 7.62497 197.629 7.94753 197.629 8.33251V17.3745C197.629 17.8115 197.724 18.082 197.876 18.2901L198.514 18.5606L199.199 18.2901C199.351 18.082 199.456 17.8115 199.456 17.3745V17.2184L199.951 17.8115L200.398 18.1965L201.092 18.4566L201.33 18.5606H201.882C202.377 18.5606 202.815 18.4566 203.205 18.2901C203.604 18.082 203.947 17.7594 204.194 17.3745C204.489 17.0103 204.689 16.5108 204.841 16.0322C204.993 15.4912 205.089 14.8981 205.089 14.3154C205.089 13.4518 204.936 12.6922 204.698 12.0991C204.451 11.454 204.061 10.9754 203.566 10.6528M202.662 16.3132C202.31 16.8022 201.873 17.0207 201.435 17.0207H201.33C200.835 16.9687 200.398 16.7502 200.055 16.3132C199.713 15.8865 199.56 15.2414 199.56 14.4298C199.56 13.8888 199.608 13.4102 199.76 12.9731C199.951 12.5882 200.15 12.276 200.445 12.0575L201.33 11.7245H201.435C201.777 11.7245 202.072 11.839 202.31 12.0575C202.605 12.2656 202.805 12.5257 202.957 12.9731C203.109 13.3581 203.157 13.8368 203.157 14.3674C203.157 15.231 203.005 15.8761 202.662 16.3027" fill="white"/>
<path d="M295.585 16.8436L295.138 16.9581L294.643 17.0205L294.205 16.8436L294.044 16.4274L293.996 15.6679V11.8492H294.396C294.738 11.8492 295.033 11.7972 295.233 11.6932L295.528 11.1001L295.347 10.5694L294.748 10.3509H293.996V8.95664L293.949 8.15546L293.701 7.66642L293.064 7.39589L292.616 7.51035L292.255 7.87452L292.112 8.36356V10.3613H291.912L291.218 10.5798L291.018 11.1105L291.218 11.6619L291.865 11.87H292.103V15.8552C292.103 16.4899 292.15 16.9893 292.245 17.4055C292.35 17.7801 292.55 18.061 292.845 18.2795C293.14 18.4772 293.577 18.5917 294.177 18.5917C294.814 18.5917 295.309 18.5397 295.642 18.3212C295.947 18.1651 296.137 17.9362 296.137 17.5616L295.947 17.0934L295.547 16.8644" fill="white"/>
<path d="M281.199 10.1635L280.504 10.4965C280.361 10.7046 280.257 10.9855 280.257 11.4121V17.3326C280.257 17.7592 280.352 18.0297 280.504 18.2586L281.199 18.5708L281.893 18.3002C282.083 18.0921 282.131 17.7696 282.131 17.343V11.3601C282.131 10.9959 282.083 10.715 281.893 10.5069L281.199 10.1739" fill="white"/>
<path d="M207.343 7.11468L206.658 7.43723C206.516 7.64533 206.42 7.92627 206.42 8.34247V17.3324C206.42 17.759 206.516 18.0295 206.658 18.2584L207.343 18.5706L208.028 18.3001C208.238 18.092 208.276 17.759 208.276 17.3324V8.34247C208.276 7.91586 208.228 7.64533 208.028 7.43723L207.343 7.11468Z" fill="white"/>
<path d="M276.165 17.9883C276.507 17.8323 276.802 17.6034 277.05 17.3328C277.402 16.9583 277.697 16.5733 277.934 16.1467C278.134 15.7201 278.277 15.1686 278.429 14.6379C278.534 14.0969 278.582 13.4622 278.582 12.8067C278.582 10.7569 278.039 9.25855 276.954 8.29088C276.555 7.90589 276.108 7.63536 275.622 7.48969C275.223 7.37524 274.737 7.32321 274.195 7.27119H271.141C270.703 7.27119 270.351 7.38564 270.151 7.59374C269.961 7.80184 269.856 8.18683 269.856 8.66546V16.8022C269.856 17.1664 269.913 17.5097 269.961 17.7178L270.304 18.1964C270.494 18.3525 270.798 18.4046 271.188 18.4046H274.195C274.538 18.4046 274.842 18.3525 275.128 18.3005C275.47 18.2485 275.822 18.1444 276.165 17.9779M274.29 16.5733H274.195L273.51 16.6357H271.931V9.05045H273.31L274.195 9.10247L274.88 9.26895C275.337 9.43543 275.718 9.81001 276.012 10.3407C276.307 10.8817 276.46 11.6933 276.46 12.8171C276.46 14.3778 276.117 15.4495 275.423 16.0946L274.88 16.4276L274.29 16.5837" fill="white"/>
<path d="M263.948 18.5716L264.528 18.3011L264.823 17.6664L264.68 17.167C264.585 17.0733 264.386 16.8444 263.986 16.5218C263.596 16.1993 263.358 15.9392 263.158 15.7831C263.453 15.2941 263.653 14.857 263.796 14.4408C263.948 14.0142 263.986 13.7333 263.986 13.4732L263.748 12.8801L263.206 12.5992L262.673 12.8801C262.521 13.0258 262.368 13.3067 262.216 13.7333C262.111 14.1183 261.969 14.3784 261.921 14.4929L261.426 13.9622L260.846 13.2027L260.208 12.339C260.846 11.902 261.388 11.4754 261.731 11.0592C262.073 10.6638 262.226 10.1852 262.226 9.59211C262.226 9.16551 262.121 8.79093 261.931 8.41635C261.683 8.04177 261.388 7.70881 260.941 7.44868C260.551 7.24058 260.056 7.12613 259.466 7.12613H259.419C258.829 7.12613 258.334 7.23018 257.896 7.44868C257.459 7.65678 257.154 7.98974 256.907 8.36432C256.717 8.74931 256.564 9.17591 256.564 9.65454C256.564 10.0395 256.669 10.4661 256.859 10.7887C257.011 11.1737 257.306 11.5899 257.649 12.0789C257.259 12.2974 256.907 12.5055 256.612 12.776L255.87 13.4836L255.384 14.3472C255.28 14.6698 255.232 14.9819 255.232 15.3565C255.232 15.8039 255.28 16.1681 255.489 16.5427C255.632 16.9276 255.832 17.3022 256.127 17.5728C256.469 17.8953 256.821 18.1762 257.316 18.3219C257.754 18.53 258.296 18.5924 258.838 18.5924H259.476L260.075 18.4884C260.465 18.3843 260.808 18.2283 261.103 18.0722C261.445 17.8537 261.74 17.5832 262.045 17.2606C262.73 17.8537 263.177 18.2283 263.377 18.3843L263.967 18.6028M258.667 8.78052L259.457 8.45797C259.799 8.45797 260.056 8.56202 260.247 8.78052L260.599 9.54009L260.247 10.3933C260.104 10.5702 259.809 10.7783 259.457 11.0592L259.266 11.2153L258.772 10.5702L258.467 10.0291L258.315 9.55049L258.667 8.79093M260.199 16.5739L259.561 16.9589H259.457L258.867 17.0733L258.172 16.9068L257.63 16.4698L257.24 15.8767L257.145 15.242C257.145 14.805 257.24 14.4825 257.497 14.1599C257.735 13.8894 258.077 13.5668 258.534 13.2963C258.876 13.7229 259.219 14.1599 259.466 14.4825L259.714 14.805C260.066 15.1692 260.408 15.6062 260.855 16.0432L260.218 16.5843" fill="white"/>
<path d="M239.095 13.8881V17.3425C239.095 17.7691 239.18 18.0397 239.389 18.2686L240.027 18.5807L240.722 18.3102C240.912 18.1021 241.017 17.7795 241.017 17.3529V13.4823C241.017 13.0349 240.969 12.6603 240.912 12.3897L240.664 11.5261C240.522 11.0995 240.227 10.777 239.827 10.5689C239.428 10.2879 238.99 10.1839 238.447 10.1839C237.953 10.1839 237.515 10.2879 237.115 10.5168C236.725 10.7249 236.326 11.0995 235.983 11.5886V11.318L235.888 10.7249L235.536 10.2879L235.089 10.1839L234.451 10.4648C234.299 10.6729 234.204 10.9434 234.204 11.37V17.3529C234.204 17.7795 234.309 18.0501 234.499 18.279L235.146 18.5911L235.84 18.3206C236.031 18.1125 236.135 17.7899 236.135 17.3633V14.7725C236.135 13.9089 236.183 13.3262 236.278 13.0453C236.373 12.6707 236.583 12.3481 236.868 12.1296C237.172 11.9215 237.458 11.8175 237.8 11.8175C238.305 11.8175 238.638 11.9735 238.838 12.3481C238.99 12.6707 239.095 13.2117 239.095 13.9089" fill="white"/>
<path d="M281.893 7.42697L281.199 7.16685L280.552 7.4894L280.257 8.18654L280.552 8.9357L281.199 9.21663L281.893 8.9357L282.131 8.18654L281.893 7.42697Z" fill="white"/>
<path d="M248.952 10.1637L248.315 10.4447C248.163 10.6424 248.077 10.9233 248.077 11.2979V11.5684C247.782 11.069 247.382 10.7464 246.992 10.4863L246.193 10.2158L245.603 10.1533C245.156 10.1533 244.728 10.2678 244.376 10.4343C243.986 10.5799 243.643 10.8609 243.338 11.2355C243.101 11.5684 242.853 11.9846 242.701 12.4737C242.558 12.9627 242.454 13.5558 242.454 14.1385C242.454 15.0021 242.606 15.7616 242.844 16.3443C243.091 16.9998 243.481 17.4889 243.928 17.853C244.423 18.238 244.966 18.3837 245.603 18.3837L246.193 18.3317L246.992 18.0195C247.335 17.8114 247.677 17.4889 247.982 17.0519C247.982 17.697 247.982 18.1756 247.925 18.4982L247.782 19.3722L247.192 20.0069C246.945 20.1109 246.602 20.1734 246.202 20.215H246.06L245.413 20.1109L244.918 19.8924L244.585 19.5699L244.233 19.1329L243.548 18.7687L242.958 18.9768L242.711 19.6219L243.167 20.6C243.405 20.9225 243.805 21.141 244.338 21.3491C244.842 21.5676 245.422 21.6821 246.069 21.6821H246.212C246.859 21.6301 247.401 21.5676 247.887 21.4012C248.334 21.2451 248.724 21.0266 249.019 20.6936C249.314 20.3815 249.561 19.9549 249.666 19.4762C249.809 18.9768 249.866 18.3837 249.866 17.697V11.6621C249.866 11.1834 249.818 10.7984 249.713 10.5383C249.561 10.2574 249.314 10.1533 248.971 10.1533M247.772 15.7824C247.573 16.157 247.325 16.4276 247.078 16.5836L246.193 16.8438C245.651 16.8438 245.213 16.6357 244.87 16.1986C244.528 15.7824 244.376 15.179 244.376 14.3257C244.376 13.5246 244.528 12.8795 244.87 12.38C245.156 11.9534 245.603 11.7349 246.145 11.7349H246.193C246.735 11.7349 247.183 11.9534 247.535 12.432C247.83 12.9211 248.029 13.5662 248.029 14.3674C248.029 14.9188 247.934 15.3871 247.782 15.772" fill="white"/>
<path d="M348.393 12.3798L348.155 11.5162C348.003 11.0896 347.717 10.7566 347.318 10.5485C346.928 10.2676 346.48 10.1635 345.929 10.1635C345.443 10.1635 345.006 10.278 344.596 10.4965C344.206 10.7046 343.807 11.0792 343.455 11.5682V11.3081L343.36 10.715L343.017 10.278L342.57 10.1635L341.932 10.4445C341.78 10.6421 341.685 10.9231 341.685 11.3497V17.3222C341.685 17.7488 341.78 18.0193 341.98 18.2378L342.627 18.55L343.312 18.2794C343.512 18.0609 343.607 17.7384 343.607 17.3118V14.7313C343.607 13.8677 343.655 13.2746 343.759 13.0041C343.854 12.6295 344.054 12.3069 344.349 12.0884C344.644 11.8699 344.939 11.7659 345.282 11.7659C345.767 11.7659 346.119 11.922 346.319 12.2965C346.471 12.6191 346.557 13.1602 346.557 13.8573V17.3118C346.557 17.7384 346.661 18.0089 346.852 18.2274L347.489 18.5395L348.184 18.269C348.374 18.0505 348.479 17.728 348.479 17.3014V13.4307C348.479 12.9833 348.431 12.6087 348.383 12.3382" fill="white"/>
<path d="M160.997 16.0944C161.197 16.573 161.444 17.0724 161.787 17.4366C162.129 17.8216 162.529 18.0817 162.976 18.3002C163.414 18.5083 163.956 18.5708 164.498 18.5708H164.546C165.088 18.5708 165.631 18.5187 166.068 18.3002C166.563 18.0921 166.953 17.8216 167.258 17.4366C167.6 17.062 167.848 16.625 168.047 16.0944C168.19 15.5533 168.295 15.0123 168.295 14.3671C168.295 13.7741 168.19 13.181 168.047 12.6399C167.848 12.1613 167.6 11.7243 167.258 11.3497C166.963 10.9855 166.573 10.6526 166.068 10.4965C165.631 10.2676 165.088 10.1635 164.546 10.1635H164.498C163.947 10.1635 163.414 10.2676 162.976 10.4965C162.491 10.6526 162.091 10.9855 161.787 11.2977C161.444 11.6722 161.197 12.1613 160.997 12.6399L160.902 13.0145C160.807 13.3995 160.75 13.8781 160.75 14.3671C160.75 14.8562 160.807 15.3348 160.902 15.7718L160.997 16.084M162.871 12.9729C163.024 12.5359 163.261 12.2237 163.556 11.9948C163.804 11.7867 164.146 11.6722 164.498 11.6722H164.546C165.088 11.6722 165.536 11.9428 165.878 12.4214C166.221 12.8688 166.42 13.5556 166.42 14.3671C166.42 15.2308 166.221 15.8655 165.878 16.3545C165.536 16.7915 165.088 17.062 164.546 17.062H164.498C164.156 17.062 163.804 16.9476 163.509 16.7291C163.261 16.5106 163.024 16.188 162.871 15.8134C162.719 15.3764 162.672 14.8978 162.672 14.3567C162.672 13.8157 162.719 13.337 162.871 12.9625" fill="white"/>
<path d="M304.072 7.16685L303.377 7.4894L303.083 8.18654L303.377 8.9461L304.072 9.21663L304.719 8.9461L305.005 8.18654L304.719 7.42697L304.072 7.16685Z" fill="white"/>
<path d="M149.417 17.395C149.417 17.8217 149.465 18.0922 149.655 18.3003L150.302 18.5708L150.94 18.3003C151.092 18.0922 151.187 17.8217 151.187 17.395V8.29066C151.187 7.90568 151.082 7.59353 150.94 7.37502L150.302 7.10449L149.617 7.42705C149.474 7.63515 149.427 7.96811 149.427 8.39471V11.4538C149.027 11.0376 148.685 10.7046 148.285 10.4965L147.495 10.2156L146.915 10.1636C145.973 10.1636 145.231 10.5486 144.641 11.2457C144.051 11.9948 143.756 13.0145 143.756 14.3152C143.756 14.9083 143.861 15.4909 144.003 15.98C144.146 16.521 144.346 17.0101 144.641 17.3846C144.888 17.7592 145.231 18.0818 145.63 18.2899C146.021 18.4564 146.411 18.5604 146.915 18.5604L147.495 18.5084L147.838 18.446L148.637 17.9673L149.427 17.2182V17.3742L149.417 17.395ZM149.018 15.8239C148.875 16.2505 148.675 16.521 148.38 16.6771L147.486 17.0101C147.143 17.0101 146.848 16.8956 146.544 16.6771C146.249 16.469 146.068 16.1985 145.916 15.8239C145.754 15.3973 145.668 14.9187 145.668 14.3672C145.668 13.8157 145.716 13.3579 145.868 12.9729C146.068 12.5359 146.258 12.2758 146.506 12.0573C146.801 11.8492 147.096 11.7347 147.438 11.7347H147.486L148.38 12.0573C148.675 12.2134 148.865 12.5359 149.018 12.9209C149.218 13.3579 149.265 13.8365 149.265 14.3672C149.265 14.9603 149.218 15.4389 149.018 15.8239Z" fill="white"/>
<path d="M312.846 10.6528C312.36 10.3303 311.808 10.1638 311.171 10.1638L310.629 10.2158C310.276 10.2678 310.039 10.3719 309.791 10.4968C309.449 10.7049 309.049 11.0378 308.707 11.454V8.28049C308.707 7.8955 308.602 7.58335 308.459 7.36484L307.812 7.09431L307.127 7.41687C306.975 7.62497 306.927 7.94753 306.927 8.33251V17.3745C306.927 17.8115 306.975 18.082 307.175 18.2901L307.812 18.5606L308.459 18.2901C308.602 18.082 308.707 17.8115 308.707 17.3745V17.2184L309.201 17.8115L309.696 18.1965L310.343 18.4566L310.629 18.5606H311.171C311.609 18.5606 312.056 18.4566 312.446 18.2901C312.846 18.082 313.188 17.7594 313.483 17.3745C313.721 17.0103 313.978 16.5108 314.121 16.0322C314.263 15.4912 314.32 14.8981 314.32 14.3154C314.32 13.4518 314.216 12.6922 313.93 12.0991C313.673 11.454 313.283 10.9754 312.836 10.6528M311.904 16.3132C311.561 16.8022 311.171 17.0207 310.676 17.0207H310.619C310.086 16.9687 309.629 16.7502 309.287 16.3132C308.944 15.8865 308.792 15.2414 308.792 14.4298C308.792 13.8888 308.897 13.4102 309.04 12.9731C309.192 12.5882 309.439 12.276 309.677 12.0575C309.972 11.839 310.257 11.7245 310.61 11.7245H310.667C311 11.7245 311.304 11.839 311.599 12.0575C311.846 12.2656 312.046 12.5257 312.198 12.9731C312.341 13.3581 312.436 13.8368 312.436 14.3674C312.436 15.231 312.246 15.8761 311.894 16.3027" fill="white"/>
<path d="M217.991 16.9578C217.753 17.1659 217.448 17.2283 217.058 17.2283C216.611 17.2283 216.221 17.1763 215.973 16.9578C215.669 16.7913 215.469 16.5208 215.279 16.1462L214.984 15.73L214.489 15.5531L213.956 15.782L213.709 16.3647C213.709 16.7393 213.852 17.0618 214.042 17.3844C214.289 17.7694 214.641 18.0399 215.127 18.2584C215.621 18.4561 216.211 18.5705 216.906 18.5705C217.6 18.5705 218.228 18.4561 218.723 18.3C219.218 18.0919 219.561 17.7694 219.855 17.3427C220.103 16.9682 220.208 16.4687 220.208 15.886C220.208 15.5115 220.103 15.1889 219.913 14.8664C219.722 14.5958 219.465 14.3253 219.075 14.1068C218.733 13.8883 218.228 13.6802 217.648 13.5761C217.153 13.4201 216.763 13.3056 216.468 13.1912L215.831 12.8686L215.583 12.3275L215.878 11.7344C216.126 11.5784 216.421 11.4639 216.763 11.4639C217.106 11.4639 217.353 11.568 217.553 11.672L218.048 12.1611L218.533 12.7021L219.028 12.8686L219.618 12.6501L219.855 12.0674L219.665 11.4223L219.018 10.7668C218.761 10.6107 218.476 10.4546 218.086 10.3402C217.686 10.2361 217.239 10.1737 216.754 10.1737C216.107 10.1737 215.574 10.2777 215.127 10.5067C214.679 10.7148 214.337 11.0477 214.137 11.4223C213.89 11.7449 213.794 12.1715 213.794 12.546C213.794 13.0247 213.89 13.4097 214.137 13.7322C214.384 14.0548 214.727 14.3253 215.127 14.5334C215.574 14.6999 216.107 14.908 216.754 15.0745C217.344 15.2409 217.743 15.3866 217.981 15.5531C218.219 15.73 218.381 15.9901 218.381 16.3647L217.981 16.9578" fill="white"/>
<path d="M158.979 8.93555C159.074 8.72745 159.331 8.613 159.664 8.613H160.112L160.502 8.67543L160.892 8.45692L161.092 7.96789L160.892 7.54128C160.644 7.21873 160.159 7.11468 159.417 7.11468C158.77 7.11468 158.285 7.1667 157.933 7.38521C157.59 7.54128 157.343 7.81181 157.143 8.1968C156.991 8.56097 156.953 9.11244 156.953 9.75755V10.3402H156.505C155.868 10.3402 155.516 10.6004 155.516 11.0894L155.763 11.6409L156.401 11.849H156.953V17.3428C156.953 17.7694 157.048 18.0399 157.191 18.2688L157.885 18.581L158.58 18.2688C158.77 18.0503 158.827 17.7798 158.827 17.3428V11.849H159.322C159.664 11.849 159.912 11.7969 160.102 11.7449L160.407 11.0998C160.407 10.6108 160.016 10.3506 159.322 10.3506H158.827V9.872C158.827 9.49742 158.884 9.17487 158.97 8.95636" fill="white"/>
<path d="M232.036 7.42697L231.398 7.16685L230.713 7.4894L230.418 8.18654L230.713 8.9357L231.398 9.21663L232.036 8.9357L232.33 8.18654L232.036 7.42697Z" fill="white"/>
<path d="M304.024 10.1635L303.387 10.4965C303.187 10.7046 303.092 10.9855 303.092 11.4121V17.3326C303.092 17.7592 303.187 18.0297 303.387 18.2586L304.024 18.5708L304.719 18.3002C304.919 18.0921 305.005 17.7696 305.005 17.343V11.3601C305.005 10.9959 304.909 10.715 304.719 10.5069L304.024 10.1739" fill="white"/>
<path d="M301.512 10.5067C301.122 10.2777 300.722 10.1737 300.332 10.1737C299.942 10.1737 299.647 10.2777 299.4 10.5067C299.152 10.7148 298.905 11.0477 298.705 11.4743C298.658 11.0477 298.61 10.7148 298.467 10.5067C298.315 10.2777 298.115 10.1737 297.773 10.1737C297.183 10.1737 296.888 10.6523 296.888 11.5784V17.3428C296.888 17.7694 296.935 18.1023 297.145 18.3104L297.83 18.5809L298.515 18.3104C298.667 18.1023 298.762 17.7694 298.762 17.3428V15.6155C298.762 14.96 298.762 14.4918 298.81 14.0652C298.857 13.5761 298.905 13.2016 299 12.931L299.447 12.1819L300.085 11.9634L300.827 12.1194L301.322 12.2339L301.807 12.0154L302.054 11.3703C302.054 11.0061 301.855 10.7252 301.512 10.5171" fill="white"/>
<path d="M231.35 10.1635L230.713 10.4965C230.513 10.7046 230.418 10.9855 230.418 11.4121V17.3326C230.418 17.7592 230.513 18.0297 230.713 18.2586L231.35 18.5708L232.036 18.3002C232.235 18.0921 232.33 17.7696 232.33 17.343V11.3601C232.33 10.9959 232.235 10.715 232.036 10.5069L231.35 10.1739" fill="white"/>
<path d="M174.451 10.5067C174.061 10.2777 173.661 10.1737 173.271 10.1737C172.881 10.1737 172.586 10.2777 172.338 10.5067C172.091 10.7148 171.844 11.0477 171.596 11.4743C171.596 11.0477 171.549 10.7148 171.396 10.5067L170.711 10.1737C170.121 10.1737 169.769 10.6523 169.769 11.5784V17.3428C169.769 17.7694 169.865 18.1023 170.064 18.3104L170.711 18.5809L171.396 18.3104C171.596 18.1023 171.691 17.7694 171.691 17.3428V15.6155C171.691 14.96 171.691 14.4918 171.739 14.0652C171.796 13.5761 171.844 13.2016 171.939 12.931L172.338 12.1819L173.024 11.9634L173.718 12.1194L174.26 12.2339L174.755 12.0154L175.012 11.3703C175.012 11.0061 174.812 10.7252 174.46 10.5171" fill="white"/>
<path d="M154.135 43.1881H135.733C133.611 43.1881 132.546 43.3962 129.605 41.5858C128.045 42.9176 126.523 42.2933 125.428 43.1257C124.753 43.5107 123.592 44.6136 123.592 46.4241C123.592 50.5133 126.104 50.6589 128.254 50.6589C129.748 50.6589 131.052 50.2635 131.87 49.3791V50.4196C131.87 51.3457 130.823 53.0001 127.826 53.0001C124.829 53.0001 121.242 51.7515 121.156 46.7987C121.156 43.0009 123.611 40.4204 127.398 39.9522C126.066 38.0481 123.811 36.4769 122.536 36.144C122.536 35.6653 122.679 34.4167 122.679 33.6259C124.848 32.6167 126.78 30.6917 129.377 30.6917C132.65 30.6917 134.601 32.9184 135.904 33.6676C135.305 35.1763 133.526 38.4747 131.556 40.1915C132.203 40.6077 133.507 40.6909 134.097 40.6909H154.125V43.1881H154.135ZM129.634 38.714C131.08 37.4654 132.146 35.9567 133.45 34.0525C132.06 33.3138 130.823 32.9912 129.748 32.9912C127.265 32.9912 125.628 34.4687 125 34.7705C126.703 35.6549 128.055 37.7671 129.634 38.714ZM155.886 43.1881H136.418V40.6909H155.258C156.59 40.6909 157.322 40.0666 157.408 38.4747V33.0745H158.169C159.444 33.0745 159.834 33.6363 159.834 35.0618V37.4654C159.834 40.2851 158.988 42.98 155.876 43.1881H155.886ZM154.135 46.4241C154.135 45.6229 154.753 44.9882 155.515 44.9882C156.276 44.9882 156.875 45.6125 156.875 46.4241C156.875 47.2357 156.276 47.8496 155.515 47.8496C154.753 47.8496 154.135 47.2253 154.135 46.4241ZM157.351 46.4241C157.351 45.6229 157.969 44.9882 158.769 44.9882C159.473 44.9882 160.12 45.6125 160.12 46.4241C160.12 47.2357 159.473 47.8496 158.769 47.8496C157.979 47.8496 157.351 47.2253 157.351 46.4241ZM168.16 43.3338C168.16 43.7188 168.16 42.5638 168.16 44.6136C168.16 46.6634 166.523 48.3802 164.297 48.3802C163.136 48.3802 162.346 47.8704 162.346 47.0172V46.3305C162.575 46.3617 162.793 46.3929 163.022 46.3929C166.209 46.3929 165.734 44.4576 165.734 40.5765V33.0433H166.495C167.77 33.0433 168.16 33.6051 168.16 35.0306V43.3338ZM165.534 30.0466C165.534 29.2454 166.152 28.6211 166.942 28.6211C167.646 28.6211 168.293 29.2454 168.293 30.0466C168.293 30.8478 167.646 31.4721 166.942 31.4721C166.152 31.4721 165.534 30.8582 165.534 30.0466ZM198.151 43.1881H182.68C182.166 46.0287 179.54 48.3802 175.924 48.3802C174.621 48.3802 173.583 48.0473 173.583 47.0172V45.831C174.04 45.9247 174.516 45.9455 174.992 45.9455C177.427 45.9455 179.939 45.0194 180.301 43.1881C176.847 43.0633 172.223 42.2101 172.223 37.0804C172.223 33.0433 174.316 30.5773 177.589 30.5773C180.672 30.5773 182.784 33.012 182.784 36.633C182.784 40.6077 182.784 40.6389 182.822 40.6909H198.151V43.1881ZM180.577 40.6909C180.577 36.3625 180.805 32.8664 177.332 32.8664C175.61 32.8664 174.478 34.3543 174.478 36.6642C174.478 40.3476 177.132 40.6909 180.577 40.6909ZM202.813 38.6203C202.87 40.0979 203.66 40.6909 204.964 40.6909H205.611V43.1881H204.336C203.175 43.1257 202.242 42.7407 201.595 42.054C200.92 42.7407 200.016 43.1257 198.855 43.1881H197.589V40.6909H198.236C199.559 40.6909 200.301 40.0666 200.387 38.4747V33.0745H201.148C202.414 33.0745 202.813 33.6363 202.813 35.0618V38.6308V38.6203ZM198.379 30.0154C198.379 29.2142 198.998 28.5899 199.768 28.5899C200.539 28.5899 201.12 29.2142 201.12 30.0154C201.12 30.8166 200.53 31.4409 199.768 31.4409C199.007 31.4409 198.379 30.8062 198.379 30.0154ZM201.595 30.0154C201.595 29.2142 202.223 28.5899 203.013 28.5899C203.717 28.5899 204.364 29.2142 204.364 30.0154C204.364 30.8166 203.717 31.4409 203.013 31.4409C202.223 31.4409 201.595 30.8062 201.595 30.0154ZM206.61 43.1881H205.049V40.6909H205.982C207.314 40.6909 208.046 40.0666 208.132 38.4747V25.3227H208.903C210.168 25.3227 210.558 25.8846 210.558 27.3101V37.4654C210.558 40.2851 209.711 42.98 206.61 43.1881ZM216.562 43.1881C215.658 43.1881 215.03 42.6575 215.03 41.4089V25.2915H216.153C216.753 25.2915 217.4 25.8014 217.4 26.5089V43.1777H216.553L216.562 43.1881ZM232.509 38.7348C232.509 40.9303 232.176 42.8344 232.005 43.4275C231.187 46.2472 228.722 48.3802 225.249 48.3802C223.984 48.3802 222.937 48.0473 222.937 47.0172V46.0391C223.394 46.164 223.927 46.216 224.488 46.216C227.285 46.216 229.008 44.9362 229.683 43.1881C226.239 43.0945 221.605 42.2101 221.605 37.0804C221.605 33.0433 223.698 30.5773 226.981 30.5773C231.529 30.5773 232.519 35.0306 232.519 38.7348H232.509ZM229.969 40.6909C229.969 36.3625 230.197 32.8664 226.724 32.8664C224.992 32.8664 223.87 34.3543 223.87 36.6642C223.87 40.3476 226.524 40.6909 229.969 40.6909ZM251.092 43.0945C251.063 43.1881 251.035 43.2506 251.035 43.3338V44.6448C251.035 46.601 249.569 48.4115 247.343 48.4115C246.173 48.4115 245.383 47.9016 245.383 47.0484V46.3721C245.611 46.4033 245.84 46.4345 246.058 46.4345C249.151 46.4345 248.77 44.4784 248.77 40.5869V33.0537H249.531C250.806 33.0537 251.206 33.6155 251.206 35.041V40.4412C251.539 40.6181 251.939 40.7013 252.471 40.7013H261.672V43.1985H251.853C251.568 43.1985 251.311 43.1673 251.082 43.1049L251.092 43.0945ZM261.263 40.6909H264.422V31.5553H265.193C266.468 31.5553 266.858 32.1172 266.858 33.5427V40.6909H269.398C270.731 40.6909 271.463 40.0666 271.549 38.4747V31.5553H272.31C273.585 31.5553 273.985 32.1172 273.985 33.5427C273.985 33.5427 273.985 38.7348 274.004 38.7972C273.985 39.2446 273.918 39.6608 273.832 40.0146C274.736 40.5765 275.612 40.7846 276.373 40.7846C278.095 40.7846 278.58 39.8377 278.628 38.4747V31.5553H279.389C280.664 31.5553 281.064 32.1172 281.064 33.5427V38.6203C281.121 40.0979 281.911 40.6909 283.214 40.6909H283.852V43.1881H282.586C281.425 43.1257 280.322 42.6263 279.675 41.9395C278.97 42.7407 278.009 43.1881 276.792 43.1881C273.909 43.1881 272.833 42.1789 272.691 42.054C272.006 42.7719 271.13 43.1569 270.007 43.1881H261.244V40.6909H261.263ZM269.598 27.0708C269.598 26.28 270.217 25.6453 270.987 25.6453C271.758 25.6453 272.348 26.2696 272.348 27.0708C272.348 27.872 271.749 28.4963 270.987 28.4963C270.226 28.4963 269.598 27.872 269.598 27.0708ZM271.159 24.0221C271.159 23.2105 271.777 22.5966 272.567 22.5966C273.271 22.5966 273.928 23.2105 273.928 24.0221C273.928 24.8337 273.281 25.4476 272.567 25.4476C271.777 25.4476 271.159 24.8233 271.159 24.0221ZM272.824 27.0708C272.824 26.28 273.452 25.6453 274.232 25.6453C274.946 25.6453 275.593 26.2696 275.593 27.0708C275.593 27.872 274.936 28.4963 274.232 28.4963C273.442 28.4963 272.824 27.872 272.824 27.0708ZM288.676 38.6203C288.733 40.0979 289.522 40.6909 290.826 40.6909H291.473V43.1881H290.198C289.037 43.1257 288.105 42.7407 287.458 42.054C286.773 42.7407 285.869 43.1257 284.717 43.1881H283.442V40.6909H284.089C285.422 40.6909 286.154 40.0666 286.24 38.4747V33.0745H287.001C288.276 33.0745 288.666 33.6363 288.666 35.0618V38.6308L288.676 38.6203ZM286.021 30.0466C286.021 29.2454 286.649 28.6211 287.439 28.6211C288.143 28.6211 288.79 29.2454 288.79 30.0466C288.79 30.8478 288.143 31.4721 287.439 31.4721C286.649 31.4721 286.021 30.8582 286.021 30.0466ZM296.145 38.6203C296.202 40.0979 296.992 40.6909 298.295 40.6909H300.598V43.1881H297.677C296.525 43.1257 295.593 42.7407 294.936 42.054C294.261 42.7407 293.357 43.1257 292.196 43.1881H290.921V40.6909H291.568C292.9 40.6909 293.633 40.0666 293.719 38.4747V25.3019H294.489C295.755 25.3019 296.154 25.8742 296.154 27.2893V38.6308L296.145 38.6203ZM301.578 43.1881H298.362V40.6909H300.95C302.272 40.6909 303.015 40.0666 303.1 38.4747V25.3227H303.861C305.136 25.3227 305.536 25.8846 305.536 27.3101V37.4654C305.536 40.2851 304.689 42.98 301.578 43.1881ZM328.733 40.6909V43.1881H319.152C318.467 43.1881 317.991 42.5014 317.991 41.8771V40.6909H326.326C326.212 38.6203 325.004 34.8745 322.91 33.9589C321.997 33.5739 321.236 33.4595 320.684 33.4595C319.751 33.4595 319.238 33.7508 319.238 33.7508L319.637 32.9808C320.141 31.9611 321.074 31.3993 322.511 31.3993C322.511 31.3993 323.985 31.3993 325.337 32.4086C327.687 33.8653 328.733 38.225 328.733 40.6805V40.6909ZM334.728 43.1881C333.824 43.1881 333.196 42.6575 333.196 41.4089V25.2915H334.328C334.918 25.2915 335.575 25.8014 335.575 26.5089V43.1777H334.728V43.1881Z" fill="white"/>
<path d="M342.54 25.4139L342.74 27.5157C342.797 28.14 343.188 28.5042 343.587 28.5042C343.873 28.5042 344.244 28.2961 344.244 27.7654C344.215 27.2556 344.129 26.6001 344.072 25.9549C344.044 25.5075 344.329 25.4555 344.757 25.4555L344.986 27.6197C345.033 28.2128 345.3 28.5146 345.747 28.5146C346.194 28.5146 346.508 28.0984 346.423 27.3908C346.242 25.8405 346.308 26.2255 346.28 25.8717C346.28 25.5491 346.508 25.4867 346.898 25.4867L347.117 27.7446C347.117 28.3689 346.832 29.0452 345.88 29.1389C345.604 29.1389 345.062 29.1077 344.634 28.6394C344.415 28.962 344.015 29.1077 343.625 29.1077C342.721 29.1077 342.122 28.3689 342.046 27.4533C341.903 25.9653 341.932 25.9341 341.932 25.9029C341.932 25.6116 342.188 25.4347 342.436 25.4347H342.55L342.54 25.4139Z" fill="white"/>
<path d="M350.675 38.7337C350.675 40.9292 350.342 42.8333 350.171 43.4264C349.353 46.2461 346.898 48.3792 343.415 48.3792C342.14 48.3792 341.103 48.0462 341.103 47.0161V46.038C341.55 46.1629 342.093 46.2149 342.654 46.2149C345.452 46.2149 347.174 44.9351 347.859 43.1871C344.414 43.0934 339.781 42.209 339.781 37.0793C339.781 33.0422 341.874 30.5762 345.147 30.5762C349.695 30.5762 350.685 35.0295 350.685 38.7337H350.675ZM348.135 40.6899C348.135 36.3614 348.363 32.8653 344.881 32.8653C343.158 32.8653 342.036 34.3532 342.036 36.6631C342.036 40.3465 344.69 40.6899 348.135 40.6899ZM358.458 43.0934C358.43 43.1871 358.392 43.2495 358.392 43.3327V44.6438C358.392 46.5999 356.926 48.4104 354.7 48.4104C353.53 48.4104 352.749 47.9005 352.749 47.0473V46.371C352.968 46.4022 353.197 46.4334 353.425 46.4334C356.508 46.4334 356.146 44.4773 356.146 40.5858V33.0526H356.907C358.173 33.0526 358.573 33.6145 358.573 35.0399V40.4401C358.915 40.617 359.305 40.7003 359.838 40.7003H369.581V43.1975H359.22C358.934 43.1975 358.687 43.1663 358.458 43.1038V43.0934ZM370.58 43.1871H369.029V40.6899H369.962C371.284 40.6899 372.017 40.0656 372.112 38.4736V25.3217H372.873C374.139 25.3217 374.539 25.8835 374.539 27.309V37.4643C374.539 40.2841 373.692 42.979 370.58 43.1871ZM378.887 43.1871C377.973 43.1871 377.365 42.6564 377.365 41.4078V25.2905H378.497C379.087 25.2905 379.734 25.8003 379.734 26.5078V43.1767H378.887V43.1871Z" fill="white"/>
<path d="M285.213 22.3256L285.413 24.4274C285.47 25.0517 285.86 25.4159 286.26 25.4159C286.545 25.4159 286.916 25.2078 286.916 24.6667C286.888 24.1569 286.802 23.5118 286.745 22.8563C286.716 22.4088 287.002 22.3568 287.421 22.3568L287.649 24.5211C287.706 25.1141 287.963 25.4159 288.42 25.4159C288.876 25.4159 289.181 24.9997 289.095 24.2921C288.924 22.7418 288.981 23.1372 288.952 22.773C288.952 22.4505 289.181 22.388 289.571 22.388L289.799 24.6355C289.799 25.2598 289.514 25.9361 288.562 26.0298C288.286 26.0298 287.744 25.9986 287.316 25.5303C287.097 25.8529 286.697 25.9986 286.307 25.9986C285.403 25.9986 284.813 25.2598 284.728 24.3442C284.585 22.8563 284.614 22.825 284.614 22.7938C284.614 22.5025 284.871 22.3256 285.118 22.3256H285.232H285.213Z" fill="white"/>
<path d="M198.218 22.1271L198.418 24.2289C198.475 24.8532 198.865 25.207 199.265 25.207C199.55 25.207 199.921 24.9989 199.921 24.4682C199.893 23.9584 199.807 23.3029 199.75 22.6577C199.722 22.2103 199.998 22.1583 200.426 22.1583L200.654 24.3225C200.702 24.9156 200.968 25.2174 201.415 25.2174C201.862 25.2174 202.176 24.8012 202.091 24.0936C201.91 22.5433 201.977 22.9283 201.948 22.5745C201.948 22.252 202.176 22.1895 202.567 22.1895L202.795 24.437C202.795 25.0613 202.509 25.7376 201.548 25.8313C201.272 25.8313 200.73 25.8001 200.302 25.3318C200.083 25.6544 199.693 25.8001 199.293 25.8001C198.389 25.8001 197.8 25.0613 197.714 24.1457C197.571 22.6577 197.6 22.6265 197.6 22.5953C197.6 22.304 197.857 22.1271 198.104 22.1271H198.218Z" fill="white"/>
<path d="M354.711 11.1802V17.5584H357.955C358.212 17.5584 358.412 17.6313 358.555 17.7665C358.698 17.9018 358.764 18.0787 358.764 18.2972C358.764 18.5157 358.698 18.6822 358.555 18.8174C358.422 18.9527 358.222 19.0151 357.955 19.0151H354.092C353.74 19.0151 353.493 18.9319 353.341 18.755C353.188 18.5781 353.112 18.3076 353.112 17.9226V11.1802C353.112 10.8264 353.188 10.5559 353.331 10.3686C353.474 10.1917 353.664 10.098 353.902 10.098C354.14 10.098 354.34 10.1917 354.492 10.3686C354.644 10.5455 354.711 10.816 354.711 11.1802Z" fill="white"/>
<path d="M360.686 19.1624C360.467 19.1624 360.267 19.0792 360.105 18.9231C359.944 18.767 359.867 18.5381 359.867 18.2572C359.867 18.0179 359.944 17.8098 360.096 17.6329C360.248 17.456 360.438 17.3728 360.667 17.3728C360.895 17.3728 361.085 17.456 361.247 17.6329C361.409 17.8098 361.485 18.0179 361.485 18.2676C361.485 18.5485 361.409 18.767 361.247 18.9335C361.085 19.0896 360.895 19.1728 360.686 19.1728V19.1624Z" fill="white"/>
<path d="M364.834 11.1802V17.5584H368.078C368.335 17.5584 368.535 17.6313 368.678 17.7665C368.821 17.9018 368.887 18.0787 368.887 18.2972C368.887 18.5157 368.821 18.6822 368.678 18.8174C368.545 18.9527 368.345 19.0151 368.078 19.0151H364.215C363.863 19.0151 363.616 18.9319 363.464 18.755C363.311 18.5781 363.235 18.3076 363.235 17.9226V11.1802C363.235 10.8264 363.311 10.5559 363.454 10.3686C363.597 10.1917 363.787 10.098 364.025 10.098C364.263 10.098 364.463 10.1917 364.615 10.3686C364.767 10.5455 364.834 10.816 364.834 11.1802Z" fill="white"/>
<path d="M370.809 19.1624C370.59 19.1624 370.39 19.0792 370.228 18.9231C370.067 18.767 369.991 18.5381 369.991 18.2572C369.991 18.0179 370.067 17.8098 370.219 17.6329C370.371 17.456 370.561 17.3728 370.79 17.3728C371.018 17.3728 371.208 17.456 371.37 17.6329C371.532 17.8098 371.608 18.0179 371.608 18.2676C371.608 18.5485 371.532 18.767 371.37 18.9335C371.208 19.0896 371.018 19.1728 370.809 19.1728V19.1624Z" fill="white"/>
<path d="M380.124 16.2474C380.124 16.5283 380.057 16.8301 379.934 17.1526C379.81 17.4752 379.61 17.7978 379.353 18.1099C379.087 18.4221 378.744 18.6718 378.335 18.8695C377.926 19.0672 377.441 19.1608 376.889 19.1608C376.47 19.1608 376.09 19.1192 375.747 19.0255C375.405 18.9423 375.1 18.7966 374.815 18.6197C374.529 18.4429 374.282 18.1931 374.044 17.8914C373.835 17.6209 373.654 17.3087 373.511 16.9654C373.368 16.622 373.254 16.2578 373.178 15.8728C373.102 15.4878 373.064 15.0716 373.064 14.645C373.064 13.9375 373.159 13.3132 373.34 12.7513C373.521 12.1895 373.787 11.7212 374.139 11.3154C374.482 10.92 374.891 10.6183 375.357 10.4102C375.823 10.2021 376.318 10.098 376.841 10.098C377.479 10.098 378.05 10.2437 378.554 10.5247C379.058 10.8056 379.439 11.1594 379.705 11.5756C379.972 11.9918 380.105 12.3871 380.105 12.7513C380.105 12.9594 380.038 13.1363 379.915 13.2924C379.781 13.4485 379.629 13.5213 379.448 13.5213C379.239 13.5213 379.087 13.4693 378.992 13.3652C378.897 13.2612 378.773 13.0739 378.649 12.8138C378.44 12.3767 378.193 12.0542 377.917 11.8357C377.631 11.6172 377.289 11.5131 376.87 11.5131C376.213 11.5131 375.69 11.7941 375.3 12.3455C374.91 12.897 374.72 13.6878 374.72 14.7075C374.72 15.3838 374.805 15.9561 374.976 16.4035C375.148 16.8509 375.395 17.1943 375.709 17.4128C376.023 17.6313 376.394 17.7457 376.822 17.7457C377.279 17.7457 377.669 17.6209 377.993 17.3711C378.307 17.1214 378.554 16.7468 378.716 16.2578C378.782 16.0289 378.868 15.8416 378.973 15.6959C379.077 15.5503 379.239 15.4774 379.458 15.4774C379.648 15.4774 379.81 15.5503 379.953 15.6959C380.086 15.8416 380.162 16.0289 380.162 16.2474H380.124Z" fill="white"/>
<path d="M91.2134 41.1666H91.1278C90.5093 41.1666 89.8052 40.7504 89.0916 40.7504C88.378 40.7504 87.6453 40.896 86.9698 41.1874C87.1601 41.8637 87.2933 42.6857 87.2933 43.3828C87.2933 44.2673 87.0269 46.0465 86.4274 46.6708L85.7043 41.3226C85.514 39.8763 87.9783 39.0648 88.8252 38.7318C88.6349 38.4613 88.1877 38.1179 87.8547 38.1179C87.1791 38.1179 86.7034 38.9087 86.2181 39.3145C86.4845 38.1699 87.4741 35.8808 88.711 35.8808C89.6435 35.8808 91.3657 38.3468 91.908 39.1168L91.2134 41.177V41.1666Z" fill="white"/>
<path d="M94.6668 42.5531C94.4765 42.5531 93.0873 41.6374 93.0873 41.4605C93.0873 41.2524 94.4003 40.1703 94.6477 40.1703C94.8666 40.1703 96.1225 41.2004 96.3319 41.4397C96.1796 41.7103 94.9427 42.5531 94.6668 42.5531Z" fill="white"/>
<path d="M104.011 41.1666H103.925C103.307 41.1666 102.603 40.7504 101.889 40.7504C101.176 40.7504 100.443 40.896 99.7674 41.1874C99.9577 41.8637 100.091 42.6857 100.091 43.3828C100.091 44.2673 99.8245 46.0465 99.225 46.6708L98.5019 41.3226C98.3116 39.8763 100.776 39.0648 101.623 38.7318C101.432 38.4613 100.985 38.1179 100.652 38.1179C99.9767 38.1179 99.501 38.9087 99.0157 39.3145C99.2821 38.1699 100.272 35.8808 101.509 35.8808C102.441 35.8808 104.163 38.3468 104.706 39.1168L104.011 41.177V41.1666Z" fill="white"/>
<path d="M107.455 42.5531C107.264 42.5531 105.875 41.6374 105.875 41.4605C105.875 41.2524 107.188 40.1703 107.436 40.1703C107.655 40.1703 108.91 41.2004 109.12 41.4397C108.968 41.7103 107.731 42.5531 107.455 42.5531Z" fill="white"/>
<path d="M112.536 35.0295C112.326 35.0295 111.251 34.2075 111.251 33.9682C111.251 33.7913 112.155 32.7925 112.345 32.678L113.697 33.8538C113.582 34.0619 112.707 35.0295 112.536 35.0295ZM115.933 42.5524H111.403L111.613 40.2945H115.257L115.276 40.2112C114.924 39.0043 113.982 38.4424 112.973 37.9846L113.725 35.4978C115.581 36.3198 116.513 38.1927 116.513 40.2841C116.513 40.898 116.532 42.2194 115.942 42.542L115.933 42.5524Z" fill="white"/>
</svg>
