<svg width="151" height="122" viewBox="0 0 151 122" fill="none" xmlns="http://www.w3.org/2000/svg">
<g filter="url(#filter0_d_496_8664)">
<path d="M4.3 22.2998C4.3 13.4633 11.4634 6.2998 20.3 6.2998H118.3C127.137 6.2998 134.3 13.4632 134.3 22.2998V91.2998C134.3 100.136 127.137 107.3 118.3 107.3H20.3C11.4634 107.3 4.3 100.136 4.3 91.2998V22.2998Z" fill="#D9D9D9"/>
<path d="M4.3 22.2998C4.3 13.4633 11.4634 6.2998 20.3 6.2998H118.3C127.137 6.2998 134.3 13.4632 134.3 22.2998V91.2998C134.3 100.136 127.137 107.3 118.3 107.3H20.3C11.4634 107.3 4.3 100.136 4.3 91.2998V22.2998Z" fill="#1A4D96"/>
</g>
<defs>
<filter id="filter0_d_496_8664" x="2.86102e-06" y="-0.000195503" width="150.6" height="121.6" filterUnits="userSpaceOnUse" color-interpolation-filters="sRGB">
<feFlood flood-opacity="0" result="BackgroundImageFix"/>
<feColorMatrix in="SourceAlpha" type="matrix" values="0 0 0 0 0 0 0 0 0 0 0 0 0 0 0 0 0 0 127 0" result="hardAlpha"/>
<feOffset dx="6" dy="4"/>
<feGaussianBlur stdDeviation="5.15"/>
<feComposite in2="hardAlpha" operator="out"/>
<feColorMatrix type="matrix" values="0 0 0 0 0 0 0 0 0 0 0 0 0 0 0 0 0 0 0.25 0"/>
<feBlend mode="normal" in2="BackgroundImageFix" result="effect1_dropShadow_496_8664"/>
<feBlend mode="normal" in="SourceGraphic" in2="effect1_dropShadow_496_8664" result="shape"/>
</filter>
</defs>
</svg>
