<svg width="79" height="79" viewBox="0 0 79 79" fill="none" xmlns="http://www.w3.org/2000/svg">
<path d="M77.8624 44.3152C78.088 42.6109 78.2177 40.8731 78.2177 39.1064C78.2177 17.5081 60.7047 0 39.1064 0C17.5081 0 0 17.5081 0 39.1064C0 40.7387 0.110416 42.3469 0.307244 43.9263C10.7247 38.2855 24.1187 34.8914 38.732 34.8914C53.3453 34.8914 67.3441 38.4391 77.8624 44.3104V44.3152Z" fill="url(#paint0_linear_452_1897)"/>
<path d="M39.1064 78.218C58.9381 78.218 75.3084 63.4511 77.8576 44.3203C67.3441 38.4491 53.6717 34.9014 38.7272 34.9014C23.7826 34.9014 10.7247 38.2907 0.307243 43.9267C2.68359 63.2494 19.1452 78.2132 39.1064 78.2132V78.218Z" fill="url(#paint1_linear_452_1897)"/>
<path d="M32.6111 62.0435C35.4675 61.9283 36.5476 60.1665 39.9993 60.1665C43.451 60.1665 44.4208 62.0435 47.4404 61.9859C50.508 61.9283 52.4571 59.1487 54.3342 56.3499C56.5089 53.1142 57.4018 49.9842 57.4546 49.8258C57.3874 49.7922 51.4682 47.4878 51.4058 40.546C51.353 34.7372 56.0624 31.948 56.2737 31.8088C53.6237 27.8674 49.4999 27.3249 48.0261 27.2625C44.5168 26.9025 41.1803 29.3652 39.3992 29.3652C37.6182 29.3652 34.8722 27.3153 31.963 27.3681C28.1368 27.4257 24.6083 29.6341 22.64 33.1194C18.6651 40.138 21.6223 50.5411 25.4964 56.2347C27.3879 59.0191 29.6442 62.1539 32.6111 62.0387V62.0435Z" fill="white"/>
<path d="M41.4391 19.6389C39.9845 21.3623 38.7075 24.1035 39.0483 26.7391C41.5831 26.9407 44.1611 25.4285 45.7357 23.4938C47.3055 21.5495 48.3713 18.8564 48.0784 16.168C45.8125 16.2592 43.0665 17.6994 41.4391 19.6389Z" fill="white"/>
<defs>
<linearGradient id="paint0_linear_452_1897" x1="39.1064" y1="44.3152" x2="39.1064" y2="0" gradientUnits="userSpaceOnUse">
<stop stop-color="#808184"/>
<stop offset="1" stop-color="#BBBDBF"/>
</linearGradient>
<linearGradient id="paint1_linear_452_1897" x1="39.0824" y1="78.218" x2="39.0824" y2="34.8966" gradientUnits="userSpaceOnUse">
<stop stop-color="#808184"/>
<stop offset="0.25" stop-color="#7C7D80"/>
<stop offset="0.49" stop-color="#717274"/>
<stop offset="0.73" stop-color="#5F5F61"/>
<stop offset="0.95" stop-color="#464647"/>
<stop offset="1" stop-color="#404041"/>
</linearGradient>
</defs>
</svg>
