<svg width="34" height="26" viewBox="0 0 34 26" fill="none" xmlns="http://www.w3.org/2000/svg">
<path d="M12.4682 13.5234H10.652C10.3863 13.5234 10.1722 13.7376 10.1722 14.0033C10.1722 14.269 10.3863 14.4831 10.652 14.4831H12.4682C12.7339 14.4831 12.948 14.269 12.948 14.0033C12.948 13.7376 12.7339 13.5234 12.4682 13.5234Z" fill="#1B4C95"/>
<path d="M12.4682 16.8643H10.652C10.3863 16.8643 10.1722 17.0784 10.1722 17.3441C10.1722 17.6098 10.3863 17.8239 10.652 17.8239H12.4682C12.7339 17.8239 12.948 17.6098 12.948 17.3441C12.948 17.0784 12.7339 16.8643 12.4682 16.8643Z" fill="#1B4C95"/>
<path d="M12.4682 20.1353H10.652C10.3863 20.1353 10.1722 20.3494 10.1722 20.6151C10.1722 20.8808 10.3863 21.0949 10.652 21.0949H12.4682C12.7339 21.0949 12.948 20.8808 12.948 20.6151C12.948 20.3494 12.7339 20.1353 12.4682 20.1353Z" fill="#1B4C95"/>
<path d="M28.3236 20.1353H26.5074C26.2417 20.1353 26.0276 20.3494 26.0276 20.6151C26.0276 20.8808 26.2417 21.0949 26.5074 21.0949H28.3236C28.5893 21.0949 28.8034 20.8808 28.8034 20.6151C28.8034 20.3494 28.5893 20.1353 28.3236 20.1353Z" fill="#1B4C95"/>
<path d="M15.9379 17.8264H17.7541C18.0198 17.8264 18.234 17.6123 18.234 17.3465C18.234 17.0808 18.0198 16.8667 17.7541 16.8667H15.9379C15.6722 16.8667 15.4581 17.0808 15.4581 17.3465C15.4581 17.6123 15.6722 17.8264 15.9379 17.8264Z" fill="#1B4C95"/>
<path d="M23.0402 17.8264C23.3059 17.8264 23.52 17.6123 23.52 17.3465C23.52 17.0808 23.3059 16.8667 23.0402 16.8667H21.224C20.9583 16.8667 20.7442 17.0808 20.7442 17.3465C20.7442 17.6123 20.9583 17.8264 21.224 17.8264H23.0402Z" fill="#1B4C95"/>
<path d="M28.3236 16.8643H26.5074C26.2417 16.8643 26.0276 17.0784 26.0276 17.3441C26.0276 17.6098 26.2417 17.8239 26.5074 17.8239H28.3236C28.5893 17.8239 28.8034 17.6098 28.8034 17.3441C28.8034 17.0784 28.5893 16.8643 28.3236 16.8643Z" fill="#1B4C95"/>
<path d="M28.3235 13.5234H18.4971C18.2314 13.5234 18.0172 13.7376 18.0172 14.0033C18.0172 14.269 18.2314 14.4831 18.4971 14.4831H28.3235C28.5892 14.4831 28.8033 14.269 28.8033 14.0033C28.8033 13.7376 28.5892 13.5234 28.3235 13.5234Z" fill="#1B4C95"/>
<path d="M23.4116 20.1353H15.9379C15.6722 20.1353 15.4581 20.3494 15.4581 20.6151C15.4581 20.8808 15.6722 21.0949 15.9379 21.0949H23.4116C23.6773 21.0949 23.8914 20.8808 23.8914 20.6151C23.8914 20.3494 23.6773 20.1353 23.4116 20.1353Z" fill="#1B4C95"/>
<path d="M32.5312 5.97738H27.0337V0.479838C27.0337 0.214119 26.8195 0 26.5538 0H0.479846C0.214127 0 0 0.214119 0 0.479838V18.9228C0 19.1885 0.214127 19.4026 0.479846 19.4026H5.97738V24.9002C5.97738 25.1659 6.1915 25.38 6.45722 25.38H32.5312C32.7969 25.38 33.011 25.1659 33.011 24.9002V6.45722C33.011 6.1915 32.7969 5.97738 32.5312 5.97738ZM32.0513 9.22018H29.8405V6.93964H32.0513V9.22018ZM6.93707 9.22018V6.93964H22.4648V9.22018H6.93707ZM23.4271 6.93964H25.638V9.22018H23.4271V6.93964ZM26.6699 6.93964H28.8086V9.22018H26.6699V6.93964ZM20.6925 0.962258H22.8312V3.24279H20.6925V0.962258ZM23.8631 0.962258H26.0714V3.24279H23.8631V0.962258ZM19.658 0.962258V3.24279H17.4471V0.962258H19.658ZM0.959683 0.962258H16.4875V3.24279H0.959683V0.962258ZM0.959683 18.4429V4.20506H26.074V5.97738H6.45722C6.1915 5.97738 5.97738 6.1915 5.97738 6.45722V18.4429H0.962266H0.959683ZM6.93707 24.4203V10.1824H32.0513V24.4203H6.93707Z" fill="#1B4C95"/>
</svg>
